<svg width="55" height="56" viewBox="0 0 55 56" fill="none" xmlns="http://www.w3.org/2000/svg">
<path d="M30.5 56C17 56 6 43.5 6 28C6 12.5 17 0 30.5 0C44 0 55 12.5 55 28C55 43.5 44 56 30.5 56Z" fill="#FEEBEF"/>
<path d="M6 28C6 13.7 15.4 1.9 27.5 0.2C26.5 0.1 25.5 0 24.5 0C11 0 0 12.5 0 28C0 43.5 11 56 24.5 56C25.5 56 26.5 55.9 27.5 55.8C15.4 54.1 6 42.3 6 28Z" fill="#FFBFCD"/>
<path d="M30.6 50.5C29.8 50.5 29.1 50.5 28.4 50.4C27.9 50.3 27.5 49.8 27.5 49.3C27.6 48.8 28.1 48.4 28.6 48.4C29.2 48.5 29.8 48.5 30.5 48.5C31.1 48.5 31.5 48.9 31.5 49.5C31.5 50.1 31.1 50.5 30.6 50.5ZM36.4 49.4C36 49.4 35.6 49.2 35.5 48.8C35.3 48.3 35.5999 47.7 36.0999 47.5C36.6999 47.3 37.2999 47 37.7999 46.7C38.2999 46.4 38.8999 46.6 39.0999 47.1C39.3999 47.6 39.2 48.2 38.7 48.4C38.1 48.7 37.3999 49 36.7999 49.2C36.5999 49.4 36.5 49.4 36.4 49.4ZM22.9 48.7C22.7 48.7 22.6 48.7 22.4 48.6C21.8 48.3 21.2 47.9 20.6 47.6C20.1 47.3 20 46.7 20.3 46.2C20.6 45.7 21.2 45.6 21.7 45.9C22.2 46.2 22.8 46.6 23.3 46.8C23.8 47.1 24 47.7 23.7 48.1C23.6 48.5 23.2 48.7 22.9 48.7ZM43 45.1C42.7 45.1 42.4999 45 42.2999 44.8C41.8999 44.4 41.8999 43.8 42.2999 43.4C42.6999 43 43.1999 42.5 43.5999 42C43.8999 41.6 44.6 41.5 45 41.9C45.4 42.3 45.4999 42.9 45.0999 43.3C44.6999 43.8 44.2 44.4 43.7 44.8C43.5 45 43.2 45.1 43 45.1ZM16.8 43.7C16.5 43.7 16.2 43.6 16 43.3C15.6 42.8 15.1 42.2 14.8 41.6C14.5 41.1 14.6 40.5 15.1 40.2C15.6 39.9 16.2 40 16.5 40.5C16.9 41 17.2 41.5 17.6 42C18 42.4 17.9 43.1 17.5 43.4C17.2 43.6 17 43.7 16.8 43.7ZM47.4 38.6C47.3 38.6 47.1 38.6 47 38.5C46.5 38.3 46.3 37.7 46.5 37.2C46.8 36.6 47 36 47.2 35.4C47.4 34.9 47.9 34.6 48.5 34.8C49 35 49.2999 35.5 49.0999 36.1C48.8999 36.8 48.6 37.4 48.4 38C48.1 38.4 47.8 38.6 47.4 38.6ZM12.9 36.8C12.5 36.8 12.1 36.5 12 36.1C11.8 35.5 11.6 34.8 11.4 34.1C11.3 33.6 11.6 33 12.1 32.9C12.6 32.8 13.2 33.1 13.3 33.6C13.5 34.2 13.6 34.8 13.8 35.4C14 35.9 13.7 36.5 13.2 36.7C13.2 36.8 13.1 36.8 12.9 36.8ZM49.2999 30.9C49.1999 30.9 49.1999 30.9 49.2999 30.9C48.6999 30.9 48.2999 30.4 48.2999 29.8C48.2999 29.2 48.4 28.6 48.4 28C48.4 27.4 48.8 27 49.4 27C50 27 50.4 27.4 50.4 28V28C50.4 28.7 50.3999 29.3 50.2999 30C50.1999 30.5 49.7999 30.9 49.2999 30.9ZM11.7 29C11.1 29 10.7 28.6 10.7 28C10.7 27.3 10.7 26.6 10.8 26C10.8 25.5 11.3 25 11.9 25.1C12.5 25.1 12.9 25.6 12.8 26.2C12.8 26.8 12.7 27.5 12.7 28.1C12.7 28.6 12.2 29 11.7 29ZM48.5999 23C48.1999 23 47.6999 22.7 47.5999 22.2C47.3999 21.6 47.2999 21 47.0999 20.4C46.8999 19.9 47.2 19.3 47.7 19.1C48.2 18.9 48.8 19.2 49 19.7C49.2 20.3 49.3999 21 49.5999 21.7C49.6999 22.2 49.4 22.8 48.9 22.9C48.8 23 48.6999 23 48.5999 23ZM12.9 21.2C12.8 21.2 12.7 21.2 12.6 21.1C12.1 20.9 11.8 20.4 12 19.8C12.2 19.2 12.5 18.5 12.7 17.9C12.9 17.4 13.5 17.2 14 17.4C14.5 17.6 14.7 18.2 14.5 18.7C14.2 19.3 14 19.9 13.8 20.5C13.7 21 13.3 21.2 12.9 21.2ZM45.4 15.8C45.1 15.8 44.7999 15.6 44.5999 15.4C44.1999 14.9 43.9 14.4 43.5 13.9C43.1 13.5 43.1999 12.8 43.5999 12.5C43.9999 12.1 44.7 12.2 45 12.6C45.4 13.1 45.9 13.7 46.2 14.3C46.5 14.8 46.4 15.4 45.9 15.7C45.8 15.8 45.6 15.8 45.4 15.8ZM16.7 14.3C16.5 14.3 16.3 14.2 16.1 14.1C15.7 13.8 15.6 13.1 16 12.7C16.4 12.2 16.9 11.6 17.4 11.2C17.8 10.8 18.4 10.8 18.8 11.2C19.2 11.6 19.2 12.2 18.8 12.6C18.4 13 17.9 13.5 17.5 14C17.3 14.2 17 14.3 16.7 14.3ZM39.7999 10.3C39.5999 10.3 39.3999 10.2 39.2999 10.1C38.7999 9.8 38.2 9.4 37.7 9.2C37.2 9 36.9999 8.3 37.2999 7.9C37.4999 7.4 38.0999 7.2 38.5999 7.5C39.1999 7.8 39.8 8.2 40.4 8.5C40.9 8.8 41 9.4 40.7 9.9C40.5 10.1 40.0999 10.3 39.7999 10.3ZM22.8 9.3C22.4 9.3 22.1 9.1 21.9 8.8C21.6 8.3 21.8 7.7 22.3 7.5C22.9 7.2 23.6 6.9 24.2 6.7C24.7 6.5 25.3 6.8 25.5 7.3C25.7 7.8 25.4 8.4 24.9 8.6C24.3 8.8 23.7 9.1 23.2 9.4C23.1 9.3 23 9.3 22.8 9.3ZM32.4 7.6H32.2999C31.6999 7.5 31.1 7.5 30.5 7.5C29.9 7.5 29.5 7.1 29.5 6.5C29.5 5.9 29.9 5.5 30.5 5.5C31.2 5.5 31.9 5.5 32.5 5.6C33 5.7 33.4 6.2 33.4 6.7C33.4 7.2 32.9 7.6 32.4 7.6Z" fill="#FFBFCD"/>
<path d="M6 29H0C0 29.7 0.1 30.3 0.1 31H6.1C6.1 30.3 6 29.7 6 29Z" fill="#F48BA2"/>
<path d="M6.2 24H0.2C0.1 24.7 0.1 25.3 0 26H6C6.1 25.3 6.1 24.7 6.2 24Z" fill="#F48BA2"/>
<path d="M6.5 34H0.5C0.6 34.7 0.8 35.3 1 36H7C6.8 35.3 6.7 34.7 6.5 34Z" fill="#F48BA2"/>
<path d="M7.90002 39H1.90002C2.20002 39.7 2.40002 40.3 2.70002 41H8.70002C8.50002 40.3 8.20002 39.7 7.90002 39Z" fill="#F48BA2"/>
<path d="M7.30005 19H1.30005C1.10005 19.7 0.900049 20.3 0.800049 21H6.80005C6.90005 20.3 7.10005 19.7 7.30005 19Z" fill="#F48BA2"/>
<path d="M9.30002 14H3.30002C3.00002 14.7 2.70002 15.3 2.40002 16H8.40002C8.60002 15.3 8.90002 14.7 9.30002 14Z" fill="#F48BA2"/>
<path d="M13.3 8H7.29995C6.69995 8.6 6.19995 9.3 5.69995 10H11.7C12.2 9.3 12.8 8.6 13.3 8Z" fill="#F48BA2"/>
<path d="M19.5 3H13.5C12.5 3.6 11.5 4.3 10.6 5H16.6C17.5 4.3 18.4 3.6 19.5 3Z" fill="#F48BA2"/>
<path d="M11 45H5C5.5 45.7 6 46.4 6.5 47H12.5C12 46.4 11.5 45.7 11 45Z" fill="#F48BA2"/>
<path d="M9.30005 50C10.1 50.7 10.9 51.4 11.8 52H17.8C16.9 51.4 16.1 50.7 15.3 50H9.30005Z" fill="#F48BA2"/>
<path d="M31.9976 33.1802H28.0669V36H24.9907V33.1802H22.4883V30.7021H24.9907V29.396H22.4883V26.918H24.9907V18.2266H31.79C33.7513 18.2266 35.3179 18.7393 36.4897 19.7646C37.6616 20.7819 38.2476 22.1369 38.2476 23.8296C38.2476 25.5549 37.6901 26.9098 36.5752 27.8945C35.4603 28.8711 33.91 29.3716 31.9243 29.396H28.0669V30.7021H31.9976V33.1802ZM28.0669 26.918H31.7412C32.848 26.918 33.6943 26.6616 34.2803 26.1489C34.8662 25.6362 35.1592 24.8713 35.1592 23.854C35.1592 22.9425 34.8703 22.1979 34.2925 21.6201C33.7228 21.0423 32.9334 20.7412 31.9243 20.7168H28.0669V26.918Z" fill="#F48BA2"/>
</svg>
