<svg width="114" height="101" viewBox="0 0 114 101" fill="none" xmlns="http://www.w3.org/2000/svg">
<path d="M75 77.2586L17 98V36.7414L75 16V77.2586Z" fill="#FFBFCD"/>
<path d="M23 53L49.5 43.5M37 73L63.5 63.5" stroke="#F1AABA"/>
<path d="M0 20.5176L16.7206 37L75 16.4824L58.2794 0L0 20.5176Z" fill="#FFDCE4"/>
<path d="M17 98V37.4654L0 21V81.5346L17 98Z" fill="#E492A4"/>
<path d="M10.5 67L16.5 71V69.5L10.5 67Z" fill="#DC8094"/>
<path d="M7.5 41.5L0 35V37.5L7.5 41.5Z" fill="#DC8094"/>
<path d="M10.5 83L0 72.5V74.5L10.5 83Z" fill="#DC8094"/>
<ellipse cx="38" cy="18" rx="10" ry="6" fill="#FFBFCD"/>
<ellipse cx="56.5" cy="11.5" rx="2.5" ry="1.5" fill="#FFBFCD"/>
<ellipse cx="19.5" cy="24.5" rx="2.5" ry="1.5" fill="#FFBFCD"/>
<path d="M36 36L17 41.5V43L36 36Z" fill="#F1AABA"/>
<path d="M36 85L17 90.5V92L36 85Z" fill="#F1AABA"/>
<path d="M25.5 67L17 69.5V71L25.5 67Z" fill="#F1AABA"/>
<path d="M52 49.5L17 61.6429V63L52 49.5Z" fill="#F1AABA"/>
<path d="M58 41L74.5 36.3571L74.5 34.9999L58 41Z" fill="#F1AABA"/>
<path d="M84.7951 90.2245C84.7951 94.6557 78.8141 98.2662 71.3976 98.2662C63.9811 98.2662 58 94.6557 58 90.2245C58 85.7934 63.9811 82.1828 71.3976 82.1828C78.8141 82.1828 84.7951 85.7934 84.7951 90.2245Z" fill="white"/>
<path d="M71.3976 98.2663C64.5552 98.2663 58.9091 95.1809 58.0957 91.2093C58.0478 91.5375 58 91.8658 58 92.194C58 96.6251 63.9811 100.236 71.3976 100.236C78.8141 100.236 84.7951 96.6251 84.7951 92.194C84.7951 91.8658 84.7473 91.5375 84.6994 91.2093C83.886 95.1809 78.2399 98.2663 71.3976 98.2663Z" fill="#FFBFCD"/>
<path d="M82.1635 90.1918C82.1635 90.4544 82.1635 90.6841 82.1156 90.9139C82.0678 91.078 81.8286 91.2093 81.5893 91.2093C81.3501 91.1765 81.1587 91.0124 81.1587 90.8482C81.2065 90.6513 81.2065 90.4544 81.2065 90.2246C81.2065 90.0277 81.3979 89.8964 81.685 89.8964C81.9721 89.8964 82.1635 90.0277 82.1635 90.1918ZM81.6372 88.288C81.6372 88.4193 81.5415 88.5506 81.3501 88.5834C81.1108 88.6491 80.8237 88.5506 80.728 88.3865C80.6323 88.1896 80.4888 87.9926 80.3453 87.8285C80.2017 87.6644 80.2974 87.4674 80.5366 87.4018C80.7759 87.3033 81.063 87.369 81.1587 87.5331C81.3022 87.73 81.4458 87.9598 81.5415 88.1567C81.6372 88.2224 81.6372 88.2552 81.6372 88.288ZM81.3022 92.7192C81.3022 92.7848 81.3022 92.8177 81.2544 92.8833C81.1108 93.0802 80.9194 93.2772 80.7759 93.4741C80.6323 93.6382 80.3453 93.6711 80.106 93.5726C79.8668 93.4741 79.8189 93.2772 79.9625 93.1131C80.106 92.9489 80.2974 92.752 80.3931 92.5879C80.5366 92.4238 80.8237 92.3581 81.0151 92.4566C81.2065 92.4894 81.3022 92.6207 81.3022 92.7192ZM79.5797 86.1217C79.5797 86.2202 79.5318 86.2858 79.4361 86.3514C79.2447 86.4827 78.9576 86.4827 78.7663 86.3514C78.5749 86.2202 78.3356 86.056 78.0964 85.9247C77.905 85.8263 77.8571 85.5965 78.0485 85.4652C78.2399 85.3339 78.527 85.3011 78.7184 85.4324C78.9576 85.5637 79.2447 85.7278 79.4361 85.8919C79.5318 85.9576 79.5797 86.056 79.5797 86.1217ZM78.9098 94.7214C78.9098 94.8199 78.8619 94.9183 78.7184 94.984C78.4792 95.1153 78.1921 95.2794 77.905 95.3779C77.6657 95.4763 77.3786 95.4435 77.2351 95.2794C77.0916 95.1153 77.1394 94.9183 77.3786 94.8199C77.6179 94.6886 77.8571 94.5901 78.0964 94.4588C78.2878 94.3275 78.6227 94.3603 78.7663 94.4916C78.862 94.5901 78.9098 94.6558 78.9098 94.7214ZM76.4695 84.6775C76.4695 84.7103 76.4695 84.7759 76.4217 84.8087C76.326 84.9729 76.0389 85.0385 75.7997 84.9729C75.5126 84.8744 75.2255 84.8087 74.9384 84.7431C74.6991 84.6775 74.5556 84.5133 74.6513 84.3164C74.747 84.1523 74.9862 84.0538 75.2733 84.1195C75.6083 84.1851 75.8953 84.2836 76.1824 84.3492C76.3738 84.4477 76.4695 84.5462 76.4695 84.6775ZM75.6083 96.0015C75.6083 96.1328 75.4647 96.2641 75.2733 96.2969C74.9862 96.3626 74.6513 96.4282 74.3163 96.4939C74.0771 96.5267 73.79 96.4282 73.7422 96.2641C73.6943 96.1 73.8379 95.903 74.0771 95.8702C74.3642 95.8046 74.6513 95.7718 74.9384 95.7061C75.1776 95.6405 75.4647 95.7389 75.5604 95.903C75.6083 95.903 75.6083 95.9359 75.6083 96.0015ZM72.7852 84.0538C72.7852 84.0866 72.7852 84.0866 72.7852 84.0538C72.7852 84.2508 72.546 84.382 72.2589 84.382C71.9718 84.382 71.6847 84.3492 71.3976 84.3492C71.1105 84.3492 70.9191 84.2179 70.9191 84.021C70.9191 83.824 71.1105 83.6928 71.3976 83.6928V83.6928C71.7325 83.6928 72.0196 83.6928 72.3546 83.7256C72.5938 83.7584 72.7852 83.8897 72.7852 84.0538ZM71.8761 96.3954C71.8761 96.5923 71.6847 96.7236 71.3976 96.7236C71.0627 96.7236 70.7277 96.7236 70.4406 96.6908C70.2014 96.6908 69.9621 96.5267 70.01 96.3298C70.01 96.1328 70.2492 96.0015 70.5363 96.0343C70.8234 96.0343 71.1584 96.0672 71.4454 96.0672C71.6847 96.0672 71.8761 96.2313 71.8761 96.3954ZM69.0052 84.2836C69.0052 84.4149 68.8616 84.579 68.6224 84.6118C68.3353 84.6775 68.0482 84.7103 67.7611 84.7759C67.5219 84.8416 67.2348 84.7431 67.1391 84.579C67.0434 84.4149 67.1869 84.2179 67.4262 84.1523C67.7133 84.0866 68.0482 84.021 68.3831 83.9553C68.6224 83.9225 68.9095 84.021 68.9573 84.1851C69.0052 84.2179 69.0052 84.2508 69.0052 84.2836ZM68.1439 96.0015C68.1439 96.0343 68.1439 96.0672 68.0961 96.1C68.0004 96.2641 67.7611 96.3626 67.474 96.2969C67.1869 96.2313 66.852 96.1328 66.5649 96.0672C66.3257 96.0015 66.23 95.8046 66.3257 95.6405C66.4214 95.4763 66.7085 95.4107 66.9477 95.4763C67.2348 95.5748 67.5219 95.6405 67.809 95.7061C68.0482 95.7389 68.1439 95.8702 68.1439 96.0015ZM65.5601 85.3339C65.5601 85.4324 65.4644 85.5309 65.3687 85.5965C65.1295 85.7278 64.8902 85.8263 64.651 85.9576C64.4596 86.0889 64.1246 86.056 63.9811 85.9247C63.7897 85.7935 63.8375 85.5637 64.0289 85.4652C64.2682 85.3339 64.5553 85.1698 64.8424 85.0713C65.0816 84.9729 65.3687 85.0057 65.5122 85.1698C65.5601 85.2026 65.5601 85.2683 65.5601 85.3339ZM64.8424 94.7542C64.8424 94.8199 64.7945 94.8855 64.7467 94.9512C64.6031 95.0825 64.2682 95.1153 64.0768 94.984C63.8375 94.8527 63.5505 94.6886 63.3591 94.5245C63.1677 94.3932 63.1677 94.1962 63.3591 94.0649C63.5505 93.9336 63.8375 93.9336 64.0289 94.0649C64.2203 94.1962 64.4596 94.3604 64.6988 94.4916C64.7945 94.5573 64.8424 94.6558 64.8424 94.7542ZM62.9284 87.172C62.9284 87.2377 62.8806 87.3033 62.8327 87.3361C62.6892 87.5003 62.4978 87.6972 62.4021 87.8613C62.3064 88.0254 61.9715 88.0911 61.7801 87.9926C61.5408 87.927 61.4451 87.73 61.5887 87.5659C61.7322 87.369 61.9236 87.172 62.0672 86.9751C62.2107 86.811 62.4978 86.7782 62.737 86.8766C62.8327 86.9423 62.9284 87.0736 62.9284 87.172ZM62.4499 92.752C62.4499 92.8833 62.3542 92.9818 62.2107 93.0474C61.9715 93.1459 61.6844 93.0802 61.5887 92.9161C61.4451 92.7192 61.3016 92.4894 61.2059 92.2925C61.1102 92.1284 61.2537 91.9314 61.493 91.8658C61.7322 91.8001 62.0193 91.8986 62.115 92.0627C62.2107 92.2597 62.3542 92.4566 62.4978 92.6207C62.4499 92.6535 62.4499 92.6864 62.4499 92.752ZM61.6365 89.601L61.6365 89.6338C61.5887 89.8307 61.5887 90.0277 61.5887 90.2246C61.5887 90.4215 61.3973 90.5528 61.1102 90.5528C60.8231 90.5528 60.6317 90.4215 60.6317 90.2246C60.6317 89.9948 60.6317 89.7651 60.6796 89.5681C60.7274 89.404 60.9666 89.2727 61.2059 89.2727C61.4451 89.2727 61.6365 89.4368 61.6365 89.601Z" fill="#FFBFCD"/>
<path d="M71.8761 98.2663L71.8761 100.236C72.211 100.236 72.4981 100.203 72.8331 100.203L72.8331 98.2335C72.4981 98.2335 72.211 98.2663 71.8761 98.2663Z" fill="#F48BA2"/>
<path d="M69.4837 98.2007L69.4837 100.17C69.8186 100.203 70.1057 100.203 70.4407 100.236L70.4407 98.2663C70.1057 98.2335 69.8186 98.2335 69.4837 98.2007Z" fill="#F48BA2"/>
<path d="M74.2685 98.1023L74.2685 100.072C74.6034 100.039 74.8905 99.9732 75.2255 99.9075L75.2255 97.9381C74.8905 98.0038 74.6034 98.0366 74.2685 98.1023Z" fill="#F48BA2"/>
<path d="M76.6609 97.6427L76.6609 99.6121C76.9959 99.5136 77.283 99.4479 77.6179 99.3495L77.6179 97.3801C77.283 97.4457 76.9959 97.5442 76.6609 97.6427Z" fill="#F48BA2"/>
<path d="M67.0913 97.8396L67.0913 99.809C67.4262 99.8747 67.7133 99.9403 68.0482 99.9731L68.0482 98.0037C67.7133 97.9709 67.4262 97.9053 67.0913 97.8396Z" fill="#F48BA2"/>
<path d="M64.6989 97.1832L64.6989 99.1526C65.0338 99.2511 65.3209 99.3495 65.6558 99.448L65.6558 97.4786C65.3209 97.4129 65.0338 97.3145 64.6989 97.1832Z" fill="#F48BA2"/>
<path d="M61.8279 95.87L61.8279 97.8394C62.115 98.0364 62.4499 98.2005 62.7849 98.3646L62.7849 96.3952C62.4499 96.2311 62.115 96.0342 61.8279 95.87Z" fill="#F48BA2"/>
<path d="M59.4355 93.8351L59.4355 95.8045C59.7226 96.1327 60.0575 96.4609 60.3925 96.7563L60.3925 94.7869C60.0575 94.4915 59.7226 94.1961 59.4355 93.8351Z" fill="#F48BA2"/>
<path d="M79.5319 96.6252L79.5319 98.5946C79.8668 98.4305 80.2017 98.2664 80.4888 98.1023L80.4888 96.1329C80.2017 96.297 79.8668 96.4611 79.5319 96.6252Z" fill="#F48BA2"/>
<path d="M81.9243 97.1831C82.2592 96.9205 82.5942 96.6579 82.8812 96.3625L82.8812 94.3931C82.5942 94.6885 82.2592 94.9511 81.9243 95.2137L81.9243 97.1831Z" fill="#F48BA2"/>
<path d="M73.8762 89.733L73.8762 91.0232L75.2255 91.0232L75.2255 92.0329L73.8762 92.0329L73.8762 92.8542L72.6905 92.8542L72.6905 92.0329L72.0655 92.0329L72.0655 92.8542L70.8799 92.8542L70.8799 92.0329L66.7211 92.0329L66.7211 89.8011C66.7211 89.1573 66.9665 88.6431 67.4571 88.2585C67.9438 87.8738 68.5922 87.6815 69.4021 87.6815C70.2276 87.6815 70.876 87.8645 71.3471 88.2304C71.8144 88.5964 72.0539 89.1053 72.0655 89.757L72.0655 91.0232L72.6905 91.0232L72.6905 89.733L73.8762 89.733ZM70.8799 91.0232L70.8799 89.8171C70.8799 89.4538 70.7572 89.176 70.5119 88.9837C70.2666 88.7914 69.9005 88.6952 69.4138 88.6952C68.9777 88.6952 68.6214 88.7901 68.3449 88.9797C68.0684 89.1667 67.9244 89.4258 67.9127 89.757L67.9127 91.0232L70.8799 91.0232Z" fill="#F48BA2"/>
<path d="M84.7952 88.103C84.7952 92.5342 78.8141 96.1448 71.3976 96.1448C63.9811 96.1448 58.0001 92.5342 58.0001 88.103C58.0001 83.6719 63.9811 80.0613 71.3976 80.0613C78.8141 80.0613 84.7952 83.6719 84.7952 88.103Z" fill="white"/>
<path d="M71.3976 96.1447C64.5553 96.1447 58.9092 93.0593 58.0957 89.0877C58.0479 89.4159 58 89.7442 58 90.0724C58 94.5036 63.9811 98.1141 71.3976 98.1141C78.8141 98.1141 84.7951 94.5036 84.7951 90.0724C84.7951 89.7442 84.7473 89.4159 84.6994 89.0877C83.886 93.0593 78.2399 96.1447 71.3976 96.1447Z" fill="#FFBFCD"/>
<path d="M82.1635 88.0702C82.1635 88.3328 82.1635 88.5626 82.1157 88.7923C82.0678 88.9564 81.8286 89.0877 81.5893 89.0877C81.3501 89.0549 81.1587 88.8908 81.1587 88.7267C81.2066 88.5297 81.2066 88.3328 81.2066 88.103C81.2066 87.9061 81.3979 87.7748 81.685 87.7748C81.9721 87.7748 82.1635 87.9061 82.1635 88.0702ZM81.6372 86.1664C81.6372 86.2977 81.5415 86.429 81.3501 86.4619C81.1109 86.5275 80.8238 86.429 80.7281 86.2649C80.6324 86.068 80.4888 85.871 80.3453 85.7069C80.2017 85.5428 80.2974 85.3459 80.5367 85.2802C80.7759 85.1817 81.063 85.2474 81.1587 85.4115C81.3022 85.6084 81.4458 85.8382 81.5415 86.0352C81.6372 86.1008 81.6372 86.1336 81.6372 86.1664ZM81.3022 90.5976C81.3022 90.6632 81.3022 90.6961 81.2544 90.7617C81.1109 90.9587 80.9195 91.1556 80.7759 91.3525C80.6324 91.5167 80.3453 91.5495 80.106 91.451C79.8668 91.3525 79.8189 91.1556 79.9625 90.9915C80.106 90.8274 80.2974 90.6304 80.3931 90.4663C80.5367 90.3022 80.8238 90.2365 81.0152 90.335C81.2066 90.3678 81.3022 90.4991 81.3022 90.5976ZM79.5797 84.0001C79.5797 84.0986 79.5319 84.1642 79.4362 84.2299C79.2448 84.3612 78.9577 84.3612 78.7663 84.2299C78.5749 84.0986 78.3356 83.9345 78.0964 83.8032C77.905 83.7047 77.8572 83.4749 78.0486 83.3436C78.24 83.2123 78.527 83.1795 78.7184 83.3108C78.9577 83.4421 79.2448 83.6062 79.4362 83.7703C79.5319 83.836 79.5797 83.9345 79.5797 84.0001ZM78.9098 92.5998C78.9098 92.6983 78.862 92.7968 78.7184 92.8624C78.4792 92.9937 78.1921 93.1578 77.905 93.2563C77.6658 93.3548 77.3787 93.3219 77.2351 93.1578C77.0916 92.9937 77.1394 92.7968 77.3787 92.6983C77.6179 92.567 77.8572 92.4685 78.0964 92.3372C78.2878 92.2059 78.6227 92.2388 78.7663 92.3701C78.862 92.4685 78.9098 92.5342 78.9098 92.5998ZM76.4696 82.5559C76.4696 82.5887 76.4696 82.6543 76.4217 82.6872C76.326 82.8513 76.0389 82.9169 75.7997 82.8513C75.5126 82.7528 75.2255 82.6872 74.9384 82.6215C74.6992 82.5559 74.5556 82.3918 74.6513 82.1948C74.747 82.0307 74.9863 81.9322 75.2733 81.9979C75.6083 82.0635 75.8954 82.162 76.1825 82.2276C76.3739 82.3261 76.4696 82.4246 76.4696 82.5559ZM75.6083 93.8799C75.6083 94.0112 75.4647 94.1425 75.2733 94.1753C74.9863 94.241 74.6513 94.3066 74.3164 94.3723C74.0771 94.4051 73.79 94.3066 73.7422 94.1425C73.6944 93.9784 73.8379 93.7815 74.0771 93.7486C74.3642 93.683 74.6513 93.6502 74.9384 93.5845C75.1777 93.5189 75.4647 93.6173 75.5604 93.7815C75.6083 93.7815 75.6083 93.8143 75.6083 93.8799ZM72.7852 81.9322C72.7852 81.9651 72.7852 81.9651 72.7852 81.9322C72.7852 82.1292 72.546 82.2605 72.2589 82.2605C71.9718 82.2605 71.6847 82.2276 71.3976 82.2276C71.1105 82.2276 70.9191 82.0963 70.9191 81.8994C70.9191 81.7025 71.1105 81.5712 71.3976 81.5712V81.5712C71.7326 81.5712 72.0197 81.5712 72.3546 81.604C72.5938 81.6368 72.7852 81.7681 72.7852 81.9322ZM71.8761 94.2738C71.8761 94.4708 71.6847 94.6021 71.3976 94.6021C71.0627 94.6021 70.7277 94.6021 70.4407 94.5692C70.2014 94.5692 69.9622 94.4051 70.01 94.2082C70.01 94.0112 70.2493 93.8799 70.5364 93.9128C70.8234 93.9128 71.1584 93.9456 71.4455 93.9456C71.6847 93.9456 71.8761 94.1097 71.8761 94.2738ZM69.0052 82.162C69.0052 82.2933 68.8617 82.4574 68.6224 82.4902C68.3353 82.5559 68.0482 82.5887 67.7611 82.6543C67.5219 82.72 67.2348 82.6215 67.1391 82.4574C67.0434 82.2933 67.187 82.0963 67.4262 82.0307C67.7133 81.9651 68.0482 81.8994 68.3832 81.8338C68.6224 81.8009 68.9095 81.8994 68.9574 82.0635C69.0052 82.0963 69.0052 82.1292 69.0052 82.162ZM68.1439 93.8799C68.1439 93.9128 68.1439 93.9456 68.0961 93.9784C68.0004 94.1425 67.7611 94.241 67.4741 94.1753C67.187 94.1097 66.852 94.0112 66.5649 93.9456C66.3257 93.8799 66.23 93.683 66.3257 93.5189C66.4214 93.3548 66.7085 93.2891 66.9477 93.3548C67.2348 93.4532 67.5219 93.5189 67.809 93.5845C68.0482 93.6173 68.1439 93.7486 68.1439 93.8799ZM65.5601 83.2123C65.5601 83.3108 65.4644 83.4093 65.3687 83.4749C65.1295 83.6062 64.8902 83.7047 64.651 83.836C64.4596 83.9673 64.1247 83.9345 63.9811 83.8032C63.7897 83.6719 63.8376 83.4421 64.029 83.3436C64.2682 83.2123 64.5553 83.0482 64.8424 82.9498C65.0816 82.8513 65.3687 82.8841 65.5123 83.0482C65.5601 83.081 65.5601 83.1467 65.5601 83.2123ZM64.8424 92.6326C64.8424 92.6983 64.7945 92.7639 64.7467 92.8296C64.6032 92.9609 64.2682 92.9937 64.0768 92.8624C63.8376 92.7311 63.5505 92.567 63.3591 92.4029C63.1677 92.2716 63.1677 92.0747 63.3591 91.9434C63.5505 91.8121 63.8376 91.8121 64.029 91.9434C64.2204 92.0747 64.4596 92.2388 64.6988 92.3701C64.7945 92.4357 64.8424 92.5342 64.8424 92.6326ZM62.9285 85.0505C62.9285 85.1161 62.8806 85.1817 62.8328 85.2146C62.6892 85.3787 62.4978 85.5756 62.4021 85.7397C62.3064 85.9039 61.9715 85.9695 61.7801 85.871C61.5409 85.8054 61.4452 85.6084 61.5887 85.4443C61.7322 85.2474 61.9236 85.0505 62.0672 84.8535C62.2107 84.6894 62.4978 84.6566 62.7371 84.755C62.8328 84.8207 62.9285 84.952 62.9285 85.0505ZM62.45 90.6304C62.45 90.7617 62.3543 90.8602 62.2107 90.9258C61.9715 91.0243 61.6844 90.9587 61.5887 90.7945C61.4452 90.5976 61.3016 90.3678 61.2059 90.1709C61.1102 90.0068 61.2538 89.8098 61.493 89.7442C61.7322 89.6785 62.0193 89.777 62.115 89.9411C62.2107 90.1381 62.3543 90.335 62.4978 90.4991C62.45 90.532 62.45 90.5648 62.45 90.6304ZM61.6365 87.4794L61.6365 87.5122C61.5887 87.7091 61.5887 87.9061 61.5887 88.103C61.5887 88.3 61.3973 88.4313 61.1102 88.4313C60.8231 88.4313 60.6317 88.3 60.6317 88.103C60.6317 87.8733 60.6317 87.6435 60.6796 87.4466C60.7274 87.2824 60.9667 87.1511 61.2059 87.1511C61.4452 87.1511 61.6365 87.3153 61.6365 87.4794Z" fill="#FFBFCD"/>
<path d="M71.8761 96.1447L71.8761 98.1141C72.2111 98.1141 72.4982 98.0813 72.8331 98.0813L72.8331 96.1119C72.4982 96.1119 72.2111 96.1447 71.8761 96.1447Z" fill="#F48BA2"/>
<path d="M69.4837 96.0791L69.4837 98.0485C69.8187 98.0813 70.1057 98.0813 70.4407 98.1141L70.4407 96.1447C70.1057 96.1119 69.8187 96.1119 69.4837 96.0791Z" fill="#F48BA2"/>
<path d="M74.2685 95.9807L74.2685 97.9501C74.6035 97.9172 74.8906 97.8516 75.2255 97.786L75.2255 95.8166C74.8906 95.8822 74.6035 95.915 74.2685 95.9807Z" fill="#F48BA2"/>
<path d="M76.661 95.5212L76.661 97.4906C76.9959 97.3921 77.283 97.3265 77.6179 97.228L77.6179 95.2586C77.283 95.3243 76.9959 95.4227 76.661 95.5212Z" fill="#F48BA2"/>
<path d="M67.0913 95.7182L67.0913 97.6876C67.4262 97.7532 67.7133 97.8189 68.0483 97.8517L68.0483 95.8823C67.7133 95.8495 67.4262 95.7838 67.0913 95.7182Z" fill="#F48BA2"/>
<path d="M64.6989 95.0616L64.6989 97.031C65.0338 97.1295 65.3209 97.2279 65.6559 97.3264L65.6559 95.357C65.3209 95.2914 65.0338 95.1929 64.6989 95.0616Z" fill="#F48BA2"/>
<path d="M61.8279 93.7487L61.8279 95.7181C62.115 95.9151 62.45 96.0792 62.7849 96.2433L62.7849 94.2739C62.45 94.1098 62.115 93.9128 61.8279 93.7487Z" fill="#F48BA2"/>
<path d="M59.4355 91.7136L59.4355 93.683C59.7226 94.0112 60.0576 94.3395 60.3925 94.6349L60.3925 92.6655C60.0576 92.3701 59.7226 92.0747 59.4355 91.7136Z" fill="#F48BA2"/>
<path d="M79.5319 94.5037L79.5319 96.4731C79.8668 96.309 80.2018 96.1449 80.4889 95.9808L80.4889 94.0114C80.2018 94.1755 79.8668 94.3396 79.5319 94.5037Z" fill="#F48BA2"/>
<path d="M81.9243 95.0616C82.2592 94.7991 82.5942 94.5365 82.8813 94.2411L82.8813 92.2717C82.5942 92.5671 82.2592 92.8297 81.9243 93.0922L81.9243 95.0616Z" fill="#F48BA2"/>
<path d="M73.8762 87.6115L73.8762 88.9017L75.2255 88.9017L75.2255 89.9114L73.8762 89.9114L73.8762 90.7328L72.6906 90.7328L72.6906 89.9114L72.0656 89.9114L72.0656 90.7328L70.8799 90.7328L70.8799 89.9114L66.7212 89.9114L66.7212 87.6796C66.7212 87.0359 66.9665 86.5217 67.4571 86.137C67.9439 85.7524 68.5922 85.5601 69.4021 85.5601C70.2276 85.5601 70.876 85.743 71.3472 86.109C71.8144 86.4749 72.0539 86.9838 72.0656 87.6356L72.0656 88.9017L72.6906 88.9017L72.6906 87.6115L73.8762 87.6115ZM70.8799 88.9017L70.8799 87.6957C70.8799 87.3324 70.7572 87.0546 70.5119 86.8623C70.2666 86.6699 69.9006 86.5738 69.4138 86.5738C68.9777 86.5738 68.6214 86.6686 68.3449 86.8583C68.0685 87.0452 67.9244 87.3043 67.9127 87.6356L67.9127 88.9017L70.8799 88.9017Z" fill="#F48BA2"/>
<path d="M84.7951 85.9729C84.7951 90.4041 78.8141 94.0146 71.3976 94.0146C63.9811 94.0146 58 90.4041 58 85.9729C58 81.5418 63.9811 77.9312 71.3976 77.9312C78.8141 77.9312 84.7951 81.5418 84.7951 85.9729Z" fill="white"/>
<path d="M71.3976 94.0146C64.5552 94.0146 58.9091 90.9292 58.0957 86.9576C58.0478 87.2858 58 87.614 58 87.9423C58 92.3734 63.9811 95.984 71.3976 95.984C78.8141 95.984 84.7951 92.3734 84.7951 87.9423C84.7951 87.614 84.7473 87.2858 84.6994 86.9576C83.886 90.9292 78.2399 94.0146 71.3976 94.0146Z" fill="#FFBFCD"/>
<path d="M82.1635 85.9401C82.1635 86.2027 82.1635 86.4324 82.1156 86.6622C82.0678 86.8263 81.8286 86.9576 81.5893 86.9576C81.3501 86.9248 81.1587 86.7607 81.1587 86.5965C81.2065 86.3996 81.2065 86.2027 81.2065 85.9729C81.2065 85.776 81.3979 85.6447 81.685 85.6447C81.9721 85.6447 82.1635 85.776 82.1635 85.9401ZM81.6372 84.0363C81.6372 84.1676 81.5415 84.2989 81.3501 84.3317C81.1108 84.3974 80.8237 84.2989 80.728 84.1348C80.6323 83.9378 80.4888 83.7409 80.3453 83.5768C80.2017 83.4127 80.2974 83.2157 80.5366 83.1501C80.7759 83.0516 81.063 83.1173 81.1587 83.2814C81.3022 83.4783 81.4458 83.7081 81.5415 83.905C81.6372 83.9707 81.6372 84.0035 81.6372 84.0363ZM81.3022 88.4675C81.3022 88.5331 81.3022 88.5659 81.2544 88.6316C81.1108 88.8285 80.9194 89.0255 80.7759 89.2224C80.6323 89.3865 80.3453 89.4194 80.106 89.3209C79.8668 89.2224 79.8189 89.0255 79.9625 88.8614C80.106 88.6972 80.2974 88.5003 80.3931 88.3362C80.5366 88.1721 80.8237 88.1064 81.0151 88.2049C81.2065 88.2377 81.3022 88.369 81.3022 88.4675ZM79.5797 81.87C79.5797 81.9684 79.5318 82.0341 79.4361 82.0997C79.2447 82.231 78.9576 82.231 78.7663 82.0997C78.5749 81.9684 78.3356 81.8043 78.0964 81.673C77.905 81.5746 77.8571 81.3448 78.0485 81.2135C78.2399 81.0822 78.527 81.0494 78.7184 81.1807C78.9576 81.312 79.2447 81.4761 79.4361 81.6402C79.5318 81.7059 79.5797 81.8043 79.5797 81.87ZM78.9098 90.4697C78.9098 90.5682 78.8619 90.6666 78.7184 90.7323C78.4792 90.8636 78.1921 91.0277 77.905 91.1262C77.6657 91.2246 77.3786 91.1918 77.2351 91.0277C77.0916 90.8636 77.1394 90.6666 77.3786 90.5682C77.6179 90.4369 77.8571 90.3384 78.0964 90.2071C78.2878 90.0758 78.6227 90.1086 78.7663 90.2399C78.862 90.3384 78.9098 90.4041 78.9098 90.4697ZM76.4695 80.4257C76.4695 80.4586 76.4695 80.5242 76.4217 80.557C76.326 80.7212 76.0389 80.7868 75.7997 80.7212C75.5126 80.6227 75.2255 80.557 74.9384 80.4914C74.6991 80.4257 74.5556 80.2616 74.6513 80.0647C74.747 79.9006 74.9862 79.8021 75.2733 79.8678C75.6083 79.9334 75.8953 80.0319 76.1824 80.0975C76.3738 80.196 76.4695 80.2945 76.4695 80.4257ZM75.6083 91.7498C75.6083 91.8811 75.4647 92.0124 75.2733 92.0452C74.9862 92.1109 74.6513 92.1765 74.3163 92.2422C74.0771 92.275 73.79 92.1765 73.7422 92.0124C73.6943 91.8483 73.8379 91.6513 74.0771 91.6185C74.3642 91.5529 74.6513 91.52 74.9384 91.4544C75.1776 91.3888 75.4647 91.4872 75.5604 91.6513C75.6083 91.6513 75.6083 91.6842 75.6083 91.7498ZM72.7852 79.8021C72.7852 79.8349 72.7852 79.8349 72.7852 79.8021C72.7852 79.999 72.546 80.1303 72.2589 80.1303C71.9718 80.1303 71.6847 80.0975 71.3976 80.0975C71.1105 80.0975 70.9191 79.9662 70.9191 79.7693C70.9191 79.5723 71.1105 79.441 71.3976 79.441V79.441C71.7325 79.441 72.0196 79.441 72.3546 79.4739C72.5938 79.5067 72.7852 79.638 72.7852 79.8021ZM71.8761 92.1437C71.8761 92.3406 71.6847 92.4719 71.3976 92.4719C71.0627 92.4719 70.7277 92.4719 70.4406 92.4391C70.2014 92.4391 69.9621 92.275 70.01 92.078C70.01 91.8811 70.2492 91.7498 70.5363 91.7826C70.8234 91.7826 71.1584 91.8155 71.4454 91.8155C71.6847 91.8155 71.8761 91.9796 71.8761 92.1437ZM69.0052 80.0319C69.0052 80.1632 68.8616 80.3273 68.6224 80.3601C68.3353 80.4257 68.0482 80.4586 67.7611 80.5242C67.5219 80.5899 67.2348 80.4914 67.1391 80.3273C67.0434 80.1632 67.1869 79.9662 67.4262 79.9006C67.7133 79.8349 68.0482 79.7693 68.3831 79.7036C68.6224 79.6708 68.9095 79.7693 68.9573 79.9334C69.0052 79.9662 69.0052 79.999 69.0052 80.0319ZM68.1439 91.7498C68.1439 91.7826 68.1439 91.8155 68.0961 91.8483C68.0004 92.0124 67.7611 92.1109 67.474 92.0452C67.1869 91.9796 66.852 91.8811 66.5649 91.8155C66.3257 91.7498 66.23 91.5529 66.3257 91.3888C66.4214 91.2246 66.7085 91.159 66.9477 91.2246C67.2348 91.3231 67.5219 91.3888 67.809 91.4544C68.0482 91.4872 68.1439 91.6185 68.1439 91.7498ZM65.5601 81.0822C65.5601 81.1807 65.4644 81.2792 65.3687 81.3448C65.1295 81.4761 64.8902 81.5746 64.651 81.7059C64.4596 81.8372 64.1246 81.8043 63.9811 81.673C63.7897 81.5417 63.8375 81.312 64.0289 81.2135C64.2682 81.0822 64.5553 80.9181 64.8424 80.8196C65.0816 80.7212 65.3687 80.754 65.5122 80.9181C65.5601 80.9509 65.5601 81.0166 65.5601 81.0822ZM64.8424 90.5025C64.8424 90.5682 64.7945 90.6338 64.7467 90.6995C64.6031 90.8308 64.2682 90.8636 64.0768 90.7323C63.8375 90.601 63.5505 90.4369 63.3591 90.2728C63.1677 90.1415 63.1677 89.9445 63.3591 89.8132C63.5505 89.6819 63.8375 89.6819 64.0289 89.8132C64.2203 89.9445 64.4596 90.1086 64.6988 90.2399C64.7945 90.3056 64.8424 90.4041 64.8424 90.5025ZM62.9284 82.9203C62.9284 82.986 62.8806 83.0516 62.8327 83.0844C62.6892 83.2486 62.4978 83.4455 62.4021 83.6096C62.3064 83.7737 61.9715 83.8394 61.7801 83.7409C61.5408 83.6753 61.4451 83.4783 61.5887 83.3142C61.7322 83.1173 61.9236 82.9203 62.0672 82.7234C62.2107 82.5593 62.4978 82.5264 62.737 82.6249C62.8327 82.6906 62.9284 82.8219 62.9284 82.9203ZM62.4499 88.5003C62.4499 88.6316 62.3542 88.7301 62.2107 88.7957C61.9715 88.8942 61.6844 88.8285 61.5887 88.6644C61.4451 88.4675 61.3016 88.2377 61.2059 88.0408C61.1102 87.8767 61.2537 87.6797 61.493 87.6141C61.7322 87.5484 62.0193 87.6469 62.115 87.811C62.2107 88.0079 62.3542 88.2049 62.4978 88.369C62.4499 88.4018 62.4499 88.4346 62.4499 88.5003ZM61.6365 85.3493L61.6365 85.3821C61.5887 85.579 61.5887 85.776 61.5887 85.9729C61.5887 86.1698 61.3973 86.3011 61.1102 86.3011C60.8231 86.3011 60.6317 86.1698 60.6317 85.9729C60.6317 85.7431 60.6317 85.5134 60.6796 85.3164C60.7274 85.1523 60.9666 85.021 61.2059 85.021C61.4451 85.021 61.6365 85.1851 61.6365 85.3493Z" fill="#FFBFCD"/>
<path d="M71.8761 94.0146L71.8761 95.984C72.211 95.984 72.4981 95.9512 72.8331 95.9512L72.8331 93.9818C72.4981 93.9818 72.211 94.0146 71.8761 94.0146Z" fill="#F48BA2"/>
<path d="M69.4837 93.949L69.4837 95.9184C69.8186 95.9512 70.1057 95.9512 70.4407 95.984L70.4407 94.0146C70.1057 93.9818 69.8186 93.9818 69.4837 93.949Z" fill="#F48BA2"/>
<path d="M74.2685 93.8507L74.2685 95.8201C74.6034 95.7872 74.8905 95.7216 75.2255 95.656L75.2255 93.6865C74.8905 93.7522 74.6034 93.785 74.2685 93.8507Z" fill="#F48BA2"/>
<path d="M76.6609 93.3909L76.6609 95.3604C76.9959 95.2619 77.283 95.1962 77.6179 95.0978L77.6179 93.1284C77.283 93.194 76.9959 93.2925 76.6609 93.3909Z" fill="#F48BA2"/>
<path d="M67.0913 93.5879L67.0913 95.5573C67.4262 95.623 67.7133 95.6886 68.0482 95.7214L68.0482 93.752C67.7133 93.7192 67.4262 93.6536 67.0913 93.5879Z" fill="#F48BA2"/>
<path d="M64.6989 92.9315L64.6989 94.9009C65.0338 94.9993 65.3209 95.0978 65.6558 95.1963L65.6558 93.2269C65.3209 93.1612 65.0338 93.0628 64.6989 92.9315Z" fill="#F48BA2"/>
<path d="M61.8279 91.6186L61.8279 93.588C62.115 93.7849 62.4499 93.949 62.7849 94.1132L62.7849 92.1438C62.4499 91.9796 62.115 91.7827 61.8279 91.6186Z" fill="#F48BA2"/>
<path d="M59.4355 89.5835L59.4355 91.5529C59.7226 91.8811 60.0575 92.2094 60.3925 92.5048L60.3925 90.5354C60.0575 90.2399 59.7226 89.9445 59.4355 89.5835Z" fill="#F48BA2"/>
<path d="M79.5319 92.3735L79.5319 94.3429C79.8668 94.1788 80.2017 94.0147 80.4888 93.8505L80.4888 91.8811C80.2017 92.0453 79.8668 92.2094 79.5319 92.3735Z" fill="#F48BA2"/>
<path d="M81.9243 92.9316C82.2592 92.6691 82.5942 92.4065 82.8812 92.1111L82.8812 90.1417C82.5942 90.4371 82.2592 90.6997 81.9243 90.9622L81.9243 92.9316Z" fill="#F48BA2"/>
<path d="M73.8762 85.4814L73.8762 86.7716L75.2255 86.7716L75.2255 87.7813L73.8762 87.7813L73.8762 88.6027L72.6905 88.6027L72.6905 87.7813L72.0655 87.7813L72.0655 88.6027L70.8799 88.6027L70.8799 87.7813L66.7211 87.7813L66.7211 85.5495C66.7211 84.9058 66.9665 84.3916 67.4571 84.0069C67.9438 83.6223 68.5922 83.4299 69.4021 83.4299C70.2276 83.4299 70.876 83.6129 71.3471 83.9789C71.8144 84.3448 72.0539 84.8537 72.0655 85.5054L72.0655 86.7716L72.6905 86.7716L72.6905 85.4814L73.8762 85.4814ZM70.8799 86.7716L70.8799 85.5655C70.8799 85.2023 70.7572 84.9245 70.5119 84.7321C70.2666 84.5398 69.9005 84.4436 69.4138 84.4436C68.9777 84.4436 68.6214 84.5385 68.3449 84.7281C68.0684 84.9151 67.9244 85.1742 67.9127 85.5054L67.9127 86.7716L70.8799 86.7716Z" fill="#F48BA2"/>
<path d="M84.7952 83.8513C84.7952 88.2825 78.8141 91.8931 71.3976 91.8931C63.9811 91.8931 58.0001 88.2825 58.0001 83.8513C58.0001 79.4202 63.9811 75.8096 71.3976 75.8096C78.8141 75.8096 84.7952 79.4202 84.7952 83.8513Z" fill="white"/>
<path d="M71.3976 91.8931C64.5553 91.8931 58.9092 88.8078 58.0957 84.8361C58.0479 85.1644 58 85.4926 58 85.8208C58 90.252 63.9811 93.8625 71.3976 93.8625C78.8141 93.8625 84.7951 90.252 84.7951 85.8208C84.7951 85.4926 84.7473 85.1644 84.6994 84.8361C83.886 88.8077 78.2399 91.8931 71.3976 91.8931Z" fill="#FFBFCD"/>
<path d="M82.1635 83.8186C82.1635 84.0812 82.1635 84.311 82.1157 84.5407C82.0678 84.7048 81.8286 84.8361 81.5893 84.8361C81.3501 84.8033 81.1587 84.6392 81.1587 84.4751C81.2066 84.2781 81.2066 84.0812 81.2066 83.8514C81.2066 83.6545 81.3979 83.5232 81.685 83.5232C81.9721 83.5232 82.1635 83.6545 82.1635 83.8186ZM81.6372 81.9149C81.6372 82.0462 81.5415 82.1774 81.3501 82.2103C81.1109 82.2759 80.8238 82.1774 80.7281 82.0133C80.6324 81.8164 80.4888 81.6194 80.3453 81.4553C80.2017 81.2912 80.2974 81.0943 80.5367 81.0286C80.7759 80.9302 81.063 80.9958 81.1587 81.1599C81.3022 81.3569 81.4458 81.5866 81.5415 81.7836C81.6372 81.8492 81.6372 81.882 81.6372 81.9149ZM81.3022 86.346C81.3022 86.4117 81.3022 86.4445 81.2544 86.5101C81.1109 86.7071 80.9195 86.904 80.7759 87.1009C80.6324 87.2651 80.3453 87.2979 80.106 87.1994C79.8668 87.1009 79.8189 86.904 79.9625 86.7399C80.106 86.5758 80.2974 86.3788 80.3931 86.2147C80.5367 86.0506 80.8238 85.985 81.0152 86.0834C81.2066 86.1162 81.3022 86.2475 81.3022 86.346ZM79.5797 79.7485C79.5797 79.847 79.5319 79.9126 79.4362 79.9783C79.2448 80.1096 78.9577 80.1096 78.7663 79.9783C78.5749 79.847 78.3356 79.6829 78.0964 79.5516C77.905 79.4531 77.8572 79.2233 78.0486 79.092C78.24 78.9608 78.527 78.9279 78.7184 79.0592C78.9577 79.1905 79.2448 79.3546 79.4362 79.5188C79.5319 79.5844 79.5797 79.6829 79.5797 79.7485ZM78.9098 88.3482C78.9098 88.4467 78.862 88.5452 78.7184 88.6108C78.4792 88.7421 78.1921 88.9062 77.905 89.0047C77.6658 89.1032 77.3787 89.0704 77.2351 88.9062C77.0916 88.7421 77.1394 88.5452 77.3787 88.4467C77.6179 88.3154 77.8572 88.2169 78.0964 88.0857C78.2878 87.9544 78.6227 87.9872 78.7663 88.1185C78.862 88.2169 78.9098 88.2826 78.9098 88.3482ZM76.4696 78.3043C76.4696 78.3371 76.4696 78.4028 76.4217 78.4356C76.326 78.5997 76.0389 78.6653 75.7997 78.5997C75.5126 78.5012 75.2255 78.4356 74.9384 78.3699C74.6992 78.3043 74.5556 78.1402 74.6513 77.9432C74.747 77.7791 74.9863 77.6806 75.2733 77.7463C75.6083 77.8119 75.8954 77.9104 76.1825 77.9761C76.3739 78.0745 76.4696 78.173 76.4696 78.3043ZM75.6083 89.6283C75.6083 89.7596 75.4647 89.8909 75.2733 89.9238C74.9863 89.9894 74.6513 90.0551 74.3164 90.1207C74.0771 90.1535 73.79 90.0551 73.7422 89.8909C73.6944 89.7268 73.8379 89.5299 74.0771 89.4971C74.3642 89.4314 74.6513 89.3986 74.9384 89.3329C75.1777 89.2673 75.4647 89.3658 75.5604 89.5299C75.6083 89.5299 75.6083 89.5627 75.6083 89.6283ZM72.7852 77.6806C72.7852 77.7135 72.7852 77.7135 72.7852 77.6806C72.7852 77.8776 72.546 78.0089 72.2589 78.0089C71.9718 78.0089 71.6847 77.9761 71.3976 77.9761C71.1105 77.9761 70.9191 77.8448 70.9191 77.6478C70.9191 77.4509 71.1105 77.3196 71.3976 77.3196V77.3196C71.7326 77.3196 72.0197 77.3196 72.3546 77.3524C72.5938 77.3852 72.7852 77.5165 72.7852 77.6806ZM71.8761 90.0222C71.8761 90.2192 71.6847 90.3505 71.3976 90.3505C71.0627 90.3505 70.7277 90.3505 70.4407 90.3176C70.2014 90.3176 69.9622 90.1535 70.01 89.9566C70.01 89.7596 70.2493 89.6283 70.5364 89.6612C70.8234 89.6612 71.1584 89.694 71.4455 89.694C71.6847 89.694 71.8761 89.8581 71.8761 90.0222ZM69.0052 77.9104C69.0052 78.0417 68.8617 78.2058 68.6224 78.2386C68.3353 78.3043 68.0482 78.3371 67.7611 78.4028C67.5219 78.4684 67.2348 78.3699 67.1391 78.2058C67.0434 78.0417 67.187 77.8448 67.4262 77.7791C67.7133 77.7135 68.0482 77.6478 68.3832 77.5822C68.6224 77.5494 68.9095 77.6478 68.9574 77.8119C69.0052 77.8448 69.0052 77.8776 69.0052 77.9104ZM68.1439 89.6283C68.1439 89.6612 68.1439 89.694 68.0961 89.7268C68.0004 89.8909 67.7611 89.9894 67.4741 89.9238C67.187 89.8581 66.852 89.7596 66.5649 89.694C66.3257 89.6283 66.23 89.4314 66.3257 89.2673C66.4214 89.1032 66.7085 89.0375 66.9477 89.1032C67.2348 89.2016 67.5219 89.2673 67.809 89.3329C68.0482 89.3658 68.1439 89.4971 68.1439 89.6283ZM65.5601 78.9608C65.5601 79.0592 65.4644 79.1577 65.3687 79.2233C65.1295 79.3546 64.8902 79.4531 64.651 79.5844C64.4596 79.7157 64.1247 79.6829 63.9811 79.5516C63.7897 79.4203 63.8376 79.1905 64.029 79.092C64.2682 78.9608 64.5553 78.7966 64.8424 78.6982C65.0816 78.5997 65.3687 78.6325 65.5123 78.7966C65.5601 78.8295 65.5601 78.8951 65.5601 78.9608ZM64.8424 88.3811C64.8424 88.4467 64.7945 88.5124 64.7467 88.578C64.6032 88.7093 64.2682 88.7421 64.0768 88.6108C63.8376 88.4795 63.5505 88.3154 63.3591 88.1513C63.1677 88.02 63.1677 87.8231 63.3591 87.6918C63.5505 87.5605 63.8376 87.5605 64.029 87.6918C64.2204 87.8231 64.4596 87.9872 64.6988 88.1185C64.7945 88.1841 64.8424 88.2826 64.8424 88.3811ZM62.9285 80.7989C62.9285 80.8645 62.8806 80.9302 62.8328 80.963C62.6892 81.1271 62.4978 81.324 62.4021 81.4882C62.3064 81.6523 61.9715 81.7179 61.7801 81.6194C61.5409 81.5538 61.4452 81.3569 61.5887 81.1927C61.7322 80.9958 61.9236 80.7989 62.0672 80.6019C62.2107 80.4378 62.4978 80.405 62.7371 80.5035C62.8328 80.5691 62.9285 80.7004 62.9285 80.7989ZM62.45 86.3788C62.45 86.5101 62.3543 86.6086 62.2107 86.6742C61.9715 86.7727 61.6844 86.7071 61.5887 86.543C61.4452 86.346 61.3016 86.1162 61.2059 85.9193C61.1102 85.7552 61.2538 85.5583 61.493 85.4926C61.7322 85.427 62.0193 85.5254 62.115 85.6895C62.2107 85.8865 62.3543 86.0834 62.4978 86.2475C62.45 86.2804 62.45 86.3132 62.45 86.3788ZM61.6365 83.2278L61.6365 83.2606C61.5887 83.4576 61.5887 83.6545 61.5887 83.8514C61.5887 84.0484 61.3973 84.1797 61.1102 84.1797C60.8231 84.1797 60.6317 84.0484 60.6317 83.8514C60.6317 83.6217 60.6317 83.3919 60.6796 83.195C60.7274 83.0309 60.9667 82.8996 61.2059 82.8996C61.4452 82.8996 61.6365 83.0637 61.6365 83.2278Z" fill="#FFBFCD"/>
<path d="M71.8761 91.8931L71.8761 93.8625C72.2111 93.8625 72.4982 93.8297 72.8331 93.8297L72.8331 91.8603C72.4982 91.8603 72.2111 91.8931 71.8761 91.8931Z" fill="#F48BA2"/>
<path d="M69.4837 91.8275L69.4837 93.7969C69.8187 93.8297 70.1057 93.8297 70.4407 93.8625L70.4407 91.8931C70.1057 91.8603 69.8187 91.8603 69.4837 91.8275Z" fill="#F48BA2"/>
<path d="M74.2685 91.729L74.2685 93.6984C74.6035 93.6655 74.8906 93.5999 75.2255 93.5342L75.2255 91.5648C74.8906 91.6305 74.6035 91.6633 74.2685 91.729Z" fill="#F48BA2"/>
<path d="M76.661 91.2695L76.661 93.2389C76.9959 93.1404 77.283 93.0748 77.6179 92.9763L77.6179 91.0069C77.283 91.0725 76.9959 91.171 76.661 91.2695Z" fill="#F48BA2"/>
<path d="M67.0913 91.4665L67.0913 93.4359C67.4262 93.5015 67.7133 93.5672 68.0483 93.6L68.0483 91.6306C67.7133 91.5977 67.4262 91.5321 67.0913 91.4665Z" fill="#F48BA2"/>
<path d="M64.6989 90.81L64.6989 92.7794C65.0338 92.8779 65.3209 92.9764 65.6559 93.0748L65.6559 91.1054C65.3209 91.0398 65.0338 90.9413 64.6989 90.81Z" fill="#F48BA2"/>
<path d="M61.8279 89.4969L61.8279 91.4663C62.115 91.6632 62.45 91.8273 62.7849 91.9915L62.7849 90.0221C62.45 89.8579 62.115 89.661 61.8279 89.4969Z" fill="#F48BA2"/>
<path d="M59.4355 87.462L59.4355 89.4314C59.7226 89.7597 60.0576 90.0879 60.3925 90.3833L60.3925 88.4139C60.0576 88.1185 59.7226 87.8231 59.4355 87.462Z" fill="#F48BA2"/>
<path d="M79.5319 90.2519L79.5319 92.2213C79.8668 92.0572 80.2018 91.8931 80.4889 91.729L80.4889 89.7596C80.2018 89.9237 79.8668 90.0878 79.5319 90.2519Z" fill="#F48BA2"/>
<path d="M81.9243 90.8098C82.2592 90.5472 82.5942 90.2846 82.8813 89.9892L82.8813 88.0198C82.5942 88.3152 82.2592 88.5778 81.9243 88.8404L81.9243 90.8098Z" fill="#F48BA2"/>
<path d="M73.8762 83.3599L73.8762 84.6501L75.2255 84.6501L75.2255 85.6598L73.8762 85.6598L73.8762 86.4812L72.6906 86.4812L72.6906 85.6598L72.0656 85.6598L72.0656 86.4812L70.8799 86.4812L70.8799 85.6598L66.7212 85.6598L66.7212 83.4281C66.7212 82.7843 66.9665 82.2701 67.4571 81.8854C67.9439 81.5008 68.5922 81.3085 69.4021 81.3085C70.2276 81.3085 70.876 81.4914 71.3472 81.8574C71.8144 82.2234 72.0539 82.7322 72.0656 83.384L72.0656 84.6501L72.6906 84.6501L72.6906 83.3599L73.8762 83.3599ZM70.8799 84.6501L70.8799 83.4441C70.8799 83.0808 70.7572 82.803 70.5119 82.6107C70.2666 82.4183 69.9006 82.3222 69.4138 82.3222C68.9777 82.3222 68.6214 82.417 68.3449 82.6067C68.0685 82.7936 67.9244 83.0528 67.9127 83.384L67.9127 84.6501L70.8799 84.6501Z" fill="#F48BA2"/>
<path d="M84.7951 81.6444C84.7951 86.0756 78.8141 89.6862 71.3976 89.6862C63.9811 89.6862 58 86.0756 58 81.6444C58 77.2133 63.9811 73.6027 71.3976 73.6027C78.8141 73.6027 84.7951 77.2133 84.7951 81.6444Z" fill="white"/>
<path d="M71.3976 89.6862C64.5552 89.6862 58.9091 86.6008 58.0957 82.6292C58.0478 82.9574 58 83.2857 58 83.6139C58 88.0451 63.9811 91.6556 71.3976 91.6556C78.8141 91.6556 84.7951 88.0451 84.7951 83.6139C84.7951 83.2857 84.7473 82.9574 84.6994 82.6292C83.886 86.6008 78.2399 89.6862 71.3976 89.6862Z" fill="#FFBFCD"/>
<path d="M82.1635 81.6117C82.1635 81.8743 82.1635 82.1041 82.1156 82.3338C82.0678 82.4979 81.8286 82.6292 81.5893 82.6292C81.3501 82.5964 81.1587 82.4323 81.1587 82.2682C81.2065 82.0712 81.2065 81.8743 81.2065 81.6445C81.2065 81.4476 81.3979 81.3163 81.685 81.3163C81.9721 81.3163 82.1635 81.4476 82.1635 81.6117ZM81.6372 79.7079C81.6372 79.8392 81.5415 79.9705 81.3501 80.0034C81.1108 80.069 80.8237 79.9705 80.728 79.8064C80.6323 79.6095 80.4888 79.4125 80.3453 79.2484C80.2017 79.0843 80.2974 78.8874 80.5366 78.8217C80.7759 78.7232 81.063 78.7889 81.1587 78.953C81.3022 79.15 81.4458 79.3797 81.5415 79.5767C81.6372 79.6423 81.6372 79.6751 81.6372 79.7079ZM81.3022 84.1391C81.3022 84.2047 81.3022 84.2376 81.2544 84.3032C81.1108 84.5002 80.9194 84.6971 80.7759 84.894C80.6323 85.0582 80.3453 85.091 80.106 84.9925C79.8668 84.894 79.8189 84.6971 79.9625 84.533C80.106 84.3689 80.2974 84.1719 80.3931 84.0078C80.5366 83.8437 80.8237 83.778 81.0151 83.8765C81.2065 83.9093 81.3022 84.0406 81.3022 84.1391ZM79.5797 77.5416C79.5797 77.6401 79.5318 77.7057 79.4361 77.7714C79.2447 77.9027 78.9576 77.9027 78.7663 77.7714C78.5749 77.6401 78.3356 77.476 78.0964 77.3447C77.905 77.2462 77.8571 77.0164 78.0485 76.8851C78.2399 76.7538 78.527 76.721 78.7184 76.8523C78.9576 76.9836 79.2447 77.1477 79.4361 77.3118C79.5318 77.3775 79.5797 77.476 79.5797 77.5416ZM78.9098 86.1413C78.9098 86.2398 78.8619 86.3383 78.7184 86.4039C78.4792 86.5352 78.1921 86.6993 77.905 86.7978C77.6657 86.8963 77.3786 86.8634 77.2351 86.6993C77.0916 86.5352 77.1394 86.3383 77.3786 86.2398C77.6179 86.1085 77.8571 86.01 78.0964 85.8787C78.2878 85.7474 78.6227 85.7803 78.7663 85.9116C78.862 86.01 78.9098 86.0757 78.9098 86.1413ZM76.4695 76.0974C76.4695 76.1302 76.4695 76.1958 76.4217 76.2287C76.326 76.3928 76.0389 76.4584 75.7997 76.3928C75.5126 76.2943 75.2255 76.2287 74.9384 76.163C74.6991 76.0974 74.5556 75.9333 74.6513 75.7363C74.747 75.5722 74.9862 75.4737 75.2733 75.5394C75.6083 75.605 75.8953 75.7035 76.1824 75.7691C76.3738 75.8676 76.4695 75.9661 76.4695 76.0974ZM75.6083 87.4214C75.6083 87.5527 75.4647 87.684 75.2733 87.7169C74.9862 87.7825 74.6513 87.8481 74.3163 87.9138C74.0771 87.9466 73.79 87.8481 73.7422 87.684C73.6943 87.5199 73.8379 87.323 74.0771 87.2901C74.3642 87.2245 74.6513 87.1917 74.9384 87.126C75.1776 87.0604 75.4647 87.1589 75.5604 87.323C75.6083 87.323 75.6083 87.3558 75.6083 87.4214ZM72.7852 75.4737C72.7852 75.5066 72.7852 75.5066 72.7852 75.4737C72.7852 75.6707 72.546 75.802 72.2589 75.802C71.9718 75.802 71.6847 75.7691 71.3976 75.7691C71.1105 75.7691 70.9191 75.6379 70.9191 75.4409C70.9191 75.244 71.1105 75.1127 71.3976 75.1127V75.1127C71.7325 75.1127 72.0196 75.1127 72.3546 75.1455C72.5938 75.1783 72.7852 75.3096 72.7852 75.4737ZM71.8761 87.8153C71.8761 88.0123 71.6847 88.1436 71.3976 88.1436C71.0627 88.1436 70.7277 88.1436 70.4406 88.1107C70.2014 88.1107 69.9621 87.9466 70.01 87.7497C70.01 87.5527 70.2492 87.4214 70.5363 87.4543C70.8234 87.4543 71.1584 87.4871 71.4454 87.4871C71.6847 87.4871 71.8761 87.6512 71.8761 87.8153ZM69.0052 75.7035C69.0052 75.8348 68.8616 75.9989 68.6224 76.0317C68.3353 76.0974 68.0482 76.1302 67.7611 76.1958C67.5219 76.2615 67.2348 76.163 67.1391 75.9989C67.0434 75.8348 67.1869 75.6379 67.4262 75.5722C67.7133 75.5066 68.0482 75.4409 68.3831 75.3753C68.6224 75.3424 68.9095 75.4409 68.9573 75.605C69.0052 75.6379 69.0052 75.6707 69.0052 75.7035ZM68.1439 87.4214C68.1439 87.4543 68.1439 87.4871 68.0961 87.5199C68.0004 87.684 67.7611 87.7825 67.474 87.7169C67.1869 87.6512 66.852 87.5527 66.5649 87.4871C66.3257 87.4214 66.23 87.2245 66.3257 87.0604C66.4214 86.8963 66.7085 86.8306 66.9477 86.8963C67.2348 86.9947 67.5219 87.0604 67.809 87.126C68.0482 87.1589 68.1439 87.2901 68.1439 87.4214ZM65.5601 76.7538C65.5601 76.8523 65.4644 76.9508 65.3687 77.0164C65.1295 77.1477 64.8902 77.2462 64.651 77.3775C64.4596 77.5088 64.1246 77.476 63.9811 77.3447C63.7897 77.2134 63.8375 76.9836 64.0289 76.8851C64.2682 76.7538 64.5553 76.5897 64.8424 76.4913C65.0816 76.3928 65.3687 76.4256 65.5122 76.5897C65.5601 76.6226 65.5601 76.6882 65.5601 76.7538ZM64.8424 86.1742C64.8424 86.2398 64.7945 86.3054 64.7467 86.3711C64.6031 86.5024 64.2682 86.5352 64.0768 86.4039C63.8375 86.2726 63.5505 86.1085 63.3591 85.9444C63.1677 85.8131 63.1677 85.6162 63.3591 85.4849C63.5505 85.3536 63.8375 85.3536 64.0289 85.4849C64.2203 85.6162 64.4596 85.7803 64.6988 85.9116C64.7945 85.9772 64.8424 86.0757 64.8424 86.1742ZM62.9284 78.592C62.9284 78.6576 62.8806 78.7232 62.8327 78.7561C62.6892 78.9202 62.4978 79.1171 62.4021 79.2812C62.3064 79.4454 61.9715 79.511 61.7801 79.4125C61.5408 79.3469 61.4451 79.15 61.5887 78.9858C61.7322 78.7889 61.9236 78.592 62.0672 78.395C62.2107 78.2309 62.4978 78.1981 62.737 78.2965C62.8327 78.3622 62.9284 78.4935 62.9284 78.592ZM62.4499 84.1719C62.4499 84.3032 62.3542 84.4017 62.2107 84.4673C61.9715 84.5658 61.6844 84.5002 61.5887 84.336C61.4451 84.1391 61.3016 83.9093 61.2059 83.7124C61.1102 83.5483 61.2537 83.3513 61.493 83.2857C61.7322 83.22 62.0193 83.3185 62.115 83.4826C62.2107 83.6796 62.3542 83.8765 62.4978 84.0406C62.4499 84.0735 62.4499 84.1063 62.4499 84.1719ZM61.6365 81.0209L61.6365 81.0537C61.5887 81.2506 61.5887 81.4476 61.5887 81.6445C61.5887 81.8415 61.3973 81.9728 61.1102 81.9728C60.8231 81.9728 60.6317 81.8415 60.6317 81.6445C60.6317 81.4148 60.6317 81.185 60.6796 80.9881C60.7274 80.8239 60.9666 80.6926 61.2059 80.6926C61.4451 80.6926 61.6365 80.8568 61.6365 81.0209Z" fill="#FFBFCD"/>
<path d="M71.8761 89.6862L71.8761 91.6556C72.211 91.6556 72.4981 91.6228 72.8331 91.6228L72.8331 89.6534C72.4981 89.6534 72.211 89.6862 71.8761 89.6862Z" fill="#F48BA2"/>
<path d="M69.4837 89.6206L69.4837 91.59C69.8186 91.6228 70.1057 91.6228 70.4407 91.6556L70.4407 89.6862C70.1057 89.6534 69.8186 89.6534 69.4837 89.6206Z" fill="#F48BA2"/>
<path d="M74.2685 89.5219L74.2685 91.4913C74.6034 91.4585 74.8905 91.3929 75.2255 91.3272L75.2255 89.3578C74.8905 89.4235 74.6034 89.4563 74.2685 89.5219Z" fill="#F48BA2"/>
<path d="M76.6609 89.0625L76.6609 91.0319C76.9959 90.9334 77.283 90.8677 77.6179 90.7693L77.6179 88.7999C77.283 88.8655 76.9959 88.964 76.6609 89.0625Z" fill="#F48BA2"/>
<path d="M67.0913 89.2594L67.0913 91.2288C67.4262 91.2945 67.7133 91.3601 68.0482 91.3929L68.0482 89.4235C67.7133 89.3907 67.4262 89.3251 67.0913 89.2594Z" fill="#F48BA2"/>
<path d="M64.6989 88.603L64.6989 90.5724C65.0338 90.6709 65.3209 90.7693 65.6558 90.8678L65.6558 88.8984C65.3209 88.8327 65.0338 88.7343 64.6989 88.603Z" fill="#F48BA2"/>
<path d="M61.8279 87.2901L61.8279 89.2595C62.115 89.4564 62.4499 89.6206 62.7849 89.7847L62.7849 87.8153C62.4499 87.6511 62.115 87.4542 61.8279 87.2901Z" fill="#F48BA2"/>
<path d="M59.4355 85.255L59.4355 87.2244C59.7226 87.5526 60.0575 87.8809 60.3925 88.1763L60.3925 86.2069C60.0575 85.9115 59.7226 85.616 59.4355 85.255Z" fill="#F48BA2"/>
<path d="M79.5319 88.045L79.5319 90.0144C79.8668 89.8503 80.2017 89.6862 80.4888 89.5221L80.4888 87.5527C80.2017 87.7168 79.8668 87.8809 79.5319 88.045Z" fill="#F48BA2"/>
<path d="M81.9243 88.6031C82.2592 88.3406 82.5942 88.078 82.8812 87.7826L82.8812 85.8132C82.5942 86.1086 82.2592 86.3712 81.9243 86.6337L81.9243 88.6031Z" fill="#F48BA2"/>
<path d="M73.8762 81.1529L73.8762 82.4431L75.2255 82.4431L75.2255 83.4528L73.8762 83.4528L73.8762 84.2742L72.6905 84.2742L72.6905 83.4528L72.0655 83.4528L72.0655 84.2742L70.8799 84.2742L70.8799 83.4528L66.7211 83.4528L66.7211 81.221C66.7211 80.5773 66.9665 80.0631 67.4571 79.6784C67.9438 79.2938 68.5922 79.1014 69.4021 79.1014C70.2276 79.1014 70.876 79.2844 71.3471 79.6504C71.8144 80.0163 72.0539 80.5252 72.0655 81.1769L72.0655 82.4431L72.6905 82.4431L72.6905 81.1529L73.8762 81.1529ZM70.8799 82.4431L70.8799 81.237C70.8799 80.8738 70.7572 80.596 70.5119 80.4036C70.2666 80.2113 69.9005 80.1152 69.4138 80.1152C68.9777 80.1152 68.6214 80.21 68.3449 80.3996C68.0684 80.5866 67.9244 80.8457 67.9127 81.1769L67.9127 82.4431L70.8799 82.4431Z" fill="#F48BA2"/>
<path d="M84.7952 79.5228C84.7952 83.954 78.8141 87.5646 71.3976 87.5646C63.9811 87.5646 58.0001 83.954 58.0001 79.5228C58.0001 75.0917 63.9811 71.4811 71.3976 71.4811C78.8141 71.4811 84.7952 75.0917 84.7952 79.5228Z" fill="#FFDCE4"/>
<path d="M71.3976 87.5647C64.5553 87.5647 58.9092 84.4793 58.0957 80.5076C58.0479 80.8359 58 81.1641 58 81.4923C58 85.9235 63.9811 89.5341 71.3976 89.5341C78.8141 89.5341 84.7951 85.9235 84.7951 81.4923C84.7951 81.1641 84.7473 80.8359 84.6994 80.5076C83.886 84.4793 78.2399 87.5647 71.3976 87.5647Z" fill="#FFBFCD"/>
<path d="M82.1635 79.4901C82.1635 79.7527 82.1635 79.9825 82.1157 80.2122C82.0678 80.3764 81.8286 80.5076 81.5893 80.5076C81.3501 80.4748 81.1587 80.3107 81.1587 80.1466C81.2066 79.9496 81.2066 79.7527 81.2066 79.5229C81.2066 79.326 81.3979 79.1947 81.685 79.1947C81.9721 79.1947 82.1635 79.326 82.1635 79.4901ZM81.6372 77.5864C81.6372 77.7177 81.5415 77.849 81.3501 77.8818C81.1109 77.9474 80.8238 77.849 80.7281 77.6848C80.6324 77.4879 80.4888 77.291 80.3453 77.1268C80.2017 76.9627 80.2974 76.7658 80.5367 76.7001C80.7759 76.6017 81.063 76.6673 81.1587 76.8314C81.3022 77.0284 81.4458 77.2581 81.5415 77.4551C81.6372 77.5207 81.6372 77.5535 81.6372 77.5864ZM81.3022 82.0175C81.3022 82.0832 81.3022 82.116 81.2544 82.1816C81.1109 82.3786 80.9195 82.5755 80.7759 82.7725C80.6324 82.9366 80.3453 82.9694 80.106 82.8709C79.8668 82.7725 79.8189 82.5755 79.9625 82.4114C80.106 82.2473 80.2974 82.0503 80.3931 81.8862C80.5367 81.7221 80.8238 81.6565 81.0152 81.7549C81.2066 81.7878 81.3022 81.9191 81.3022 82.0175ZM79.5797 75.42C79.5797 75.5185 79.5319 75.5841 79.4362 75.6498C79.2448 75.7811 78.9577 75.7811 78.7663 75.6498C78.5749 75.5185 78.3356 75.3544 78.0964 75.2231C77.905 75.1246 77.8572 74.8949 78.0486 74.7636C78.24 74.6323 78.527 74.5994 78.7184 74.7307C78.9577 74.862 79.2448 75.0261 79.4362 75.1903C79.5319 75.2559 79.5797 75.3544 79.5797 75.42ZM78.9098 84.0197C78.9098 84.1182 78.862 84.2167 78.7184 84.2823C78.4792 84.4136 78.1921 84.5777 77.905 84.6762C77.6658 84.7747 77.3787 84.7419 77.2351 84.5777C77.0916 84.4136 77.1394 84.2167 77.3787 84.1182C77.6179 83.9869 77.8572 83.8885 78.0964 83.7572C78.2878 83.6259 78.6227 83.6587 78.7663 83.79C78.862 83.8885 78.9098 83.9541 78.9098 84.0197ZM76.4696 73.9758C76.4696 74.0086 76.4696 74.0743 76.4217 74.1071C76.326 74.2712 76.0389 74.3369 75.7997 74.2712C75.5126 74.1727 75.2255 74.1071 74.9384 74.0414C74.6992 73.9758 74.5556 73.8117 74.6513 73.6147C74.747 73.4506 74.9863 73.3522 75.2733 73.4178C75.6083 73.4834 75.8954 73.5819 76.1825 73.6476C76.3739 73.746 76.4696 73.8445 76.4696 73.9758ZM75.6083 85.2999C75.6083 85.4312 75.4647 85.5624 75.2733 85.5953C74.9863 85.6609 74.6513 85.7266 74.3164 85.7922C74.0771 85.825 73.79 85.7266 73.7422 85.5624C73.6944 85.3983 73.8379 85.2014 74.0771 85.1686C74.3642 85.1029 74.6513 85.0701 74.9384 85.0044C75.1777 84.9388 75.4647 85.0373 75.5604 85.2014C75.6083 85.2014 75.6083 85.2342 75.6083 85.2999ZM72.7852 73.3522C72.7852 73.385 72.7852 73.385 72.7852 73.3522C72.7852 73.5491 72.546 73.6804 72.2589 73.6804C71.9718 73.6804 71.6847 73.6476 71.3976 73.6476C71.1105 73.6476 70.9191 73.5163 70.9191 73.3193C70.9191 73.1224 71.1105 72.9911 71.3976 72.9911V72.9911C71.7326 72.9911 72.0197 72.9911 72.3546 73.0239C72.5938 73.0567 72.7852 73.188 72.7852 73.3522ZM71.8761 85.6937C71.8761 85.8907 71.6847 86.022 71.3976 86.022C71.0627 86.022 70.7277 86.022 70.4407 85.9891C70.2014 85.9891 69.9622 85.825 70.01 85.6281C70.01 85.4312 70.2493 85.2999 70.5364 85.3327C70.8234 85.3327 71.1584 85.3655 71.4455 85.3655C71.6847 85.3655 71.8761 85.5296 71.8761 85.6937ZM69.0052 73.5819C69.0052 73.7132 68.8617 73.8773 68.6224 73.9102C68.3353 73.9758 68.0482 74.0086 67.7611 74.0743C67.5219 74.1399 67.2348 74.0414 67.1391 73.8773C67.0434 73.7132 67.187 73.5163 67.4262 73.4506C67.7133 73.385 68.0482 73.3193 68.3832 73.2537C68.6224 73.2209 68.9095 73.3193 68.9574 73.4834C69.0052 73.5163 69.0052 73.5491 69.0052 73.5819ZM68.1439 85.2999C68.1439 85.3327 68.1439 85.3655 68.0961 85.3983C68.0004 85.5624 67.7611 85.6609 67.4741 85.5953C67.187 85.5296 66.852 85.4312 66.5649 85.3655C66.3257 85.2999 66.23 85.1029 66.3257 84.9388C66.4214 84.7747 66.7085 84.709 66.9477 84.7747C67.2348 84.8732 67.5219 84.9388 67.809 85.0044C68.0482 85.0373 68.1439 85.1686 68.1439 85.2999ZM65.5601 74.6323C65.5601 74.7307 65.4644 74.8292 65.3687 74.8949C65.1295 75.0261 64.8902 75.1246 64.651 75.2559C64.4596 75.3872 64.1247 75.3544 63.9811 75.2231C63.7897 75.0918 63.8376 74.862 64.029 74.7636C64.2682 74.6323 64.5553 74.4681 64.8424 74.3697C65.0816 74.2712 65.3687 74.304 65.5123 74.4681C65.5601 74.501 65.5601 74.5666 65.5601 74.6323ZM64.8424 84.0526C64.8424 84.1182 64.7945 84.1839 64.7467 84.2495C64.6032 84.3808 64.2682 84.4136 64.0768 84.2823C63.8376 84.151 63.5505 83.9869 63.3591 83.8228C63.1677 83.6915 63.1677 83.4946 63.3591 83.3633C63.5505 83.232 63.8376 83.232 64.029 83.3633C64.2204 83.4946 64.4596 83.6587 64.6988 83.79C64.7945 83.8556 64.8424 83.9541 64.8424 84.0526ZM62.9285 76.4704C62.9285 76.536 62.8806 76.6017 62.8328 76.6345C62.6892 76.7986 62.4978 76.9955 62.4021 77.1597C62.3064 77.3238 61.9715 77.3894 61.7801 77.291C61.5409 77.2253 61.4452 77.0284 61.5887 76.8643C61.7322 76.6673 61.9236 76.4704 62.0672 76.2734C62.2107 76.1093 62.4978 76.0765 62.7371 76.175C62.8328 76.2406 62.9285 76.3719 62.9285 76.4704ZM62.45 82.0503C62.45 82.1816 62.3543 82.2801 62.2107 82.3458C61.9715 82.4442 61.6844 82.3786 61.5887 82.2145C61.4452 82.0175 61.3016 81.7878 61.2059 81.5908C61.1102 81.4267 61.2538 81.2298 61.493 81.1641C61.7322 81.0985 62.0193 81.1969 62.115 81.3611C62.2107 81.558 62.3543 81.7549 62.4978 81.9191C62.45 81.9519 62.45 81.9847 62.45 82.0503ZM61.6365 78.8993L61.6365 78.9321C61.5887 79.1291 61.5887 79.326 61.5887 79.5229C61.5887 79.7199 61.3973 79.8512 61.1102 79.8512C60.8231 79.8512 60.6317 79.7199 60.6317 79.5229C60.6317 79.2932 60.6317 79.0634 60.6796 78.8665C60.7274 78.7024 60.9667 78.5711 61.2059 78.5711C61.4452 78.5711 61.6365 78.7352 61.6365 78.8993Z" fill="#FFBFCD"/>
<path d="M71.8761 87.5647L71.8761 89.5341C72.2111 89.5341 72.4982 89.5012 72.8331 89.5012L72.8331 87.5318C72.4982 87.5318 72.2111 87.5647 71.8761 87.5647Z" fill="#F48BA2"/>
<path d="M69.4837 87.499L69.4837 89.4684C69.8187 89.5012 70.1057 89.5012 70.4407 89.5341L70.4407 87.5647C70.1057 87.5318 69.8187 87.5318 69.4837 87.499Z" fill="#F48BA2"/>
<path d="M74.2685 87.4005L74.2685 89.3699C74.6035 89.337 74.8906 89.2714 75.2255 89.2058L75.2255 87.2364C74.8906 87.302 74.6035 87.3348 74.2685 87.4005Z" fill="#F48BA2"/>
<path d="M76.661 86.9411L76.661 88.9105C76.9959 88.8121 77.283 88.7464 77.6179 88.6479L77.6179 86.6785C77.283 86.7442 76.9959 86.8427 76.661 86.9411Z" fill="#F48BA2"/>
<path d="M67.0913 87.138L67.0913 89.1074C67.4262 89.173 67.7133 89.2387 68.0483 89.2715L68.0483 87.3021C67.7133 87.2693 67.4262 87.2036 67.0913 87.138Z" fill="#F48BA2"/>
<path d="M64.6989 86.4815L64.6989 88.4509C65.0338 88.5494 65.3209 88.6479 65.6559 88.7463L65.6559 86.7769C65.3209 86.7113 65.0338 86.6128 64.6989 86.4815Z" fill="#F48BA2"/>
<path d="M61.8279 85.1684L61.8279 87.1378C62.115 87.3347 62.45 87.4988 62.7849 87.663L62.7849 85.6936C62.45 85.5294 62.115 85.3325 61.8279 85.1684Z" fill="#F48BA2"/>
<path d="M59.4355 83.1335L59.4355 85.1029C59.7226 85.4312 60.0576 85.7594 60.3925 86.0548L60.3925 84.0854C60.0576 83.79 59.7226 83.4946 59.4355 83.1335Z" fill="#F48BA2"/>
<path d="M79.5319 85.9237L79.5319 87.8931C79.8668 87.7289 80.2018 87.5648 80.4889 87.4007L80.4889 85.4313C80.2018 85.5954 79.8668 85.7595 79.5319 85.9237Z" fill="#F48BA2"/>
<path d="M81.9243 86.4813C82.2592 86.2187 82.5942 85.9561 82.8813 85.6607L82.8813 83.6913C82.5942 83.9867 82.2592 84.2493 81.9243 84.5119L81.9243 86.4813Z" fill="#F48BA2"/>
<path d="M73.8762 79.0313L73.8762 80.3215L75.2255 80.3215L75.2255 81.3312L73.8762 81.3312L73.8762 82.1526L72.6906 82.1526L72.6906 81.3312L72.0656 81.3312L72.0656 82.1526L70.8799 82.1526L70.8799 81.3312L66.7212 81.3312L66.7212 79.0994C66.7212 78.4557 66.9665 77.9415 67.4571 77.5568C67.9439 77.1722 68.5922 76.9799 69.4021 76.9799C70.2276 76.9799 70.876 77.1628 71.3472 77.5288C71.8144 77.8947 72.0539 78.4036 72.0656 79.0554L72.0656 80.3215L72.6906 80.3215L72.6906 79.0313L73.8762 79.0313ZM70.8799 80.3215L70.8799 79.1155C70.8799 78.7522 70.7572 78.4744 70.5119 78.2821C70.2666 78.0897 69.9006 77.9936 69.4138 77.9936C68.9777 77.9936 68.6214 78.0884 68.3449 78.2781C68.0685 78.465 67.9244 78.7241 67.9127 79.0554L67.9127 80.3215L70.8799 80.3215Z" fill="#F48BA2"/>
<path d="M113.02 83.7107C113.02 88.1419 107.039 91.7524 99.6224 91.7524C92.2059 91.7524 86.2249 88.1419 86.2249 83.7107C86.2249 79.2796 92.2059 75.669 99.6224 75.669C107.039 75.669 113.02 79.2796 113.02 83.7107Z" fill="white"/>
<path d="M99.6224 91.7525C92.7801 91.7525 87.134 88.6671 86.3205 84.6955C86.2727 85.0237 86.2249 85.352 86.2249 85.6802C86.2249 90.1114 92.2059 93.7219 99.6224 93.7219C107.039 93.7219 113.02 90.1114 113.02 85.6802C113.02 85.352 112.972 85.0237 112.924 84.6955C112.111 88.6671 106.465 91.7525 99.6224 91.7525Z" fill="#FFBFCD"/>
<path d="M110.388 83.678C110.388 83.9406 110.388 84.1703 110.341 84.4001C110.293 84.5642 110.053 84.6955 109.814 84.6955C109.575 84.6627 109.384 84.4986 109.384 84.3345C109.431 84.1375 109.431 83.9406 109.431 83.7108C109.431 83.5139 109.623 83.3826 109.91 83.3826C110.197 83.3826 110.388 83.5139 110.388 83.678ZM109.862 81.7742C109.862 81.9055 109.766 82.0368 109.575 82.0696C109.336 82.1353 109.049 82.0368 108.953 81.8727C108.857 81.6758 108.714 81.4788 108.57 81.3147C108.427 81.1506 108.522 80.9536 108.762 80.888C109.001 80.7895 109.288 80.8552 109.384 81.0193C109.527 81.2162 109.671 81.446 109.766 81.6429C109.862 81.7086 109.862 81.7414 109.862 81.7742ZM109.527 86.2054C109.527 86.271 109.527 86.3039 109.479 86.3695C109.336 86.5664 109.144 86.7634 109.001 86.9603C108.857 87.1244 108.57 87.1573 108.331 87.0588C108.092 86.9603 108.044 86.7634 108.187 86.5993C108.331 86.4352 108.522 86.2382 108.618 86.0741C108.762 85.91 109.049 85.8443 109.24 85.9428C109.431 85.9756 109.527 86.1069 109.527 86.2054ZM107.805 79.6079C107.805 79.7064 107.757 79.772 107.661 79.8377C107.47 79.9689 107.183 79.9689 106.991 79.8377C106.8 79.7064 106.56 79.5422 106.321 79.411C106.13 79.3125 106.082 79.0827 106.273 78.9514C106.465 78.8201 106.752 78.7873 106.943 78.9186C107.183 79.0499 107.47 79.214 107.661 79.3781C107.757 79.4438 107.805 79.5422 107.805 79.6079ZM107.135 88.2076C107.135 88.3061 107.087 88.4046 106.943 88.4702C106.704 88.6015 106.417 88.7656 106.13 88.8641C105.891 88.9626 105.604 88.9297 105.46 88.7656C105.316 88.6015 105.364 88.4046 105.604 88.3061C105.843 88.1748 106.082 88.0763 106.321 87.945C106.513 87.8137 106.848 87.8466 106.991 87.9778C107.087 88.0763 107.135 88.142 107.135 88.2076ZM104.694 78.1637C104.694 78.1965 104.694 78.2621 104.647 78.295C104.551 78.4591 104.264 78.5247 104.025 78.4591C103.737 78.3606 103.45 78.295 103.163 78.2293C102.924 78.1637 102.78 77.9995 102.876 77.8026C102.972 77.6385 103.211 77.54 103.498 77.6057C103.833 77.6713 104.12 77.7698 104.407 77.8354C104.599 77.9339 104.694 78.0324 104.694 78.1637ZM103.833 89.4877C103.833 89.619 103.69 89.7503 103.498 89.7831C103.211 89.8488 102.876 89.9144 102.541 89.9801C102.302 90.0129 102.015 89.9144 101.967 89.7503C101.919 89.5862 102.063 89.3893 102.302 89.3564C102.589 89.2908 102.876 89.258 103.163 89.1923C103.402 89.1267 103.69 89.2251 103.785 89.3893C103.833 89.3893 103.833 89.4221 103.833 89.4877ZM101.01 77.54C101.01 77.5728 101.01 77.5728 101.01 77.54C101.01 77.737 100.771 77.8683 100.484 77.8683C100.197 77.8683 99.9096 77.8354 99.6225 77.8354C99.3354 77.8354 99.144 77.7041 99.144 77.5072C99.144 77.3103 99.3354 77.179 99.6225 77.179V77.179C99.9574 77.179 100.244 77.179 100.579 77.2118C100.819 77.2446 101.01 77.3759 101.01 77.54ZM100.101 89.8816C100.101 90.0785 99.9096 90.2098 99.6225 90.2098C99.2875 90.2098 98.9526 90.2098 98.6655 90.177C98.4263 90.177 98.187 90.0129 98.2349 89.816C98.2349 89.619 98.4741 89.4877 98.7612 89.5205C99.0483 89.5205 99.3832 89.5534 99.6703 89.5534C99.9096 89.5534 100.101 89.7175 100.101 89.8816ZM97.23 77.7698C97.23 77.9011 97.0865 78.0652 96.8473 78.098C96.5602 78.1637 96.2731 78.1965 95.986 78.2621C95.7467 78.3278 95.4597 78.2293 95.364 78.0652C95.2683 77.9011 95.4118 77.7041 95.651 77.6385C95.9381 77.5728 96.2731 77.5072 96.608 77.4415C96.8473 77.4087 97.1343 77.5072 97.1822 77.6713C97.23 77.7041 97.23 77.737 97.23 77.7698ZM96.3688 89.4877C96.3688 89.5205 96.3688 89.5534 96.3209 89.5862C96.2252 89.7503 95.986 89.8488 95.6989 89.7831C95.4118 89.7175 95.0769 89.619 94.7898 89.5534C94.5505 89.4877 94.4548 89.2908 94.5505 89.1267C94.6462 88.9626 94.9333 88.8969 95.1726 88.9626C95.4597 89.061 95.7467 89.1267 96.0338 89.1923C96.2731 89.2251 96.3688 89.3564 96.3688 89.4877ZM93.785 78.8201C93.785 78.9186 93.6893 79.0171 93.5936 79.0827C93.3543 79.214 93.1151 79.3125 92.8758 79.4438C92.6844 79.5751 92.3495 79.5422 92.206 79.411C92.0146 79.2797 92.0624 79.0499 92.2538 78.9514C92.4931 78.8201 92.7801 78.656 93.0672 78.5575C93.3065 78.4591 93.5936 78.4919 93.7371 78.656C93.785 78.6888 93.785 78.7545 93.785 78.8201ZM93.0672 88.2404C93.0672 88.3061 93.0194 88.3717 92.9715 88.4374C92.828 88.5687 92.4931 88.6015 92.3017 88.4702C92.0624 88.3389 91.7753 88.1748 91.5839 88.0107C91.3925 87.8794 91.3925 87.6824 91.5839 87.5511C91.7753 87.4199 92.0624 87.4199 92.2538 87.5511C92.4452 87.6824 92.6844 87.8466 92.9237 87.9778C93.0194 88.0435 93.0672 88.142 93.0672 88.2404ZM91.1533 80.6582C91.1533 80.7239 91.1054 80.7895 91.0576 80.8224C90.9141 80.9865 90.7227 81.1834 90.627 81.3475C90.5313 81.5116 90.1963 81.5773 90.0049 81.4788C89.7657 81.4132 89.67 81.2162 89.8135 81.0521C89.9571 80.8552 90.1485 80.6582 90.292 80.4613C90.4356 80.2972 90.7227 80.2644 90.9619 80.3628C91.0576 80.4285 91.1533 80.5598 91.1533 80.6582ZM90.6748 86.2382C90.6748 86.3695 90.5791 86.468 90.4356 86.5336C90.1963 86.6321 89.9092 86.5664 89.8135 86.4023C89.67 86.2054 89.5264 85.9756 89.4308 85.7787C89.3351 85.6146 89.4786 85.4176 89.7178 85.352C89.9571 85.2863 90.2442 85.3848 90.3399 85.5489C90.4356 85.7459 90.5791 85.9428 90.7227 86.1069C90.6748 86.1397 90.6748 86.1726 90.6748 86.2382ZM89.8614 83.0872L89.8614 83.12C89.8135 83.3169 89.8135 83.5139 89.8135 83.7108C89.8135 83.9078 89.6221 84.039 89.3351 84.039C89.048 84.039 88.8566 83.9078 88.8566 83.7108C88.8566 83.481 88.8566 83.2513 88.9044 83.0543C88.9523 82.8902 89.1915 82.7589 89.4308 82.7589C89.67 82.7589 89.8614 82.9231 89.8614 83.0872Z" fill="#FFBFCD"/>
<path d="M100.101 91.7525L100.101 93.7219C100.436 93.7219 100.723 93.6891 101.058 93.6891L101.058 91.7197C100.723 91.7197 100.436 91.7525 100.101 91.7525Z" fill="#F48BA2"/>
<path d="M97.7085 91.6869L97.7085 93.6563C98.0435 93.6891 98.3306 93.6891 98.6655 93.7219L98.6655 91.7525C98.3306 91.7197 98.0435 91.7197 97.7085 91.6869Z" fill="#F48BA2"/>
<path d="M102.493 91.5885L102.493 93.5579C102.828 93.525 103.115 93.4594 103.45 93.3937L103.45 91.4243C103.115 91.49 102.828 91.5228 102.493 91.5885Z" fill="#F48BA2"/>
<path d="M104.886 91.1289L104.886 93.0983C105.221 92.9998 105.508 92.9341 105.843 92.8357L105.843 90.8663C105.508 90.9319 105.221 91.0304 104.886 91.1289Z" fill="#F48BA2"/>
<path d="M95.3161 91.3258L95.3161 93.2952C95.6511 93.3609 95.9382 93.4265 96.2731 93.4594L96.2731 91.4899C95.9382 91.4571 95.6511 91.3915 95.3161 91.3258Z" fill="#F48BA2"/>
<path d="M92.9237 90.6693L92.9237 92.6387C93.2587 92.7371 93.5457 92.8356 93.8807 92.9341L93.8807 90.9647C93.5457 90.899 93.2587 90.8006 92.9237 90.6693Z" fill="#F48BA2"/>
<path d="M90.0528 89.3563L90.0528 91.3257C90.3399 91.5226 90.6748 91.6867 91.0097 91.8508L91.0097 89.8814C90.6748 89.7173 90.3399 89.5204 90.0528 89.3563Z" fill="#F48BA2"/>
<path d="M87.6604 87.3213L87.6604 89.2907C87.9475 89.6189 88.2824 89.9471 88.6173 90.2426L88.6173 88.2732C88.2824 87.9777 87.9475 87.6823 87.6604 87.3213Z" fill="#F48BA2"/>
<path d="M107.757 90.1113L107.757 92.0807C108.092 91.9166 108.427 91.7525 108.714 91.5883L108.714 89.6189C108.427 89.7831 108.092 89.9472 107.757 90.1113Z" fill="#F48BA2"/>
<path d="M110.149 90.6693C110.484 90.4067 110.819 90.1441 111.106 89.8487L111.106 87.8793C110.819 88.1747 110.484 88.4373 110.149 88.6999L110.149 90.6693Z" fill="#F48BA2"/>
<path d="M102.101 83.2192L102.101 84.5094L103.45 84.5094L103.45 85.5191L102.101 85.5191L102.101 86.3405L100.915 86.3405L100.915 85.5191L100.29 85.5191L100.29 86.3405L99.1047 86.3405L99.1047 85.5191L94.946 85.5191L94.946 83.2873C94.946 82.6436 95.1913 82.1293 95.682 81.7447C96.1687 81.3601 96.817 81.1677 97.627 81.1677C98.4525 81.1677 99.1008 81.3507 99.572 81.7167C100.039 82.0826 100.279 82.5915 100.29 83.2432L100.29 84.5094L100.915 84.5094L100.915 83.2192L102.101 83.2192ZM99.1047 84.5094L99.1047 83.3033C99.1047 82.9401 98.982 82.6622 98.7367 82.4699C98.4914 82.2776 98.1254 82.1814 97.6386 82.1814C97.2025 82.1814 96.8462 82.2763 96.5698 82.4659C96.2933 82.6529 96.1492 82.912 96.1375 83.2432L96.1375 84.5094L99.1047 84.5094Z" fill="#F48BA2"/>
<path d="M113.02 81.5893C113.02 86.0204 107.039 89.631 99.6225 89.631C92.206 89.631 86.2249 86.0204 86.2249 81.5893C86.2249 77.1581 92.206 73.5475 99.6225 73.5475C107.039 73.5475 113.02 77.1581 113.02 81.5893Z" fill="white"/>
<path d="M99.6224 89.6309C92.7801 89.6309 87.134 86.5455 86.3206 82.5739C86.2727 82.9021 86.2249 83.2304 86.2249 83.5586C86.2249 87.9898 92.2059 91.6003 99.6224 91.6003C107.039 91.6003 113.02 87.9898 113.02 83.5586C113.02 83.2304 112.972 82.9021 112.924 82.5739C112.111 86.5455 106.465 89.6309 99.6224 89.6309Z" fill="#FFBFCD"/>
<path d="M110.388 81.5564C110.388 81.819 110.388 82.0488 110.341 82.2785C110.293 82.4426 110.053 82.5739 109.814 82.5739C109.575 82.5411 109.384 82.377 109.384 82.2129C109.431 82.0159 109.431 81.819 109.431 81.5892C109.431 81.3923 109.623 81.261 109.91 81.261C110.197 81.261 110.388 81.3923 110.388 81.5564ZM109.862 79.6527C109.862 79.7839 109.766 79.9152 109.575 79.9481C109.336 80.0137 109.049 79.9152 108.953 79.7511C108.857 79.5542 108.714 79.3572 108.57 79.1931C108.427 79.029 108.522 78.8321 108.762 78.7664C109.001 78.668 109.288 78.7336 109.384 78.8977C109.527 79.0947 109.671 79.3244 109.766 79.5214C109.862 79.587 109.862 79.6198 109.862 79.6527ZM109.527 84.0838C109.527 84.1495 109.527 84.1823 109.479 84.2479C109.336 84.4449 109.144 84.6418 109.001 84.8387C108.857 85.0029 108.57 85.0357 108.331 84.9372C108.092 84.8387 108.044 84.6418 108.187 84.4777C108.331 84.3136 108.522 84.1166 108.618 83.9525C108.762 83.7884 109.049 83.7227 109.24 83.8212C109.431 83.854 109.527 83.9853 109.527 84.0838ZM107.805 77.4863C107.805 77.5848 107.757 77.6504 107.661 77.7161C107.47 77.8474 107.183 77.8474 106.991 77.7161C106.8 77.5848 106.561 77.4207 106.321 77.2894C106.13 77.1909 106.082 76.9611 106.273 76.8298C106.465 76.6985 106.752 76.6657 106.943 76.797C107.183 76.9283 107.47 77.0924 107.661 77.2565C107.757 77.3222 107.805 77.4207 107.805 77.4863ZM107.135 86.086C107.135 86.1845 107.087 86.283 106.943 86.3486C106.704 86.4799 106.417 86.644 106.13 86.7425C105.891 86.841 105.604 86.8081 105.46 86.644C105.316 86.4799 105.364 86.283 105.604 86.1845C105.843 86.0532 106.082 85.9547 106.321 85.8234C106.513 85.6922 106.848 85.725 106.991 85.8563C107.087 85.9547 107.135 86.0204 107.135 86.086ZM104.694 76.0421C104.694 76.0749 104.694 76.1406 104.647 76.1734C104.551 76.3375 104.264 76.4031 104.025 76.3375C103.737 76.239 103.45 76.1734 103.163 76.1077C102.924 76.0421 102.78 75.878 102.876 75.681C102.972 75.5169 103.211 75.4184 103.498 75.4841C103.833 75.5497 104.12 75.6482 104.407 75.7138C104.599 75.8123 104.694 75.9108 104.694 76.0421ZM103.833 87.3661C103.833 87.4974 103.69 87.6287 103.498 87.6616C103.211 87.7272 102.876 87.7928 102.541 87.8585C102.302 87.8913 102.015 87.7928 101.967 87.6287C101.919 87.4646 102.063 87.2677 102.302 87.2348C102.589 87.1692 102.876 87.1364 103.163 87.0707C103.403 87.0051 103.69 87.1036 103.785 87.2677C103.833 87.2677 103.833 87.3005 103.833 87.3661ZM101.01 75.4184C101.01 75.4513 101.01 75.4513 101.01 75.4184C101.01 75.6154 100.771 75.7467 100.484 75.7467C100.197 75.7467 99.9096 75.7138 99.6225 75.7138C99.3354 75.7138 99.144 75.5826 99.144 75.3856C99.144 75.1887 99.3354 75.0574 99.6225 75.0574V75.0574C99.9574 75.0574 100.245 75.0574 100.579 75.0902C100.819 75.123 101.01 75.2543 101.01 75.4184ZM100.101 87.76C100.101 87.957 99.9096 88.0883 99.6225 88.0883C99.2876 88.0883 98.9526 88.0883 98.6655 88.0554C98.4263 88.0554 98.187 87.8913 98.2349 87.6944C98.2349 87.4974 98.4741 87.3661 98.7612 87.399C99.0483 87.399 99.3833 87.4318 99.6703 87.4318C99.9096 87.4318 100.101 87.5959 100.101 87.76ZM97.2301 75.6482C97.2301 75.7795 97.0865 75.9436 96.8473 75.9764C96.5602 76.0421 96.2731 76.0749 95.986 76.1406C95.7468 76.2062 95.4597 76.1077 95.364 75.9436C95.2683 75.7795 95.4118 75.5826 95.6511 75.5169C95.9382 75.4513 96.2731 75.3856 96.608 75.32C96.8473 75.2871 97.1344 75.3856 97.1822 75.5497C97.2301 75.5826 97.2301 75.6154 97.2301 75.6482ZM96.3688 87.3661C96.3688 87.399 96.3688 87.4318 96.321 87.4646C96.2253 87.6287 95.986 87.7272 95.6989 87.6616C95.4118 87.5959 95.0769 87.4974 94.7898 87.4318C94.5506 87.3661 94.4549 87.1692 94.5506 87.0051C94.6463 86.841 94.9334 86.7753 95.1726 86.841C95.4597 86.9394 95.7468 87.0051 96.0339 87.0707C96.2731 87.1036 96.3688 87.2348 96.3688 87.3661ZM93.785 76.6985C93.785 76.797 93.6893 76.8955 93.5936 76.9611C93.3544 77.0924 93.1151 77.1909 92.8759 77.3222C92.6845 77.4535 92.3495 77.4207 92.206 77.2894C92.0146 77.1581 92.0624 76.9283 92.2538 76.8298C92.4931 76.6985 92.7802 76.5344 93.0673 76.436C93.3065 76.3375 93.5936 76.3703 93.7371 76.5344C93.785 76.5673 93.785 76.6329 93.785 76.6985ZM93.0673 86.1189C93.0673 86.1845 93.0194 86.2501 92.9716 86.3158C92.828 86.4471 92.4931 86.4799 92.3017 86.3486C92.0624 86.2173 91.7754 86.0532 91.584 85.8891C91.3926 85.7578 91.3926 85.5609 91.584 85.4296C91.7754 85.2983 92.0624 85.2983 92.2538 85.4296C92.4452 85.5609 92.6845 85.725 92.9237 85.8563C93.0194 85.9219 93.0673 86.0204 93.0673 86.1189ZM91.1533 78.5367C91.1533 78.6023 91.1055 78.668 91.0576 78.7008C90.9141 78.8649 90.7227 79.0618 90.627 79.2259C90.5313 79.3901 90.1964 79.4557 90.005 79.3572C89.7657 79.2916 89.67 79.0947 89.8136 78.9305C89.9571 78.7336 90.1485 78.5367 90.2921 78.3397C90.4356 78.1756 90.7227 78.1428 90.9619 78.2412C91.0576 78.3069 91.1533 78.4382 91.1533 78.5367ZM90.6748 84.1166C90.6748 84.2479 90.5791 84.3464 90.4356 84.412C90.1964 84.5105 89.9093 84.4449 89.8136 84.2807C89.67 84.0838 89.5265 83.854 89.4308 83.6571C89.3351 83.493 89.4786 83.296 89.7179 83.2304C89.9571 83.1648 90.2442 83.2632 90.3399 83.4273C90.4356 83.6243 90.5791 83.8212 90.7227 83.9853C90.6748 84.0182 90.6748 84.051 90.6748 84.1166ZM89.8614 80.9656L89.8614 80.9984C89.8136 81.1953 89.8136 81.3923 89.8136 81.5892C89.8136 81.7862 89.6222 81.9175 89.3351 81.9175C89.048 81.9175 88.8566 81.7862 88.8566 81.5892C88.8566 81.3595 88.8566 81.1297 88.9045 80.9328C88.9523 80.7686 89.1915 80.6374 89.4308 80.6374C89.67 80.6374 89.8614 80.8015 89.8614 80.9656Z" fill="#FFBFCD"/>
<path d="M100.101 89.6309L100.101 91.6003C100.436 91.6003 100.723 91.5675 101.058 91.5675L101.058 89.5981C100.723 89.5981 100.436 89.6309 100.101 89.6309Z" fill="#F48BA2"/>
<path d="M97.7086 89.5653L97.7086 91.5347C98.0435 91.5675 98.3306 91.5675 98.6655 91.6003L98.6655 89.6309C98.3306 89.5981 98.0435 89.5981 97.7086 89.5653Z" fill="#F48BA2"/>
<path d="M102.493 89.4669L102.493 91.4363C102.828 91.4035 103.115 91.3378 103.45 91.2722L103.45 89.3028C103.115 89.3684 102.828 89.4012 102.493 89.4669Z" fill="#F48BA2"/>
<path d="M104.886 89.0074L104.886 90.9768C105.221 90.8783 105.508 90.8127 105.843 90.7142L105.843 88.7448C105.508 88.8105 105.221 88.9089 104.886 89.0074Z" fill="#F48BA2"/>
<path d="M95.3162 89.2044L95.3162 91.1738C95.6511 91.2394 95.9382 91.3051 96.2731 91.3379L96.2731 89.3685C95.9382 89.3357 95.6511 89.27 95.3162 89.2044Z" fill="#F48BA2"/>
<path d="M92.9238 88.5478L92.9238 90.5172C93.2587 90.6157 93.5458 90.7142 93.8807 90.8126L93.8807 88.8432C93.5458 88.7776 93.2587 88.6791 92.9238 88.5478Z" fill="#F48BA2"/>
<path d="M90.0528 87.2349L90.0528 89.2043C90.3399 89.4013 90.6748 89.5654 91.0098 89.7295L91.0098 87.7601C90.6748 87.596 90.3399 87.399 90.0528 87.2349Z" fill="#F48BA2"/>
<path d="M87.6604 85.1998L87.6604 87.1692C87.9475 87.4974 88.2824 87.8257 88.6174 88.1211L88.6174 86.1517C88.2824 85.8563 87.9475 85.5609 87.6604 85.1998Z" fill="#F48BA2"/>
<path d="M107.757 87.9899L107.757 89.9594C108.092 89.7952 108.427 89.6311 108.714 89.467L108.714 87.4976C108.427 87.6617 108.092 87.8258 107.757 87.9899Z" fill="#F48BA2"/>
<path d="M110.149 88.5477C110.484 88.2851 110.819 88.0226 111.106 87.7271L111.106 85.7577C110.819 86.0532 110.484 86.3157 110.149 86.5783L110.149 88.5477Z" fill="#F48BA2"/>
<path d="M102.101 81.0977L102.101 82.3879L103.45 82.3879L103.45 83.3976L102.101 83.3976L102.101 84.219L100.915 84.219L100.915 83.3976L100.29 83.3976L100.29 84.219L99.1047 84.219L99.1047 83.3976L94.946 83.3976L94.946 81.1658C94.946 80.5221 95.1914 80.0079 95.682 79.6232C96.1687 79.2386 96.8171 79.0463 97.627 79.0463C98.4525 79.0463 99.1008 79.2292 99.572 79.5952C100.039 79.9611 100.279 80.47 100.29 81.1218L100.29 82.3879L100.915 82.3879L100.915 81.0977L102.101 81.0977ZM99.1047 82.3879L99.1047 81.1819C99.1047 80.8186 98.9821 80.5408 98.7368 80.3485C98.4914 80.1561 98.1254 80.06 97.6387 80.06C97.2026 80.06 96.8463 80.1548 96.5698 80.3445C96.2933 80.5314 96.1493 80.7905 96.1376 81.1218L96.1376 82.3879L99.1047 82.3879Z" fill="#F48BA2"/>
<path d="M113.02 79.4592C113.02 83.8904 107.039 87.501 99.6224 87.501C92.2059 87.501 86.2249 83.8904 86.2249 79.4592C86.2249 75.0281 92.2059 71.4175 99.6224 71.4175C107.039 71.4175 113.02 75.0281 113.02 79.4592Z" fill="white"/>
<path d="M99.6224 87.5009C92.7801 87.5009 87.134 84.4155 86.3205 80.4439C86.2727 80.7721 86.2249 81.1004 86.2249 81.4286C86.2249 85.8598 92.2059 89.4703 99.6224 89.4703C107.039 89.4703 113.02 85.8598 113.02 81.4286C113.02 81.1004 112.972 80.7721 112.924 80.4439C112.111 84.4155 106.465 87.5009 99.6224 87.5009Z" fill="#FFBFCD"/>
<path d="M110.388 79.4264C110.388 79.689 110.388 79.9188 110.341 80.1485C110.293 80.3126 110.053 80.4439 109.814 80.4439C109.575 80.4111 109.384 80.247 109.384 80.0829C109.431 79.8859 109.431 79.689 109.431 79.4592C109.431 79.2623 109.623 79.131 109.91 79.131C110.197 79.131 110.388 79.2623 110.388 79.4264ZM109.862 77.5226C109.862 77.6539 109.766 77.7852 109.575 77.8181C109.336 77.8837 109.049 77.7852 108.953 77.6211C108.857 77.4242 108.714 77.2272 108.57 77.0631C108.427 76.899 108.522 76.7021 108.762 76.6364C109.001 76.5379 109.288 76.6036 109.384 76.7677C109.527 76.9646 109.671 77.1944 109.766 77.3914C109.862 77.457 109.862 77.4898 109.862 77.5226ZM109.527 81.9538C109.527 82.0194 109.527 82.0523 109.479 82.1179C109.336 82.3149 109.144 82.5118 109.001 82.7087C108.857 82.8729 108.57 82.9057 108.331 82.8072C108.092 82.7087 108.044 82.5118 108.187 82.3477C108.331 82.1836 108.522 81.9866 108.618 81.8225C108.762 81.6584 109.049 81.5927 109.24 81.6912C109.431 81.724 109.527 81.8553 109.527 81.9538ZM107.805 75.3563C107.805 75.4548 107.757 75.5204 107.661 75.5861C107.47 75.7174 107.183 75.7174 106.991 75.5861C106.8 75.4548 106.56 75.2907 106.321 75.1594C106.13 75.0609 106.082 74.8311 106.273 74.6998C106.465 74.5685 106.752 74.5357 106.943 74.667C107.183 74.7983 107.47 74.9624 107.661 75.1265C107.757 75.1922 107.805 75.2907 107.805 75.3563ZM107.135 83.956C107.135 84.0545 107.087 84.153 106.943 84.2186C106.704 84.3499 106.417 84.514 106.13 84.6125C105.891 84.711 105.604 84.6781 105.46 84.514C105.316 84.3499 105.364 84.153 105.604 84.0545C105.843 83.9232 106.082 83.8247 106.321 83.6934C106.513 83.5621 106.848 83.595 106.991 83.7263C107.087 83.8247 107.135 83.8904 107.135 83.956ZM104.694 73.9121C104.694 73.9449 104.694 74.0105 104.647 74.0434C104.551 74.2075 104.264 74.2731 104.025 74.2075C103.737 74.109 103.45 74.0434 103.163 73.9777C102.924 73.9121 102.78 73.748 102.876 73.551C102.972 73.3869 103.211 73.2884 103.498 73.3541C103.833 73.4197 104.12 73.5182 104.407 73.5838C104.599 73.6823 104.694 73.7808 104.694 73.9121ZM103.833 85.2361C103.833 85.3674 103.69 85.4987 103.498 85.5315C103.211 85.5972 102.876 85.6628 102.541 85.7285C102.302 85.7613 102.015 85.6628 101.967 85.4987C101.919 85.3346 102.063 85.1377 102.302 85.1048C102.589 85.0392 102.876 85.0064 103.163 84.9407C103.402 84.8751 103.69 84.9736 103.785 85.1377C103.833 85.1377 103.833 85.1705 103.833 85.2361ZM101.01 73.2884C101.01 73.3213 101.01 73.3213 101.01 73.2884C101.01 73.4854 100.771 73.6167 100.484 73.6167C100.197 73.6167 99.9096 73.5838 99.6225 73.5838C99.3354 73.5838 99.144 73.4525 99.144 73.2556C99.144 73.0587 99.3354 72.9274 99.6225 72.9274V72.9274C99.9574 72.9274 100.244 72.9274 100.579 72.9602C100.819 72.993 101.01 73.1243 101.01 73.2884ZM100.101 85.63C100.101 85.827 99.9096 85.9583 99.6225 85.9583C99.2875 85.9583 98.9526 85.9583 98.6655 85.9254C98.4263 85.9254 98.187 85.7613 98.2349 85.5644C98.2349 85.3674 98.4741 85.2361 98.7612 85.269C99.0483 85.269 99.3832 85.3018 99.6703 85.3018C99.9096 85.3018 100.101 85.4659 100.101 85.63ZM97.23 73.5182C97.23 73.6495 97.0865 73.8136 96.8473 73.8464C96.5602 73.9121 96.2731 73.9449 95.986 74.0105C95.7467 74.0762 95.4597 73.9777 95.364 73.8136C95.2683 73.6495 95.4118 73.4525 95.651 73.3869C95.9381 73.3213 96.2731 73.2556 96.608 73.19C96.8473 73.1571 97.1343 73.2556 97.1822 73.4197C97.23 73.4525 97.23 73.4854 97.23 73.5182ZM96.3688 85.2361C96.3688 85.269 96.3688 85.3018 96.3209 85.3346C96.2252 85.4987 95.986 85.5972 95.6989 85.5315C95.4118 85.4659 95.0769 85.3674 94.7898 85.3018C94.5505 85.2361 94.4548 85.0392 94.5505 84.8751C94.6462 84.711 94.9333 84.6453 95.1726 84.711C95.4597 84.8094 95.7467 84.8751 96.0338 84.9407C96.2731 84.9736 96.3688 85.1048 96.3688 85.2361ZM93.785 74.5685C93.785 74.667 93.6893 74.7655 93.5936 74.8311C93.3543 74.9624 93.1151 75.0609 92.8758 75.1922C92.6844 75.3235 92.3495 75.2907 92.206 75.1594C92.0146 75.0281 92.0624 74.7983 92.2538 74.6998C92.4931 74.5685 92.7801 74.4044 93.0672 74.306C93.3065 74.2075 93.5936 74.2403 93.7371 74.4044C93.785 74.4372 93.785 74.5029 93.785 74.5685ZM93.0672 83.9888C93.0672 84.0545 93.0194 84.1201 92.9715 84.1858C92.828 84.3171 92.4931 84.3499 92.3017 84.2186C92.0624 84.0873 91.7753 83.9232 91.5839 83.7591C91.3925 83.6278 91.3925 83.4309 91.5839 83.2996C91.7753 83.1683 92.0624 83.1683 92.2538 83.2996C92.4452 83.4309 92.6844 83.595 92.9237 83.7263C93.0194 83.7919 93.0672 83.8904 93.0672 83.9888ZM91.1533 76.4067C91.1533 76.4723 91.1054 76.5379 91.0576 76.5708C90.9141 76.7349 90.7227 76.9318 90.627 77.0959C90.5313 77.2601 90.1963 77.3257 90.0049 77.2272C89.7657 77.1616 89.67 76.9646 89.8135 76.8005C89.9571 76.6036 90.1485 76.4067 90.292 76.2097C90.4356 76.0456 90.7227 76.0128 90.9619 76.1112C91.0576 76.1769 91.1533 76.3082 91.1533 76.4067ZM90.6748 81.9866C90.6748 82.1179 90.5791 82.2164 90.4356 82.282C90.1963 82.3805 89.9092 82.3149 89.8135 82.1507C89.67 81.9538 89.5264 81.724 89.4308 81.5271C89.3351 81.363 89.4786 81.166 89.7178 81.1004C89.9571 81.0347 90.2442 81.1332 90.3399 81.2973C90.4356 81.4943 90.5791 81.6912 90.7227 81.8553C90.6748 81.8882 90.6748 81.921 90.6748 81.9866ZM89.8614 78.8356L89.8614 78.8684C89.8135 79.0653 89.8135 79.2623 89.8135 79.4592C89.8135 79.6562 89.6221 79.7875 89.3351 79.7875C89.048 79.7875 88.8566 79.6562 88.8566 79.4592C88.8566 79.2295 88.8566 78.9997 88.9044 78.8028C88.9523 78.6386 89.1915 78.5073 89.4308 78.5073C89.67 78.5073 89.8614 78.6715 89.8614 78.8356Z" fill="#FFBFCD"/>
<path d="M100.101 87.5009L100.101 89.4703C100.436 89.4703 100.723 89.4375 101.058 89.4375L101.058 87.4681C100.723 87.4681 100.436 87.5009 100.101 87.5009Z" fill="#F48BA2"/>
<path d="M97.7085 87.4353L97.7085 89.4047C98.0435 89.4375 98.3306 89.4375 98.6655 89.4703L98.6655 87.5009C98.3306 87.4681 98.0435 87.4681 97.7085 87.4353Z" fill="#F48BA2"/>
<path d="M102.493 87.337L102.493 89.3064C102.828 89.2736 103.115 89.2079 103.45 89.1423L103.45 87.1729C103.115 87.2385 102.828 87.2713 102.493 87.337Z" fill="#F48BA2"/>
<path d="M104.886 86.8773L104.886 88.8467C105.221 88.7482 105.508 88.6826 105.843 88.5841L105.843 86.6147C105.508 86.6803 105.221 86.7788 104.886 86.8773Z" fill="#F48BA2"/>
<path d="M95.3161 87.0742L95.3161 89.0436C95.6511 89.1093 95.9382 89.1749 96.2731 89.2078L96.2731 87.2384C95.9382 87.2055 95.6511 87.1399 95.3161 87.0742Z" fill="#F48BA2"/>
<path d="M92.9237 86.4178L92.9237 88.3872C93.2587 88.4857 93.5457 88.5841 93.8807 88.6826L93.8807 86.7132C93.5457 86.6476 93.2587 86.5491 92.9237 86.4178Z" fill="#F48BA2"/>
<path d="M90.0528 85.1049L90.0528 87.0743C90.3399 87.2713 90.6748 87.4354 91.0097 87.5995L91.0097 85.6301C90.6748 85.466 90.3399 85.269 90.0528 85.1049Z" fill="#F48BA2"/>
<path d="M87.6604 83.0698L87.6604 85.0392C87.9475 85.3674 88.2824 85.6957 88.6173 85.9911L88.6173 84.0217C88.2824 83.7263 87.9475 83.4309 87.6604 83.0698Z" fill="#F48BA2"/>
<path d="M107.757 85.8598L107.757 87.8292C108.092 87.6651 108.427 87.501 108.714 87.3369L108.714 85.3675C108.427 85.5316 108.092 85.6957 107.757 85.8598Z" fill="#F48BA2"/>
<path d="M110.149 86.4178C110.484 86.1553 110.819 85.8927 111.106 85.5973L111.106 83.6279C110.819 83.9233 110.484 84.1859 110.149 84.4484L110.149 86.4178Z" fill="#F48BA2"/>
<path d="M102.101 78.9677L102.101 80.2579L103.45 80.2579L103.45 81.2676L102.101 81.2676L102.101 82.089L100.915 82.089L100.915 81.2676L100.29 81.2676L100.29 82.089L99.1047 82.089L99.1047 81.2676L94.946 81.2676L94.946 79.0358C94.946 78.3921 95.1913 77.8779 95.682 77.4932C96.1687 77.1086 96.817 76.9163 97.627 76.9163C98.4525 76.9163 99.1008 77.0992 99.572 77.4652C100.039 77.8311 100.279 78.34 100.29 78.9918L100.29 80.2579L100.915 80.2579L100.915 78.9677L102.101 78.9677ZM99.1047 80.2579L99.1047 79.0519C99.1047 78.6886 98.982 78.4108 98.7367 78.2185C98.4914 78.0261 98.1254 77.93 97.6386 77.93C97.2025 77.93 96.8462 78.0248 96.5698 78.2145C96.2933 78.4014 96.1492 78.6605 96.1375 78.9918L96.1375 80.2579L99.1047 80.2579Z" fill="#F48BA2"/>
<path d="M113.02 77.3377C113.02 81.7688 107.039 85.3794 99.6225 85.3794C92.206 85.3794 86.2249 81.7688 86.2249 77.3377C86.2249 72.9065 92.206 69.2959 99.6225 69.2959C107.039 69.2959 113.02 72.9065 113.02 77.3377Z" fill="#FFDCE4"/>
<path d="M99.6224 85.3795C92.7801 85.3795 87.134 82.2941 86.3206 78.3225C86.2727 78.6507 86.2249 78.9789 86.2249 79.3072C86.2249 83.7383 92.2059 87.3489 99.6224 87.3489C107.039 87.3489 113.02 83.7383 113.02 79.3072C113.02 78.9789 112.972 78.6507 112.924 78.3224C112.111 82.2941 106.465 85.3795 99.6224 85.3795Z" fill="#FFBFCD"/>
<path d="M110.388 77.3049C110.388 77.5675 110.388 77.7973 110.341 78.0271C110.293 78.1912 110.053 78.3225 109.814 78.3225C109.575 78.2896 109.384 78.1255 109.384 77.9614C109.431 77.7645 109.431 77.5675 109.431 77.3378C109.431 77.1408 109.623 77.0095 109.91 77.0095C110.197 77.0095 110.388 77.1408 110.388 77.3049ZM109.862 75.4012C109.862 75.5325 109.766 75.6638 109.575 75.6966C109.336 75.7622 109.049 75.6638 108.953 75.4997C108.857 75.3027 108.714 75.1058 108.57 74.9417C108.427 74.7775 108.522 74.5806 108.762 74.515C109.001 74.4165 109.288 74.4821 109.384 74.6462C109.527 74.8432 109.671 75.073 109.766 75.2699C109.862 75.3355 109.862 75.3684 109.862 75.4012ZM109.527 79.8323C109.527 79.898 109.527 79.9308 109.479 79.9965C109.336 80.1934 109.144 80.3903 109.001 80.5873C108.857 80.7514 108.57 80.7842 108.331 80.6857C108.092 80.5873 108.044 80.3903 108.187 80.2262C108.331 80.0621 108.522 79.8652 108.618 79.701C108.762 79.5369 109.049 79.4713 109.24 79.5698C109.431 79.6026 109.527 79.7339 109.527 79.8323ZM107.805 73.2348C107.805 73.3333 107.757 73.399 107.661 73.4646C107.47 73.5959 107.183 73.5959 106.991 73.4646C106.8 73.3333 106.561 73.1692 106.321 73.0379C106.13 72.9394 106.082 72.7097 106.273 72.5784C106.465 72.4471 106.752 72.4143 106.943 72.5456C107.183 72.6768 107.47 72.841 107.661 73.0051C107.757 73.0707 107.805 73.1692 107.805 73.2348ZM107.135 81.8346C107.135 81.933 107.087 82.0315 106.943 82.0972C106.704 82.2284 106.417 82.3926 106.13 82.491C105.891 82.5895 105.604 82.5567 105.46 82.3926C105.316 82.2284 105.364 82.0315 105.604 81.933C105.843 81.8017 106.082 81.7033 106.321 81.572C106.513 81.4407 106.848 81.4735 106.991 81.6048C107.087 81.7033 107.135 81.7689 107.135 81.8346ZM104.694 71.7906C104.694 71.8234 104.694 71.8891 104.647 71.9219C104.551 72.086 104.264 72.1517 104.025 72.086C103.737 71.9876 103.45 71.9219 103.163 71.8563C102.924 71.7906 102.78 71.6265 102.876 71.4296C102.972 71.2654 103.211 71.167 103.498 71.2326C103.833 71.2983 104.12 71.3967 104.407 71.4624C104.599 71.5609 104.694 71.6593 104.694 71.7906ZM103.833 83.1147C103.833 83.246 103.69 83.3773 103.498 83.4101C103.211 83.4757 102.876 83.5414 102.541 83.607C102.302 83.6399 102.015 83.5414 101.967 83.3773C101.919 83.2131 102.063 83.0162 102.302 82.9834C102.589 82.9177 102.876 82.8849 103.163 82.8193C103.403 82.7536 103.69 82.8521 103.785 83.0162C103.833 83.0162 103.833 83.049 103.833 83.1147ZM101.01 71.167C101.01 71.1998 101.01 71.1998 101.01 71.167C101.01 71.3639 100.771 71.4952 100.484 71.4952C100.197 71.4952 99.9096 71.4624 99.6225 71.4624C99.3354 71.4624 99.144 71.3311 99.144 71.1341C99.144 70.9372 99.3354 70.8059 99.6225 70.8059V70.8059C99.9574 70.8059 100.245 70.8059 100.579 70.8387C100.819 70.8716 101.01 71.0029 101.01 71.167ZM100.101 83.5086C100.101 83.7055 99.9096 83.8368 99.6225 83.8368C99.2876 83.8368 98.9526 83.8368 98.6655 83.804C98.4263 83.804 98.187 83.6399 98.2349 83.4429C98.2349 83.246 98.4741 83.1147 98.7612 83.1475C99.0483 83.1475 99.3833 83.1803 99.6703 83.1803C99.9096 83.1803 100.101 83.3444 100.101 83.5086ZM97.2301 71.3967C97.2301 71.528 97.0865 71.6921 96.8473 71.725C96.5602 71.7906 96.2731 71.8234 95.986 71.8891C95.7468 71.9547 95.4597 71.8563 95.364 71.6921C95.2683 71.528 95.4118 71.3311 95.6511 71.2654C95.9382 71.1998 96.2731 71.1341 96.608 71.0685C96.8473 71.0357 97.1344 71.1341 97.1822 71.2983C97.2301 71.3311 97.2301 71.3639 97.2301 71.3967ZM96.3688 83.1147C96.3688 83.1475 96.3688 83.1803 96.321 83.2131C96.2253 83.3773 95.986 83.4757 95.6989 83.4101C95.4118 83.3444 95.0769 83.246 94.7898 83.1803C94.5506 83.1147 94.4549 82.9177 94.5506 82.7536C94.6463 82.5895 94.9334 82.5239 95.1726 82.5895C95.4597 82.688 95.7468 82.7536 96.0339 82.8193C96.2731 82.8521 96.3688 82.9834 96.3688 83.1147ZM93.785 72.4471C93.785 72.5456 93.6893 72.644 93.5936 72.7097C93.3544 72.841 93.1151 72.9394 92.8759 73.0707C92.6845 73.202 92.3495 73.1692 92.206 73.0379C92.0146 72.9066 92.0624 72.6768 92.2538 72.5784C92.4931 72.4471 92.7802 72.283 93.0673 72.1845C93.3065 72.086 93.5936 72.1188 93.7371 72.283C93.785 72.3158 93.785 72.3814 93.785 72.4471ZM93.0673 81.8674C93.0673 81.933 93.0194 81.9987 92.9716 82.0643C92.828 82.1956 92.4931 82.2284 92.3017 82.0972C92.0624 81.9659 91.7754 81.8017 91.584 81.6376C91.3926 81.5063 91.3926 81.3094 91.584 81.1781C91.7754 81.0468 92.0624 81.0468 92.2538 81.1781C92.4452 81.3094 92.6845 81.4735 92.9237 81.6048C93.0194 81.6704 93.0673 81.7689 93.0673 81.8674ZM91.1533 74.2852C91.1533 74.3508 91.1055 74.4165 91.0576 74.4493C90.9141 74.6134 90.7227 74.8104 90.627 74.9745C90.5313 75.1386 90.1964 75.2042 90.005 75.1058C89.7657 75.0401 89.67 74.8432 89.8136 74.6791C89.9571 74.4821 90.1485 74.2852 90.2921 74.0883C90.4356 73.9241 90.7227 73.8913 90.9619 73.9898C91.0576 74.0554 91.1533 74.1867 91.1533 74.2852ZM90.6748 79.8652C90.6748 79.9965 90.5791 80.0949 90.4356 80.1606C90.1964 80.259 89.9093 80.1934 89.8136 80.0293C89.67 79.8323 89.5265 79.6026 89.4308 79.4056C89.3351 79.2415 89.4786 79.0446 89.7179 78.9789C89.9571 78.9133 90.2442 79.0118 90.3399 79.1759C90.4356 79.3728 90.5791 79.5698 90.7227 79.7339C90.6748 79.7667 90.6748 79.7995 90.6748 79.8652ZM89.8614 76.7141L89.8614 76.7469C89.8136 76.9439 89.8136 77.1408 89.8136 77.3378C89.8136 77.5347 89.6222 77.666 89.3351 77.666C89.048 77.666 88.8566 77.5347 88.8566 77.3378C88.8566 77.108 88.8566 76.8782 88.9045 76.6813C88.9523 76.5172 89.1915 76.3859 89.4308 76.3859C89.67 76.3859 89.8614 76.55 89.8614 76.7141Z" fill="#FFBFCD"/>
<path d="M100.101 85.3795L100.101 87.3489C100.436 87.3489 100.723 87.3161 101.058 87.3161L101.058 85.3467C100.723 85.3467 100.436 85.3795 100.101 85.3795Z" fill="#F48BA2"/>
<path d="M97.7086 85.3138L97.7086 87.2832C98.0435 87.3161 98.3306 87.3161 98.6655 87.3489L98.6655 85.3795C98.3306 85.3467 98.0435 85.3467 97.7086 85.3138Z" fill="#F48BA2"/>
<path d="M102.493 85.2153L102.493 87.1847C102.828 87.1519 103.115 87.0862 103.45 87.0206L103.45 85.0512C103.115 85.1168 102.828 85.1496 102.493 85.2153Z" fill="#F48BA2"/>
<path d="M104.886 84.7557L104.886 86.7251C105.221 86.6266 105.508 86.561 105.843 86.4625L105.843 84.4931C105.508 84.5588 105.221 84.6572 104.886 84.7557Z" fill="#F48BA2"/>
<path d="M95.3162 84.9528L95.3162 86.9222C95.6511 86.9878 95.9382 87.0535 96.2731 87.0863L96.2731 85.1169C95.9382 85.0841 95.6511 85.0184 95.3162 84.9528Z" fill="#F48BA2"/>
<path d="M92.9238 84.2962L92.9238 86.2656C93.2587 86.3641 93.5458 86.4626 93.8807 86.561L93.8807 84.5916C93.5458 84.526 93.2587 84.4275 92.9238 84.2962Z" fill="#F48BA2"/>
<path d="M90.0528 82.9832L90.0528 84.9526C90.3399 85.1495 90.6748 85.3137 91.0098 85.4778L91.0098 83.5084C90.6748 83.3443 90.3399 83.1473 90.0528 82.9832Z" fill="#F48BA2"/>
<path d="M87.6604 80.9483L87.6604 82.9178C87.9475 83.246 88.2824 83.5742 88.6174 83.8696L88.6174 81.9002C88.2824 81.6048 87.9475 81.3094 87.6604 80.9483Z" fill="#F48BA2"/>
<path d="M107.757 83.7382L107.757 85.7076C108.092 85.5435 108.427 85.3794 108.714 85.2153L108.714 83.2459C108.427 83.41 108.092 83.5741 107.757 83.7382Z" fill="#F48BA2"/>
<path d="M110.149 84.2961C110.484 84.0336 110.819 83.771 111.106 83.4756L111.106 81.5062C110.819 81.8016 110.484 82.0642 110.149 82.3267L110.149 84.2961Z" fill="#F48BA2"/>
<path d="M102.101 76.8463L102.101 78.1364L103.45 78.1364L103.45 79.1461L102.101 79.1461L102.101 79.9675L100.915 79.9675L100.915 79.1461L100.29 79.1461L100.29 79.9675L99.1047 79.9675L99.1047 79.1461L94.946 79.1461L94.946 76.9144C94.946 76.2706 95.1914 75.7564 95.682 75.3718C96.1687 74.9871 96.8171 74.7948 97.627 74.7948C98.4525 74.7948 99.1008 74.9778 99.572 75.3437C100.039 75.7097 100.279 76.2185 100.29 76.8703L100.29 78.1364L100.915 78.1364L100.915 76.8463L102.101 76.8463ZM99.1047 78.1364L99.1047 76.9304C99.1047 76.5671 98.9821 76.2893 98.7368 76.097C98.4914 75.9047 98.1254 75.8085 97.6387 75.8085C97.2026 75.8085 96.8463 75.9033 96.5698 76.093C96.2933 76.28 96.1493 76.5391 96.1376 76.8703L96.1376 78.1364L99.1047 78.1364Z" fill="#F48BA2"/>
</svg>
