<svg width="114" height="71" viewBox="0 0 114 71" fill="none" xmlns="http://www.w3.org/2000/svg">
<path d="M75 47.2586L17 68V36.7414L75 16V47.2586Z" fill="#FFBFCD"/>
<path d="M37 43L63.5 33.5" stroke="#F1AABA"/>
<path d="M0 20.5176L16.7206 37L75 16.4824L58.2794 0L0 20.5176Z" fill="#FFDCE4"/>
<path d="M17 68V37.4654L8.5 29.2327L0 21V51.5346L17 68Z" fill="#E492A4"/>
<path d="M10.5 40L16.5 44V42.5L10.5 40Z" fill="#DC8094"/>
<path d="M10.5 53L0 42.5V44.5L10.5 53Z" fill="#DC8094"/>
<ellipse cx="38" cy="18" rx="10" ry="6" fill="#FFBFCD"/>
<ellipse cx="56.5" cy="11.5" rx="2.5" ry="1.5" fill="#FFBFCD"/>
<ellipse cx="19.5" cy="24.5" rx="2.5" ry="1.5" fill="#FFBFCD"/>
<path d="M36 55L17 60.5V62L36 55Z" fill="#F1AABA"/>
<path d="M25.5 40L17 42.5V44L25.5 40Z" fill="#F1AABA"/>
<path d="M84.7951 60.2245C84.7951 64.6557 78.8141 68.2662 71.3976 68.2662C63.9811 68.2662 58 64.6557 58 60.2245C58 55.7934 63.9811 52.1828 71.3976 52.1828C78.8141 52.1828 84.7951 55.7934 84.7951 60.2245Z" fill="white"/>
<path d="M71.3976 68.2663C64.5552 68.2663 58.9091 65.1809 58.0957 61.2093C58.0478 61.5375 58 61.8658 58 62.194C58 66.6251 63.9811 70.2357 71.3976 70.2357C78.8141 70.2357 84.7951 66.6251 84.7951 62.194C84.7951 61.8658 84.7473 61.5375 84.6994 61.2093C83.886 65.1809 78.2399 68.2663 71.3976 68.2663Z" fill="#FFBFCD"/>
<path d="M82.1635 60.1918C82.1635 60.4544 82.1635 60.6841 82.1156 60.9139C82.0678 61.078 81.8285 61.2093 81.5893 61.2093C81.3501 61.1765 81.1587 61.0124 81.1587 60.8482C81.2065 60.6513 81.2065 60.4544 81.2065 60.2246C81.2065 60.0277 81.3979 59.8964 81.685 59.8964C81.9721 59.8964 82.1635 60.0277 82.1635 60.1918ZM81.6372 58.288C81.6372 58.4193 81.5415 58.5506 81.3501 58.5834C81.1108 58.6491 80.8237 58.5506 80.728 58.3865C80.6323 58.1896 80.4888 57.9926 80.3452 57.8285C80.2017 57.6644 80.2974 57.4674 80.5366 57.4018C80.7759 57.3033 81.063 57.369 81.1587 57.5331C81.3022 57.73 81.4458 57.9598 81.5415 58.1567C81.6372 58.2224 81.6372 58.2552 81.6372 58.288ZM81.3022 62.7192C81.3022 62.7848 81.3022 62.8177 81.2544 62.8833C81.1108 63.0802 80.9194 63.2772 80.7759 63.4741C80.6323 63.6382 80.3452 63.6711 80.106 63.5726C79.8668 63.4741 79.8189 63.2772 79.9625 63.1131C80.106 62.9489 80.2974 62.752 80.3931 62.5879C80.5366 62.4238 80.8237 62.3581 81.0151 62.4566C81.2065 62.4894 81.3022 62.6207 81.3022 62.7192ZM79.5797 56.1217C79.5797 56.2202 79.5318 56.2858 79.4361 56.3514C79.2447 56.4827 78.9576 56.4827 78.7662 56.3514C78.5749 56.2202 78.3356 56.056 78.0964 55.9247C77.905 55.8263 77.8571 55.5965 78.0485 55.4652C78.2399 55.3339 78.527 55.3011 78.7184 55.4324C78.9576 55.5637 79.2447 55.7278 79.4361 55.8919C79.5318 55.9576 79.5797 56.056 79.5797 56.1217ZM78.9098 64.7214C78.9098 64.8199 78.8619 64.9183 78.7184 64.984C78.4792 65.1153 78.1921 65.2794 77.905 65.3779C77.6657 65.4763 77.3786 65.4435 77.2351 65.2794C77.0916 65.1153 77.1394 64.9183 77.3786 64.8199C77.6179 64.6886 77.8571 64.5901 78.0964 64.4588C78.2878 64.3275 78.6227 64.3603 78.7662 64.4916C78.8619 64.5901 78.9098 64.6558 78.9098 64.7214ZM76.4695 54.6775C76.4695 54.7103 76.4695 54.7759 76.4217 54.8087C76.326 54.9729 76.0389 55.0385 75.7996 54.9729C75.5126 54.8744 75.2255 54.8087 74.9384 54.7431C74.6991 54.6775 74.5556 54.5133 74.6513 54.3164C74.747 54.1523 74.9862 54.0538 75.2733 54.1195C75.6083 54.1851 75.8953 54.2836 76.1824 54.3492C76.3738 54.4477 76.4695 54.5462 76.4695 54.6775ZM75.6083 66.0015C75.6083 66.1328 75.4647 66.2641 75.2733 66.2969C74.9862 66.3626 74.6513 66.4282 74.3163 66.4939C74.0771 66.5267 73.79 66.4282 73.7422 66.2641C73.6943 66.1 73.8379 65.903 74.0771 65.8702C74.3642 65.8046 74.6513 65.7718 74.9384 65.7061C75.1776 65.6405 75.4647 65.7389 75.5604 65.903C75.6083 65.903 75.6083 65.9359 75.6083 66.0015ZM72.7852 54.0538C72.7852 54.0866 72.7852 54.0866 72.7852 54.0538C72.7852 54.2508 72.546 54.382 72.2589 54.382C71.9718 54.382 71.6847 54.3492 71.3976 54.3492C71.1105 54.3492 70.9191 54.2179 70.9191 54.021C70.9191 53.824 71.1105 53.6928 71.3976 53.6928V53.6928C71.7325 53.6928 72.0196 53.6928 72.3546 53.7256C72.5938 53.7584 72.7852 53.8897 72.7852 54.0538ZM71.8761 66.3954C71.8761 66.5923 71.6847 66.7236 71.3976 66.7236C71.0627 66.7236 70.7277 66.7236 70.4406 66.6908C70.2014 66.6908 69.9621 66.5267 70.01 66.3298C70.01 66.1328 70.2492 66.0015 70.5363 66.0343C70.8234 66.0343 71.1584 66.0672 71.4454 66.0672C71.6847 66.0672 71.8761 66.2313 71.8761 66.3954ZM69.0052 54.2836C69.0052 54.4149 68.8616 54.579 68.6224 54.6118C68.3353 54.6775 68.0482 54.7103 67.7611 54.7759C67.5219 54.8416 67.2348 54.7431 67.1391 54.579C67.0434 54.4149 67.1869 54.2179 67.4262 54.1523C67.7133 54.0866 68.0482 54.021 68.3831 53.9553C68.6224 53.9225 68.9095 54.021 68.9573 54.1851C69.0052 54.2179 69.0052 54.2508 69.0052 54.2836ZM68.1439 66.0015C68.1439 66.0343 68.1439 66.0672 68.0961 66.1C68.0004 66.2641 67.7611 66.3626 67.474 66.2969C67.1869 66.2313 66.852 66.1328 66.5649 66.0672C66.3257 66.0015 66.23 65.8046 66.3257 65.6405C66.4214 65.4763 66.7084 65.4107 66.9477 65.4763C67.2348 65.5748 67.5219 65.6405 67.809 65.7061C68.0482 65.7389 68.1439 65.8702 68.1439 66.0015ZM65.5601 55.3339C65.5601 55.4324 65.4644 55.5309 65.3687 55.5965C65.1294 55.7278 64.8902 55.8263 64.651 55.9576C64.4596 56.0889 64.1246 56.056 63.9811 55.9247C63.7897 55.7935 63.8375 55.5637 64.0289 55.4652C64.2682 55.3339 64.5553 55.1698 64.8424 55.0713C65.0816 54.9729 65.3687 55.0057 65.5122 55.1698C65.5601 55.2026 65.5601 55.2683 65.5601 55.3339ZM64.8424 64.7542C64.8424 64.8199 64.7945 64.8855 64.7467 64.9512C64.6031 65.0825 64.2682 65.1153 64.0768 64.984C63.8375 64.8527 63.5505 64.6886 63.3591 64.5245C63.1677 64.3932 63.1677 64.1962 63.3591 64.0649C63.5505 63.9336 63.8375 63.9336 64.0289 64.0649C64.2203 64.1962 64.4596 64.3604 64.6988 64.4916C64.7945 64.5573 64.8424 64.6558 64.8424 64.7542ZM62.9284 57.172C62.9284 57.2377 62.8806 57.3033 62.8327 57.3361C62.6892 57.5003 62.4978 57.6972 62.4021 57.8613C62.3064 58.0254 61.9715 58.0911 61.7801 57.9926C61.5408 57.927 61.4451 57.73 61.5887 57.5659C61.7322 57.369 61.9236 57.172 62.0672 56.9751C62.2107 56.811 62.4978 56.7782 62.737 56.8766C62.8327 56.9423 62.9284 57.0736 62.9284 57.172ZM62.4499 62.752C62.4499 62.8833 62.3542 62.9818 62.2107 63.0474C61.9715 63.1459 61.6844 63.0802 61.5887 62.9161C61.4451 62.7192 61.3016 62.4894 61.2059 62.2925C61.1102 62.1284 61.2537 61.9314 61.493 61.8658C61.7322 61.8001 62.0193 61.8986 62.115 62.0627C62.2107 62.2597 62.3542 62.4566 62.4978 62.6207C62.4499 62.6535 62.4499 62.6864 62.4499 62.752ZM61.6365 59.601L61.6365 59.6338C61.5887 59.8307 61.5887 60.0277 61.5887 60.2246C61.5887 60.4215 61.3973 60.5528 61.1102 60.5528C60.8231 60.5528 60.6317 60.4215 60.6317 60.2246C60.6317 59.9948 60.6317 59.7651 60.6795 59.5681C60.7274 59.404 60.9666 59.2727 61.2059 59.2727C61.4451 59.2727 61.6365 59.4368 61.6365 59.601Z" fill="#FFBFCD"/>
<path d="M71.8761 68.2663L71.8761 70.2357C72.211 70.2357 72.4981 70.2029 72.8331 70.2029L72.8331 68.2335C72.4981 68.2335 72.211 68.2663 71.8761 68.2663Z" fill="#F48BA2"/>
<path d="M69.4837 68.2007L69.4837 70.1701C69.8186 70.2029 70.1057 70.2029 70.4407 70.2357L70.4407 68.2663C70.1057 68.2335 69.8186 68.2335 69.4837 68.2007Z" fill="#F48BA2"/>
<path d="M74.2685 68.1023L74.2685 70.0717C74.6034 70.0388 74.8905 69.9732 75.2255 69.9075L75.2255 67.9381C74.8905 68.0038 74.6034 68.0366 74.2685 68.1023Z" fill="#F48BA2"/>
<path d="M76.6609 67.6427L76.6609 69.6121C76.9959 69.5136 77.2829 69.4479 77.6179 69.3495L77.6179 67.3801C77.2829 67.4457 76.9959 67.5442 76.6609 67.6427Z" fill="#F48BA2"/>
<path d="M67.0913 67.8396L67.0913 69.809C67.4262 69.8747 67.7133 69.9403 68.0482 69.9731L68.0482 68.0037C67.7133 67.9709 67.4262 67.9053 67.0913 67.8396Z" fill="#F48BA2"/>
<path d="M64.6989 67.1832L64.6989 69.1526C65.0338 69.2511 65.3209 69.3495 65.6558 69.448L65.6558 67.4786C65.3209 67.4129 65.0338 67.3145 64.6989 67.1832Z" fill="#F48BA2"/>
<path d="M61.8279 65.87L61.8279 67.8394C62.115 68.0364 62.4499 68.2005 62.7849 68.3646L62.7849 66.3952C62.4499 66.2311 62.115 66.0342 61.8279 65.87Z" fill="#F48BA2"/>
<path d="M59.4355 63.8351L59.4355 65.8045C59.7226 66.1327 60.0575 66.4609 60.3925 66.7563L60.3925 64.7869C60.0575 64.4915 59.7226 64.1961 59.4355 63.8351Z" fill="#F48BA2"/>
<path d="M79.5319 66.6252L79.5319 68.5946C79.8668 68.4305 80.2017 68.2664 80.4888 68.1023L80.4888 66.1329C80.2017 66.297 79.8668 66.4611 79.5319 66.6252Z" fill="#F48BA2"/>
<path d="M81.9243 67.1831C82.2592 66.9205 82.5941 66.6579 82.8812 66.3625L82.8812 64.3931C82.5941 64.6885 82.2592 64.9511 81.9243 65.2137L81.9243 67.1831Z" fill="#F48BA2"/>
<path d="M73.8762 59.733L73.8762 61.0232L75.2255 61.0232L75.2255 62.0329L73.8762 62.0329L73.8762 62.8542L72.6905 62.8542L72.6905 62.0329L72.0655 62.0329L72.0655 62.8542L70.8798 62.8542L70.8798 62.0329L66.7211 62.0329L66.7211 59.8011C66.7211 59.1573 66.9665 58.6431 67.4571 58.2585C67.9438 57.8738 68.5922 57.6815 69.4021 57.6815C70.2276 57.6815 70.876 57.8645 71.3471 58.2304C71.8144 58.5964 72.0539 59.1053 72.0655 59.757L72.0655 61.0232L72.6905 61.0232L72.6905 59.733L73.8762 59.733ZM70.8798 61.0232L70.8798 59.8171C70.8798 59.4538 70.7572 59.176 70.5119 58.9837C70.2666 58.7914 69.9005 58.6952 69.4138 58.6952C68.9777 58.6952 68.6214 58.7901 68.3449 58.9797C68.0684 59.1667 67.9244 59.4258 67.9127 59.757L67.9127 61.0232L70.8798 61.0232Z" fill="#F48BA2"/>
<path d="M84.7952 58.103C84.7952 62.5342 78.8141 66.1448 71.3976 66.1448C63.9811 66.1448 58.0001 62.5342 58.0001 58.103C58.0001 53.6719 63.9811 50.0613 71.3976 50.0613C78.8141 50.0613 84.7952 53.6719 84.7952 58.103Z" fill="white"/>
<path d="M71.3976 66.1447C64.5553 66.1447 58.9092 63.0593 58.0957 59.0877C58.0479 59.4159 58 59.7442 58 60.0724C58 64.5036 63.9811 68.1141 71.3976 68.1141C78.8141 68.1141 84.7951 64.5036 84.7951 60.0724C84.7951 59.7442 84.7473 59.4159 84.6994 59.0877C83.886 63.0593 78.2399 66.1447 71.3976 66.1447Z" fill="#FFBFCD"/>
<path d="M82.1635 58.0702C82.1635 58.3328 82.1635 58.5626 82.1157 58.7923C82.0678 58.9564 81.8286 59.0877 81.5893 59.0877C81.3501 59.0549 81.1587 58.8908 81.1587 58.7267C81.2065 58.5297 81.2065 58.3328 81.2065 58.103C81.2065 57.9061 81.3979 57.7748 81.685 57.7748C81.9721 57.7748 82.1635 57.9061 82.1635 58.0702ZM81.6372 56.1664C81.6372 56.2977 81.5415 56.429 81.3501 56.4619C81.1109 56.5275 80.8238 56.429 80.7281 56.2649C80.6324 56.068 80.4888 55.871 80.3453 55.7069C80.2017 55.5428 80.2974 55.3459 80.5367 55.2802C80.7759 55.1817 81.063 55.2474 81.1587 55.4115C81.3022 55.6084 81.4458 55.8382 81.5415 56.0352C81.6372 56.1008 81.6372 56.1336 81.6372 56.1664ZM81.3022 60.5976C81.3022 60.6632 81.3022 60.6961 81.2544 60.7617C81.1109 60.9587 80.9195 61.1556 80.7759 61.3525C80.6324 61.5167 80.3453 61.5495 80.106 61.451C79.8668 61.3525 79.8189 61.1556 79.9625 60.9915C80.106 60.8274 80.2974 60.6304 80.3931 60.4663C80.5367 60.3022 80.8238 60.2365 81.0152 60.335C81.2065 60.3678 81.3022 60.4991 81.3022 60.5976ZM79.5797 54.0001C79.5797 54.0986 79.5319 54.1642 79.4362 54.2299C79.2448 54.3612 78.9577 54.3612 78.7663 54.2299C78.5749 54.0986 78.3356 53.9345 78.0964 53.8032C77.905 53.7047 77.8572 53.4749 78.0486 53.3436C78.2399 53.2123 78.527 53.1795 78.7184 53.3108C78.9577 53.4421 79.2448 53.6062 79.4362 53.7703C79.5319 53.836 79.5797 53.9345 79.5797 54.0001ZM78.9098 62.5998C78.9098 62.6983 78.862 62.7968 78.7184 62.8624C78.4792 62.9937 78.1921 63.1578 77.905 63.2563C77.6658 63.3548 77.3787 63.3219 77.2351 63.1578C77.0916 62.9937 77.1394 62.7968 77.3787 62.6983C77.6179 62.567 77.8572 62.4685 78.0964 62.3372C78.2878 62.2059 78.6227 62.2388 78.7663 62.3701C78.862 62.4685 78.9098 62.5342 78.9098 62.5998ZM76.4696 52.5559C76.4696 52.5887 76.4696 52.6543 76.4217 52.6872C76.326 52.8513 76.0389 52.9169 75.7997 52.8513C75.5126 52.7528 75.2255 52.6872 74.9384 52.6215C74.6992 52.5559 74.5556 52.3918 74.6513 52.1948C74.747 52.0307 74.9863 51.9322 75.2733 51.9979C75.6083 52.0635 75.8954 52.162 76.1825 52.2276C76.3739 52.3261 76.4696 52.4246 76.4696 52.5559ZM75.6083 63.8799C75.6083 64.0112 75.4647 64.1425 75.2733 64.1753C74.9863 64.241 74.6513 64.3066 74.3164 64.3723C74.0771 64.4051 73.79 64.3066 73.7422 64.1425C73.6943 63.9784 73.8379 63.7815 74.0771 63.7486C74.3642 63.683 74.6513 63.6502 74.9384 63.5845C75.1776 63.5189 75.4647 63.6173 75.5604 63.7815C75.6083 63.7815 75.6083 63.8143 75.6083 63.8799ZM72.7852 51.9322C72.7852 51.9651 72.7852 51.9651 72.7852 51.9322C72.7852 52.1292 72.546 52.2605 72.2589 52.2605C71.9718 52.2605 71.6847 52.2276 71.3976 52.2276C71.1105 52.2276 70.9191 52.0963 70.9191 51.8994C70.9191 51.7025 71.1105 51.5712 71.3976 51.5712V51.5712C71.7326 51.5712 72.0197 51.5712 72.3546 51.604C72.5938 51.6368 72.7852 51.7681 72.7852 51.9322ZM71.8761 64.2738C71.8761 64.4708 71.6847 64.6021 71.3976 64.6021C71.0627 64.6021 70.7277 64.6021 70.4407 64.5692C70.2014 64.5692 69.9622 64.4051 70.01 64.2082C70.01 64.0112 70.2493 63.8799 70.5364 63.9128C70.8234 63.9128 71.1584 63.9456 71.4455 63.9456C71.6847 63.9456 71.8761 64.1097 71.8761 64.2738ZM69.0052 52.162C69.0052 52.2933 68.8617 52.4574 68.6224 52.4902C68.3353 52.5559 68.0482 52.5887 67.7611 52.6543C67.5219 52.72 67.2348 52.6215 67.1391 52.4574C67.0434 52.2933 67.187 52.0963 67.4262 52.0307C67.7133 51.9651 68.0482 51.8994 68.3832 51.8338C68.6224 51.8009 68.9095 51.8994 68.9574 52.0635C69.0052 52.0963 69.0052 52.1292 69.0052 52.162ZM68.1439 63.8799C68.1439 63.9128 68.1439 63.9456 68.0961 63.9784C68.0004 64.1425 67.7611 64.241 67.4741 64.1753C67.187 64.1097 66.852 64.0112 66.5649 63.9456C66.3257 63.8799 66.23 63.683 66.3257 63.5189C66.4214 63.3548 66.7085 63.2891 66.9477 63.3548C67.2348 63.4532 67.5219 63.5189 67.809 63.5845C68.0482 63.6173 68.1439 63.7486 68.1439 63.8799ZM65.5601 53.2123C65.5601 53.3108 65.4644 53.4093 65.3687 53.4749C65.1295 53.6062 64.8902 53.7047 64.651 53.836C64.4596 53.9673 64.1247 53.9345 63.9811 53.8032C63.7897 53.6719 63.8376 53.4421 64.029 53.3436C64.2682 53.2123 64.5553 53.0482 64.8424 52.9498C65.0816 52.8513 65.3687 52.8841 65.5123 53.0482C65.5601 53.081 65.5601 53.1467 65.5601 53.2123ZM64.8424 62.6326C64.8424 62.6983 64.7945 62.7639 64.7467 62.8296C64.6031 62.9609 64.2682 62.9937 64.0768 62.8624C63.8376 62.7311 63.5505 62.567 63.3591 62.4029C63.1677 62.2716 63.1677 62.0747 63.3591 61.9434C63.5505 61.8121 63.8376 61.8121 64.029 61.9434C64.2204 62.0747 64.4596 62.2388 64.6988 62.3701C64.7945 62.4357 64.8424 62.5342 64.8424 62.6326ZM62.9285 55.0505C62.9285 55.1161 62.8806 55.1817 62.8328 55.2146C62.6892 55.3787 62.4978 55.5756 62.4021 55.7397C62.3064 55.9039 61.9715 55.9695 61.7801 55.871C61.5408 55.8054 61.4452 55.6084 61.5887 55.4443C61.7322 55.2474 61.9236 55.0505 62.0672 54.8535C62.2107 54.6894 62.4978 54.6566 62.7371 54.755C62.8328 54.8207 62.9285 54.952 62.9285 55.0505ZM62.45 60.6304C62.45 60.7617 62.3543 60.8602 62.2107 60.9258C61.9715 61.0243 61.6844 60.9587 61.5887 60.7945C61.4452 60.5976 61.3016 60.3678 61.2059 60.1709C61.1102 60.0068 61.2538 59.8098 61.493 59.7442C61.7322 59.6785 62.0193 59.777 62.115 59.9411C62.2107 60.1381 62.3543 60.335 62.4978 60.4991C62.45 60.532 62.45 60.5648 62.45 60.6304ZM61.6365 57.4794L61.6365 57.5122C61.5887 57.7091 61.5887 57.9061 61.5887 58.103C61.5887 58.3 61.3973 58.4313 61.1102 58.4313C60.8231 58.4313 60.6317 58.3 60.6317 58.103C60.6317 57.8733 60.6317 57.6435 60.6796 57.4466C60.7274 57.2824 60.9667 57.1511 61.2059 57.1511C61.4452 57.1511 61.6365 57.3153 61.6365 57.4794Z" fill="#FFBFCD"/>
<path d="M71.8761 66.1447L71.8761 68.1141C72.2111 68.1141 72.4982 68.0813 72.8331 68.0813L72.8331 66.1119C72.4982 66.1119 72.2111 66.1447 71.8761 66.1447Z" fill="#F48BA2"/>
<path d="M69.4837 66.0791L69.4837 68.0485C69.8187 68.0813 70.1057 68.0813 70.4407 68.1141L70.4407 66.1447C70.1057 66.1119 69.8187 66.1119 69.4837 66.0791Z" fill="#F48BA2"/>
<path d="M74.2685 65.9807L74.2685 67.9501C74.6035 67.9172 74.8906 67.8516 75.2255 67.786L75.2255 65.8166C74.8906 65.8822 74.6035 65.915 74.2685 65.9807Z" fill="#F48BA2"/>
<path d="M76.6609 65.5212L76.6609 67.4906C76.9959 67.3921 77.283 67.3265 77.6179 67.228L77.6179 65.2586C77.283 65.3243 76.9959 65.4227 76.6609 65.5212Z" fill="#F48BA2"/>
<path d="M67.0913 65.7182L67.0913 67.6876C67.4262 67.7532 67.7133 67.8189 68.0483 67.8517L68.0483 65.8823C67.7133 65.8495 67.4262 65.7838 67.0913 65.7182Z" fill="#F48BA2"/>
<path d="M64.6989 65.0616L64.6989 67.031C65.0338 67.1295 65.3209 67.2279 65.6559 67.3264L65.6559 65.357C65.3209 65.2914 65.0338 65.1929 64.6989 65.0616Z" fill="#F48BA2"/>
<path d="M61.8279 63.7487L61.8279 65.7181C62.115 65.9151 62.45 66.0792 62.7849 66.2433L62.7849 64.2739C62.45 64.1098 62.115 63.9128 61.8279 63.7487Z" fill="#F48BA2"/>
<path d="M59.4355 61.7136L59.4355 63.683C59.7226 64.0112 60.0576 64.3395 60.3925 64.6349L60.3925 62.6655C60.0576 62.3701 59.7226 62.0747 59.4355 61.7136Z" fill="#F48BA2"/>
<path d="M79.5319 64.5037L79.5319 66.4731C79.8668 66.309 80.2018 66.1449 80.4889 65.9808L80.4889 64.0114C80.2018 64.1755 79.8668 64.3396 79.5319 64.5037Z" fill="#F48BA2"/>
<path d="M81.9243 65.0616C82.2592 64.7991 82.5942 64.5365 82.8813 64.2411L82.8813 62.2717C82.5942 62.5671 82.2592 62.8297 81.9243 63.0922L81.9243 65.0616Z" fill="#F48BA2"/>
<path d="M73.8762 57.6115L73.8762 58.9017L75.2255 58.9017L75.2255 59.9114L73.8762 59.9114L73.8762 60.7328L72.6905 60.7328L72.6905 59.9114L72.0656 59.9114L72.0656 60.7328L70.8799 60.7328L70.8799 59.9114L66.7212 59.9114L66.7212 57.6796C66.7212 57.0359 66.9665 56.5217 67.4571 56.137C67.9439 55.7524 68.5922 55.5601 69.4021 55.5601C70.2276 55.5601 70.876 55.743 71.3471 56.109C71.8144 56.4749 72.0539 56.9838 72.0656 57.6356L72.0656 58.9017L72.6905 58.9017L72.6905 57.6115L73.8762 57.6115ZM70.8799 58.9017L70.8799 57.6957C70.8799 57.3324 70.7572 57.0546 70.5119 56.8623C70.2666 56.6699 69.9006 56.5738 69.4138 56.5738C68.9777 56.5738 68.6214 56.6686 68.3449 56.8583C68.0685 57.0452 67.9244 57.3043 67.9127 57.6356L67.9127 58.9017L70.8799 58.9017Z" fill="#F48BA2"/>
<path d="M84.7951 55.9729C84.7951 60.4041 78.8141 64.0146 71.3976 64.0146C63.9811 64.0146 58 60.4041 58 55.9729C58 51.5418 63.9811 47.9312 71.3976 47.9312C78.8141 47.9312 84.7951 51.5418 84.7951 55.9729Z" fill="white"/>
<path d="M71.3976 64.0146C64.5552 64.0146 58.9091 60.9292 58.0957 56.9576C58.0478 57.2858 58 57.614 58 57.9423C58 62.3734 63.9811 65.984 71.3976 65.984C78.8141 65.984 84.7951 62.3734 84.7951 57.9423C84.7951 57.614 84.7473 57.2858 84.6994 56.9576C83.886 60.9292 78.2399 64.0146 71.3976 64.0146Z" fill="#FFBFCD"/>
<path d="M82.1635 55.9401C82.1635 56.2027 82.1635 56.4324 82.1156 56.6622C82.0678 56.8263 81.8285 56.9576 81.5893 56.9576C81.3501 56.9248 81.1587 56.7607 81.1587 56.5965C81.2065 56.3996 81.2065 56.2027 81.2065 55.9729C81.2065 55.776 81.3979 55.6447 81.685 55.6447C81.9721 55.6447 82.1635 55.776 82.1635 55.9401ZM81.6372 54.0363C81.6372 54.1676 81.5415 54.2989 81.3501 54.3317C81.1108 54.3974 80.8237 54.2989 80.728 54.1348C80.6323 53.9378 80.4888 53.7409 80.3452 53.5768C80.2017 53.4127 80.2974 53.2157 80.5366 53.1501C80.7759 53.0516 81.063 53.1173 81.1587 53.2814C81.3022 53.4783 81.4458 53.7081 81.5415 53.905C81.6372 53.9707 81.6372 54.0035 81.6372 54.0363ZM81.3022 58.4675C81.3022 58.5331 81.3022 58.5659 81.2544 58.6316C81.1108 58.8285 80.9194 59.0255 80.7759 59.2224C80.6323 59.3865 80.3452 59.4194 80.106 59.3209C79.8668 59.2224 79.8189 59.0255 79.9625 58.8614C80.106 58.6972 80.2974 58.5003 80.3931 58.3362C80.5366 58.1721 80.8237 58.1064 81.0151 58.2049C81.2065 58.2377 81.3022 58.369 81.3022 58.4675ZM79.5797 51.87C79.5797 51.9684 79.5318 52.0341 79.4361 52.0997C79.2447 52.231 78.9576 52.231 78.7662 52.0997C78.5749 51.9684 78.3356 51.8043 78.0964 51.673C77.905 51.5746 77.8571 51.3448 78.0485 51.2135C78.2399 51.0822 78.527 51.0494 78.7184 51.1807C78.9576 51.312 79.2447 51.4761 79.4361 51.6402C79.5318 51.7059 79.5797 51.8043 79.5797 51.87ZM78.9098 60.4697C78.9098 60.5682 78.8619 60.6666 78.7184 60.7323C78.4792 60.8636 78.1921 61.0277 77.905 61.1262C77.6657 61.2246 77.3786 61.1918 77.2351 61.0277C77.0916 60.8636 77.1394 60.6666 77.3786 60.5682C77.6179 60.4369 77.8571 60.3384 78.0964 60.2071C78.2878 60.0758 78.6227 60.1086 78.7662 60.2399C78.8619 60.3384 78.9098 60.4041 78.9098 60.4697ZM76.4695 50.4257C76.4695 50.4586 76.4695 50.5242 76.4217 50.557C76.326 50.7212 76.0389 50.7868 75.7996 50.7212C75.5126 50.6227 75.2255 50.557 74.9384 50.4914C74.6991 50.4257 74.5556 50.2616 74.6513 50.0647C74.747 49.9006 74.9862 49.8021 75.2733 49.8678C75.6083 49.9334 75.8953 50.0319 76.1824 50.0975C76.3738 50.196 76.4695 50.2945 76.4695 50.4257ZM75.6083 61.7498C75.6083 61.8811 75.4647 62.0124 75.2733 62.0452C74.9862 62.1109 74.6513 62.1765 74.3163 62.2422C74.0771 62.275 73.79 62.1765 73.7422 62.0124C73.6943 61.8483 73.8379 61.6513 74.0771 61.6185C74.3642 61.5529 74.6513 61.52 74.9384 61.4544C75.1776 61.3888 75.4647 61.4872 75.5604 61.6513C75.6083 61.6513 75.6083 61.6842 75.6083 61.7498ZM72.7852 49.8021C72.7852 49.8349 72.7852 49.8349 72.7852 49.8021C72.7852 49.999 72.546 50.1303 72.2589 50.1303C71.9718 50.1303 71.6847 50.0975 71.3976 50.0975C71.1105 50.0975 70.9191 49.9662 70.9191 49.7693C70.9191 49.5723 71.1105 49.441 71.3976 49.441V49.441C71.7325 49.441 72.0196 49.441 72.3546 49.4739C72.5938 49.5067 72.7852 49.638 72.7852 49.8021ZM71.8761 62.1437C71.8761 62.3406 71.6847 62.4719 71.3976 62.4719C71.0627 62.4719 70.7277 62.4719 70.4406 62.4391C70.2014 62.4391 69.9621 62.275 70.01 62.078C70.01 61.8811 70.2492 61.7498 70.5363 61.7826C70.8234 61.7826 71.1584 61.8155 71.4454 61.8155C71.6847 61.8155 71.8761 61.9796 71.8761 62.1437ZM69.0052 50.0319C69.0052 50.1632 68.8616 50.3273 68.6224 50.3601C68.3353 50.4257 68.0482 50.4586 67.7611 50.5242C67.5219 50.5899 67.2348 50.4914 67.1391 50.3273C67.0434 50.1632 67.1869 49.9662 67.4262 49.9006C67.7133 49.8349 68.0482 49.7693 68.3831 49.7036C68.6224 49.6708 68.9095 49.7693 68.9573 49.9334C69.0052 49.9662 69.0052 49.999 69.0052 50.0319ZM68.1439 61.7498C68.1439 61.7826 68.1439 61.8155 68.0961 61.8483C68.0004 62.0124 67.7611 62.1109 67.474 62.0452C67.1869 61.9796 66.852 61.8811 66.5649 61.8155C66.3257 61.7498 66.23 61.5529 66.3257 61.3888C66.4214 61.2246 66.7084 61.159 66.9477 61.2246C67.2348 61.3231 67.5219 61.3888 67.809 61.4544C68.0482 61.4872 68.1439 61.6185 68.1439 61.7498ZM65.5601 51.0822C65.5601 51.1807 65.4644 51.2792 65.3687 51.3448C65.1294 51.4761 64.8902 51.5746 64.651 51.7059C64.4596 51.8372 64.1246 51.8043 63.9811 51.673C63.7897 51.5417 63.8375 51.312 64.0289 51.2135C64.2682 51.0822 64.5553 50.9181 64.8424 50.8196C65.0816 50.7212 65.3687 50.754 65.5122 50.9181C65.5601 50.9509 65.5601 51.0166 65.5601 51.0822ZM64.8424 60.5025C64.8424 60.5682 64.7945 60.6338 64.7467 60.6995C64.6031 60.8308 64.2682 60.8636 64.0768 60.7323C63.8375 60.601 63.5505 60.4369 63.3591 60.2728C63.1677 60.1415 63.1677 59.9445 63.3591 59.8132C63.5505 59.6819 63.8375 59.6819 64.0289 59.8132C64.2203 59.9445 64.4596 60.1086 64.6988 60.2399C64.7945 60.3056 64.8424 60.4041 64.8424 60.5025ZM62.9284 52.9203C62.9284 52.986 62.8806 53.0516 62.8327 53.0844C62.6892 53.2486 62.4978 53.4455 62.4021 53.6096C62.3064 53.7737 61.9715 53.8394 61.7801 53.7409C61.5408 53.6753 61.4451 53.4783 61.5887 53.3142C61.7322 53.1173 61.9236 52.9203 62.0672 52.7234C62.2107 52.5593 62.4978 52.5264 62.737 52.6249C62.8327 52.6906 62.9284 52.8219 62.9284 52.9203ZM62.4499 58.5003C62.4499 58.6316 62.3542 58.7301 62.2107 58.7957C61.9715 58.8942 61.6844 58.8285 61.5887 58.6644C61.4451 58.4675 61.3016 58.2377 61.2059 58.0408C61.1102 57.8767 61.2537 57.6797 61.493 57.6141C61.7322 57.5484 62.0193 57.6469 62.115 57.811C62.2107 58.0079 62.3542 58.2049 62.4978 58.369C62.4499 58.4018 62.4499 58.4346 62.4499 58.5003ZM61.6365 55.3493L61.6365 55.3821C61.5887 55.579 61.5887 55.776 61.5887 55.9729C61.5887 56.1698 61.3973 56.3011 61.1102 56.3011C60.8231 56.3011 60.6317 56.1698 60.6317 55.9729C60.6317 55.7431 60.6317 55.5134 60.6795 55.3164C60.7274 55.1523 60.9666 55.021 61.2059 55.021C61.4451 55.021 61.6365 55.1851 61.6365 55.3493Z" fill="#FFBFCD"/>
<path d="M71.8761 64.0146L71.8761 65.984C72.211 65.984 72.4981 65.9512 72.8331 65.9512L72.8331 63.9818C72.4981 63.9818 72.211 64.0146 71.8761 64.0146Z" fill="#F48BA2"/>
<path d="M69.4837 63.949L69.4837 65.9184C69.8186 65.9512 70.1057 65.9512 70.4407 65.984L70.4407 64.0146C70.1057 63.9818 69.8186 63.9818 69.4837 63.949Z" fill="#F48BA2"/>
<path d="M74.2685 63.8507L74.2685 65.8201C74.6034 65.7872 74.8905 65.7216 75.2255 65.656L75.2255 63.6865C74.8905 63.7522 74.6034 63.785 74.2685 63.8507Z" fill="#F48BA2"/>
<path d="M76.6609 63.3909L76.6609 65.3604C76.9959 65.2619 77.2829 65.1962 77.6179 65.0978L77.6179 63.1284C77.2829 63.194 76.9959 63.2925 76.6609 63.3909Z" fill="#F48BA2"/>
<path d="M67.0913 63.5879L67.0913 65.5573C67.4262 65.623 67.7133 65.6886 68.0482 65.7214L68.0482 63.752C67.7133 63.7192 67.4262 63.6536 67.0913 63.5879Z" fill="#F48BA2"/>
<path d="M64.6989 62.9315L64.6989 64.9009C65.0338 64.9993 65.3209 65.0978 65.6558 65.1963L65.6558 63.2269C65.3209 63.1612 65.0338 63.0628 64.6989 62.9315Z" fill="#F48BA2"/>
<path d="M61.8279 61.6186L61.8279 63.588C62.115 63.7849 62.4499 63.949 62.7849 64.1132L62.7849 62.1438C62.4499 61.9796 62.115 61.7827 61.8279 61.6186Z" fill="#F48BA2"/>
<path d="M59.4355 59.5835L59.4355 61.5529C59.7226 61.8811 60.0575 62.2094 60.3925 62.5048L60.3925 60.5354C60.0575 60.2399 59.7226 59.9445 59.4355 59.5835Z" fill="#F48BA2"/>
<path d="M79.5319 62.3735L79.5319 64.3429C79.8668 64.1788 80.2017 64.0147 80.4888 63.8505L80.4888 61.8811C80.2017 62.0453 79.8668 62.2094 79.5319 62.3735Z" fill="#F48BA2"/>
<path d="M81.9243 62.9316C82.2592 62.6691 82.5941 62.4065 82.8812 62.1111L82.8812 60.1417C82.5941 60.4371 82.2592 60.6997 81.9243 60.9622L81.9243 62.9316Z" fill="#F48BA2"/>
<path d="M73.8762 55.4814L73.8762 56.7716L75.2255 56.7716L75.2255 57.7813L73.8762 57.7813L73.8762 58.6027L72.6905 58.6027L72.6905 57.7813L72.0655 57.7813L72.0655 58.6027L70.8798 58.6027L70.8798 57.7813L66.7211 57.7813L66.7211 55.5495C66.7211 54.9058 66.9665 54.3916 67.4571 54.0069C67.9438 53.6223 68.5922 53.4299 69.4021 53.4299C70.2276 53.4299 70.876 53.6129 71.3471 53.9789C71.8144 54.3448 72.0539 54.8537 72.0655 55.5054L72.0655 56.7716L72.6905 56.7716L72.6905 55.4814L73.8762 55.4814ZM70.8798 56.7716L70.8798 55.5655C70.8798 55.2023 70.7572 54.9245 70.5119 54.7321C70.2666 54.5398 69.9005 54.4436 69.4138 54.4436C68.9777 54.4436 68.6214 54.5385 68.3449 54.7281C68.0684 54.9151 67.9244 55.1742 67.9127 55.5054L67.9127 56.7716L70.8798 56.7716Z" fill="#F48BA2"/>
<path d="M84.7952 53.8513C84.7952 58.2825 78.8141 61.8931 71.3976 61.8931C63.9811 61.8931 58.0001 58.2825 58.0001 53.8513C58.0001 49.4202 63.9811 45.8096 71.3976 45.8096C78.8141 45.8096 84.7952 49.4202 84.7952 53.8513Z" fill="white"/>
<path d="M71.3976 61.8931C64.5553 61.8931 58.9092 58.8078 58.0957 54.8361C58.0479 55.1644 58 55.4926 58 55.8208C58 60.252 63.9811 63.8625 71.3976 63.8625C78.8141 63.8625 84.7951 60.252 84.7951 55.8208C84.7951 55.4926 84.7473 55.1644 84.6994 54.8361C83.886 58.8077 78.2399 61.8931 71.3976 61.8931Z" fill="#FFBFCD"/>
<path d="M82.1635 53.8186C82.1635 54.0812 82.1635 54.311 82.1157 54.5407C82.0678 54.7048 81.8286 54.8361 81.5893 54.8361C81.3501 54.8033 81.1587 54.6392 81.1587 54.4751C81.2065 54.2781 81.2065 54.0812 81.2065 53.8514C81.2065 53.6545 81.3979 53.5232 81.685 53.5232C81.9721 53.5232 82.1635 53.6545 82.1635 53.8186ZM81.6372 51.9149C81.6372 52.0462 81.5415 52.1774 81.3501 52.2103C81.1109 52.2759 80.8238 52.1774 80.7281 52.0133C80.6324 51.8164 80.4888 51.6194 80.3453 51.4553C80.2017 51.2912 80.2974 51.0943 80.5367 51.0286C80.7759 50.9302 81.063 50.9958 81.1587 51.1599C81.3022 51.3569 81.4458 51.5866 81.5415 51.7836C81.6372 51.8492 81.6372 51.882 81.6372 51.9149ZM81.3022 56.346C81.3022 56.4117 81.3022 56.4445 81.2544 56.5101C81.1109 56.7071 80.9195 56.904 80.7759 57.1009C80.6324 57.2651 80.3453 57.2979 80.106 57.1994C79.8668 57.1009 79.8189 56.904 79.9625 56.7399C80.106 56.5758 80.2974 56.3788 80.3931 56.2147C80.5367 56.0506 80.8238 55.985 81.0152 56.0834C81.2065 56.1162 81.3022 56.2475 81.3022 56.346ZM79.5797 49.7485C79.5797 49.847 79.5319 49.9126 79.4362 49.9783C79.2448 50.1096 78.9577 50.1096 78.7663 49.9783C78.5749 49.847 78.3356 49.6829 78.0964 49.5516C77.905 49.4531 77.8572 49.2233 78.0486 49.092C78.2399 48.9608 78.527 48.9279 78.7184 49.0592C78.9577 49.1905 79.2448 49.3546 79.4362 49.5188C79.5319 49.5844 79.5797 49.6829 79.5797 49.7485ZM78.9098 58.3482C78.9098 58.4467 78.862 58.5452 78.7184 58.6108C78.4792 58.7421 78.1921 58.9062 77.905 59.0047C77.6658 59.1032 77.3787 59.0704 77.2351 58.9062C77.0916 58.7421 77.1394 58.5452 77.3787 58.4467C77.6179 58.3154 77.8572 58.2169 78.0964 58.0857C78.2878 57.9544 78.6227 57.9872 78.7663 58.1185C78.862 58.2169 78.9098 58.2826 78.9098 58.3482ZM76.4696 48.3043C76.4696 48.3371 76.4696 48.4028 76.4217 48.4356C76.326 48.5997 76.0389 48.6653 75.7997 48.5997C75.5126 48.5012 75.2255 48.4356 74.9384 48.3699C74.6992 48.3043 74.5556 48.1402 74.6513 47.9432C74.747 47.7791 74.9863 47.6806 75.2733 47.7463C75.6083 47.8119 75.8954 47.9104 76.1825 47.9761C76.3739 48.0745 76.4696 48.173 76.4696 48.3043ZM75.6083 59.6283C75.6083 59.7596 75.4647 59.8909 75.2733 59.9238C74.9863 59.9894 74.6513 60.0551 74.3164 60.1207C74.0771 60.1535 73.79 60.0551 73.7422 59.8909C73.6943 59.7268 73.8379 59.5299 74.0771 59.4971C74.3642 59.4314 74.6513 59.3986 74.9384 59.3329C75.1776 59.2673 75.4647 59.3658 75.5604 59.5299C75.6083 59.5299 75.6083 59.5627 75.6083 59.6283ZM72.7852 47.6806C72.7852 47.7135 72.7852 47.7135 72.7852 47.6806C72.7852 47.8776 72.546 48.0089 72.2589 48.0089C71.9718 48.0089 71.6847 47.9761 71.3976 47.9761C71.1105 47.9761 70.9191 47.8448 70.9191 47.6478C70.9191 47.4509 71.1105 47.3196 71.3976 47.3196V47.3196C71.7326 47.3196 72.0197 47.3196 72.3546 47.3524C72.5938 47.3852 72.7852 47.5165 72.7852 47.6806ZM71.8761 60.0222C71.8761 60.2192 71.6847 60.3505 71.3976 60.3505C71.0627 60.3505 70.7277 60.3505 70.4407 60.3176C70.2014 60.3176 69.9622 60.1535 70.01 59.9566C70.01 59.7596 70.2493 59.6283 70.5364 59.6612C70.8234 59.6612 71.1584 59.694 71.4455 59.694C71.6847 59.694 71.8761 59.8581 71.8761 60.0222ZM69.0052 47.9104C69.0052 48.0417 68.8617 48.2058 68.6224 48.2386C68.3353 48.3043 68.0482 48.3371 67.7611 48.4028C67.5219 48.4684 67.2348 48.3699 67.1391 48.2058C67.0434 48.0417 67.187 47.8448 67.4262 47.7791C67.7133 47.7135 68.0482 47.6478 68.3832 47.5822C68.6224 47.5494 68.9095 47.6478 68.9574 47.8119C69.0052 47.8448 69.0052 47.8776 69.0052 47.9104ZM68.1439 59.6283C68.1439 59.6612 68.1439 59.694 68.0961 59.7268C68.0004 59.8909 67.7611 59.9894 67.4741 59.9238C67.187 59.8581 66.852 59.7596 66.5649 59.694C66.3257 59.6283 66.23 59.4314 66.3257 59.2673C66.4214 59.1032 66.7085 59.0375 66.9477 59.1032C67.2348 59.2016 67.5219 59.2673 67.809 59.3329C68.0482 59.3658 68.1439 59.4971 68.1439 59.6283ZM65.5601 48.9608C65.5601 49.0592 65.4644 49.1577 65.3687 49.2233C65.1295 49.3546 64.8902 49.4531 64.651 49.5844C64.4596 49.7157 64.1247 49.6829 63.9811 49.5516C63.7897 49.4203 63.8376 49.1905 64.029 49.092C64.2682 48.9608 64.5553 48.7966 64.8424 48.6982C65.0816 48.5997 65.3687 48.6325 65.5123 48.7966C65.5601 48.8295 65.5601 48.8951 65.5601 48.9608ZM64.8424 58.3811C64.8424 58.4467 64.7945 58.5124 64.7467 58.578C64.6031 58.7093 64.2682 58.7421 64.0768 58.6108C63.8376 58.4795 63.5505 58.3154 63.3591 58.1513C63.1677 58.02 63.1677 57.8231 63.3591 57.6918C63.5505 57.5605 63.8376 57.5605 64.029 57.6918C64.2204 57.8231 64.4596 57.9872 64.6988 58.1185C64.7945 58.1841 64.8424 58.2826 64.8424 58.3811ZM62.9285 50.7989C62.9285 50.8645 62.8806 50.9302 62.8328 50.963C62.6892 51.1271 62.4978 51.324 62.4021 51.4882C62.3064 51.6523 61.9715 51.7179 61.7801 51.6194C61.5408 51.5538 61.4452 51.3569 61.5887 51.1927C61.7322 50.9958 61.9236 50.7989 62.0672 50.6019C62.2107 50.4378 62.4978 50.405 62.7371 50.5035C62.8328 50.5691 62.9285 50.7004 62.9285 50.7989ZM62.45 56.3788C62.45 56.5101 62.3543 56.6086 62.2107 56.6742C61.9715 56.7727 61.6844 56.7071 61.5887 56.543C61.4452 56.346 61.3016 56.1162 61.2059 55.9193C61.1102 55.7552 61.2538 55.5583 61.493 55.4926C61.7322 55.427 62.0193 55.5254 62.115 55.6895C62.2107 55.8865 62.3543 56.0834 62.4978 56.2475C62.45 56.2804 62.45 56.3132 62.45 56.3788ZM61.6365 53.2278L61.6365 53.2606C61.5887 53.4576 61.5887 53.6545 61.5887 53.8514C61.5887 54.0484 61.3973 54.1797 61.1102 54.1797C60.8231 54.1797 60.6317 54.0484 60.6317 53.8514C60.6317 53.6217 60.6317 53.3919 60.6796 53.195C60.7274 53.0309 60.9667 52.8996 61.2059 52.8996C61.4452 52.8996 61.6365 53.0637 61.6365 53.2278Z" fill="#FFBFCD"/>
<path d="M71.8761 61.8931L71.8761 63.8625C72.2111 63.8625 72.4982 63.8297 72.8331 63.8297L72.8331 61.8603C72.4982 61.8603 72.2111 61.8931 71.8761 61.8931Z" fill="#F48BA2"/>
<path d="M69.4837 61.8275L69.4837 63.7969C69.8187 63.8297 70.1057 63.8297 70.4407 63.8625L70.4407 61.8931C70.1057 61.8603 69.8187 61.8603 69.4837 61.8275Z" fill="#F48BA2"/>
<path d="M74.2685 61.729L74.2685 63.6984C74.6035 63.6655 74.8906 63.5999 75.2255 63.5342L75.2255 61.5648C74.8906 61.6305 74.6035 61.6633 74.2685 61.729Z" fill="#F48BA2"/>
<path d="M76.6609 61.2695L76.6609 63.2389C76.9959 63.1404 77.283 63.0748 77.6179 62.9763L77.6179 61.0069C77.283 61.0725 76.9959 61.171 76.6609 61.2695Z" fill="#F48BA2"/>
<path d="M67.0913 61.4665L67.0913 63.4359C67.4262 63.5015 67.7133 63.5672 68.0483 63.6L68.0483 61.6306C67.7133 61.5977 67.4262 61.5321 67.0913 61.4665Z" fill="#F48BA2"/>
<path d="M64.6989 60.81L64.6989 62.7794C65.0338 62.8779 65.3209 62.9764 65.6559 63.0748L65.6559 61.1054C65.3209 61.0398 65.0338 60.9413 64.6989 60.81Z" fill="#F48BA2"/>
<path d="M61.8279 59.4969L61.8279 61.4663C62.115 61.6632 62.45 61.8273 62.7849 61.9915L62.7849 60.0221C62.45 59.8579 62.115 59.661 61.8279 59.4969Z" fill="#F48BA2"/>
<path d="M59.4355 57.462L59.4355 59.4314C59.7226 59.7597 60.0576 60.0879 60.3925 60.3833L60.3925 58.4139C60.0576 58.1185 59.7226 57.8231 59.4355 57.462Z" fill="#F48BA2"/>
<path d="M79.5319 60.2519L79.5319 62.2213C79.8668 62.0572 80.2018 61.8931 80.4889 61.729L80.4889 59.7596C80.2018 59.9237 79.8668 60.0878 79.5319 60.2519Z" fill="#F48BA2"/>
<path d="M81.9243 60.8098C82.2592 60.5472 82.5942 60.2846 82.8813 59.9892L82.8813 58.0198C82.5942 58.3152 82.2592 58.5778 81.9243 58.8404L81.9243 60.8098Z" fill="#F48BA2"/>
<path d="M73.8762 53.3599L73.8762 54.6501L75.2255 54.6501L75.2255 55.6598L73.8762 55.6598L73.8762 56.4812L72.6905 56.4812L72.6905 55.6598L72.0656 55.6598L72.0656 56.4812L70.8799 56.4812L70.8799 55.6598L66.7212 55.6598L66.7212 53.4281C66.7212 52.7843 66.9665 52.2701 67.4571 51.8854C67.9439 51.5008 68.5922 51.3085 69.4021 51.3085C70.2276 51.3085 70.876 51.4914 71.3471 51.8574C71.8144 52.2234 72.0539 52.7322 72.0656 53.384L72.0656 54.6501L72.6905 54.6501L72.6905 53.3599L73.8762 53.3599ZM70.8799 54.6501L70.8799 53.4441C70.8799 53.0808 70.7572 52.803 70.5119 52.6107C70.2666 52.4183 69.9006 52.3222 69.4138 52.3222C68.9777 52.3222 68.6214 52.417 68.3449 52.6067C68.0685 52.7936 67.9244 53.0528 67.9127 53.384L67.9127 54.6501L70.8799 54.6501Z" fill="#F48BA2"/>
<path d="M84.7951 51.6444C84.7951 56.0756 78.8141 59.6862 71.3976 59.6862C63.9811 59.6862 58 56.0756 58 51.6444C58 47.2133 63.9811 43.6027 71.3976 43.6027C78.8141 43.6027 84.7951 47.2133 84.7951 51.6444Z" fill="white"/>
<path d="M71.3976 59.6862C64.5552 59.6862 58.9091 56.6008 58.0957 52.6292C58.0478 52.9574 58 53.2857 58 53.6139C58 58.0451 63.9811 61.6556 71.3976 61.6556C78.8141 61.6556 84.7951 58.0451 84.7951 53.6139C84.7951 53.2857 84.7473 52.9574 84.6994 52.6292C83.886 56.6008 78.2399 59.6862 71.3976 59.6862Z" fill="#FFBFCD"/>
<path d="M82.1635 51.6117C82.1635 51.8743 82.1635 52.1041 82.1156 52.3338C82.0678 52.4979 81.8285 52.6292 81.5893 52.6292C81.3501 52.5964 81.1587 52.4323 81.1587 52.2682C81.2065 52.0712 81.2065 51.8743 81.2065 51.6445C81.2065 51.4476 81.3979 51.3163 81.685 51.3163C81.9721 51.3163 82.1635 51.4476 82.1635 51.6117ZM81.6372 49.7079C81.6372 49.8392 81.5415 49.9705 81.3501 50.0034C81.1108 50.069 80.8237 49.9705 80.728 49.8064C80.6323 49.6095 80.4888 49.4125 80.3452 49.2484C80.2017 49.0843 80.2974 48.8874 80.5366 48.8217C80.7759 48.7232 81.063 48.7889 81.1587 48.953C81.3022 49.15 81.4458 49.3797 81.5415 49.5767C81.6372 49.6423 81.6372 49.6751 81.6372 49.7079ZM81.3022 54.1391C81.3022 54.2047 81.3022 54.2376 81.2544 54.3032C81.1108 54.5002 80.9194 54.6971 80.7759 54.894C80.6323 55.0582 80.3452 55.091 80.106 54.9925C79.8668 54.894 79.8189 54.6971 79.9625 54.533C80.106 54.3689 80.2974 54.1719 80.3931 54.0078C80.5366 53.8437 80.8237 53.778 81.0151 53.8765C81.2065 53.9093 81.3022 54.0406 81.3022 54.1391ZM79.5797 47.5416C79.5797 47.6401 79.5318 47.7057 79.4361 47.7714C79.2447 47.9027 78.9576 47.9027 78.7662 47.7714C78.5749 47.6401 78.3356 47.476 78.0964 47.3447C77.905 47.2462 77.8571 47.0164 78.0485 46.8851C78.2399 46.7538 78.527 46.721 78.7184 46.8523C78.9576 46.9836 79.2447 47.1477 79.4361 47.3118C79.5318 47.3775 79.5797 47.476 79.5797 47.5416ZM78.9098 56.1413C78.9098 56.2398 78.8619 56.3383 78.7184 56.4039C78.4792 56.5352 78.1921 56.6993 77.905 56.7978C77.6657 56.8963 77.3786 56.8634 77.2351 56.6993C77.0916 56.5352 77.1394 56.3383 77.3786 56.2398C77.6179 56.1085 77.8571 56.01 78.0964 55.8787C78.2878 55.7474 78.6227 55.7803 78.7662 55.9116C78.8619 56.01 78.9098 56.0757 78.9098 56.1413ZM76.4695 46.0974C76.4695 46.1302 76.4695 46.1958 76.4217 46.2287C76.326 46.3928 76.0389 46.4584 75.7996 46.3928C75.5126 46.2943 75.2255 46.2287 74.9384 46.163C74.6991 46.0974 74.5556 45.9333 74.6513 45.7363C74.747 45.5722 74.9862 45.4737 75.2733 45.5394C75.6083 45.605 75.8953 45.7035 76.1824 45.7691C76.3738 45.8676 76.4695 45.9661 76.4695 46.0974ZM75.6083 57.4214C75.6083 57.5527 75.4647 57.684 75.2733 57.7169C74.9862 57.7825 74.6513 57.8481 74.3163 57.9138C74.0771 57.9466 73.79 57.8481 73.7422 57.684C73.6943 57.5199 73.8379 57.323 74.0771 57.2901C74.3642 57.2245 74.6513 57.1917 74.9384 57.126C75.1776 57.0604 75.4647 57.1589 75.5604 57.323C75.6083 57.323 75.6083 57.3558 75.6083 57.4214ZM72.7852 45.4737C72.7852 45.5066 72.7852 45.5066 72.7852 45.4737C72.7852 45.6707 72.546 45.802 72.2589 45.802C71.9718 45.802 71.6847 45.7691 71.3976 45.7691C71.1105 45.7691 70.9191 45.6379 70.9191 45.4409C70.9191 45.244 71.1105 45.1127 71.3976 45.1127V45.1127C71.7325 45.1127 72.0196 45.1127 72.3546 45.1455C72.5938 45.1783 72.7852 45.3096 72.7852 45.4737ZM71.8761 57.8153C71.8761 58.0123 71.6847 58.1436 71.3976 58.1436C71.0627 58.1436 70.7277 58.1436 70.4406 58.1107C70.2014 58.1107 69.9621 57.9466 70.01 57.7497C70.01 57.5527 70.2492 57.4214 70.5363 57.4543C70.8234 57.4543 71.1584 57.4871 71.4454 57.4871C71.6847 57.4871 71.8761 57.6512 71.8761 57.8153ZM69.0052 45.7035C69.0052 45.8348 68.8616 45.9989 68.6224 46.0317C68.3353 46.0974 68.0482 46.1302 67.7611 46.1958C67.5219 46.2615 67.2348 46.163 67.1391 45.9989C67.0434 45.8348 67.1869 45.6379 67.4262 45.5722C67.7133 45.5066 68.0482 45.4409 68.3831 45.3753C68.6224 45.3424 68.9095 45.4409 68.9573 45.605C69.0052 45.6379 69.0052 45.6707 69.0052 45.7035ZM68.1439 57.4214C68.1439 57.4543 68.1439 57.4871 68.0961 57.5199C68.0004 57.684 67.7611 57.7825 67.474 57.7169C67.1869 57.6512 66.852 57.5527 66.5649 57.4871C66.3257 57.4214 66.23 57.2245 66.3257 57.0604C66.4214 56.8963 66.7084 56.8306 66.9477 56.8963C67.2348 56.9947 67.5219 57.0604 67.809 57.126C68.0482 57.1589 68.1439 57.2901 68.1439 57.4214ZM65.5601 46.7538C65.5601 46.8523 65.4644 46.9508 65.3687 47.0164C65.1294 47.1477 64.8902 47.2462 64.651 47.3775C64.4596 47.5088 64.1246 47.476 63.9811 47.3447C63.7897 47.2134 63.8375 46.9836 64.0289 46.8851C64.2682 46.7538 64.5553 46.5897 64.8424 46.4913C65.0816 46.3928 65.3687 46.4256 65.5122 46.5897C65.5601 46.6226 65.5601 46.6882 65.5601 46.7538ZM64.8424 56.1742C64.8424 56.2398 64.7945 56.3054 64.7467 56.3711C64.6031 56.5024 64.2682 56.5352 64.0768 56.4039C63.8375 56.2726 63.5505 56.1085 63.3591 55.9444C63.1677 55.8131 63.1677 55.6162 63.3591 55.4849C63.5505 55.3536 63.8375 55.3536 64.0289 55.4849C64.2203 55.6162 64.4596 55.7803 64.6988 55.9116C64.7945 55.9772 64.8424 56.0757 64.8424 56.1742ZM62.9284 48.592C62.9284 48.6576 62.8806 48.7232 62.8327 48.7561C62.6892 48.9202 62.4978 49.1171 62.4021 49.2812C62.3064 49.4454 61.9715 49.511 61.7801 49.4125C61.5408 49.3469 61.4451 49.15 61.5887 48.9858C61.7322 48.7889 61.9236 48.592 62.0672 48.395C62.2107 48.2309 62.4978 48.1981 62.737 48.2965C62.8327 48.3622 62.9284 48.4935 62.9284 48.592ZM62.4499 54.1719C62.4499 54.3032 62.3542 54.4017 62.2107 54.4673C61.9715 54.5658 61.6844 54.5002 61.5887 54.336C61.4451 54.1391 61.3016 53.9093 61.2059 53.7124C61.1102 53.5483 61.2537 53.3513 61.493 53.2857C61.7322 53.22 62.0193 53.3185 62.115 53.4826C62.2107 53.6796 62.3542 53.8765 62.4978 54.0406C62.4499 54.0735 62.4499 54.1063 62.4499 54.1719ZM61.6365 51.0209L61.6365 51.0537C61.5887 51.2506 61.5887 51.4476 61.5887 51.6445C61.5887 51.8415 61.3973 51.9728 61.1102 51.9728C60.8231 51.9728 60.6317 51.8415 60.6317 51.6445C60.6317 51.4148 60.6317 51.185 60.6795 50.9881C60.7274 50.8239 60.9666 50.6926 61.2059 50.6926C61.4451 50.6926 61.6365 50.8568 61.6365 51.0209Z" fill="#FFBFCD"/>
<path d="M71.8761 59.6862L71.8761 61.6556C72.211 61.6556 72.4981 61.6228 72.8331 61.6228L72.8331 59.6534C72.4981 59.6534 72.211 59.6862 71.8761 59.6862Z" fill="#F48BA2"/>
<path d="M69.4837 59.6206L69.4837 61.59C69.8186 61.6228 70.1057 61.6228 70.4407 61.6556L70.4407 59.6862C70.1057 59.6534 69.8186 59.6534 69.4837 59.6206Z" fill="#F48BA2"/>
<path d="M74.2685 59.5219L74.2685 61.4913C74.6034 61.4585 74.8905 61.3929 75.2255 61.3272L75.2255 59.3578C74.8905 59.4235 74.6034 59.4563 74.2685 59.5219Z" fill="#F48BA2"/>
<path d="M76.6609 59.0625L76.6609 61.0319C76.9959 60.9334 77.2829 60.8677 77.6179 60.7693L77.6179 58.7999C77.2829 58.8655 76.9959 58.964 76.6609 59.0625Z" fill="#F48BA2"/>
<path d="M67.0913 59.2594L67.0913 61.2288C67.4262 61.2945 67.7133 61.3601 68.0482 61.3929L68.0482 59.4235C67.7133 59.3907 67.4262 59.3251 67.0913 59.2594Z" fill="#F48BA2"/>
<path d="M64.6989 58.603L64.6989 60.5724C65.0338 60.6709 65.3209 60.7693 65.6558 60.8678L65.6558 58.8984C65.3209 58.8327 65.0338 58.7343 64.6989 58.603Z" fill="#F48BA2"/>
<path d="M61.8279 57.2901L61.8279 59.2595C62.115 59.4564 62.4499 59.6206 62.7849 59.7847L62.7849 57.8153C62.4499 57.6511 62.115 57.4542 61.8279 57.2901Z" fill="#F48BA2"/>
<path d="M59.4355 55.255L59.4355 57.2244C59.7226 57.5526 60.0575 57.8809 60.3925 58.1763L60.3925 56.2069C60.0575 55.9115 59.7226 55.616 59.4355 55.255Z" fill="#F48BA2"/>
<path d="M79.5319 58.045L79.5319 60.0144C79.8668 59.8503 80.2017 59.6862 80.4888 59.5221L80.4888 57.5527C80.2017 57.7168 79.8668 57.8809 79.5319 58.045Z" fill="#F48BA2"/>
<path d="M81.9243 58.6031C82.2592 58.3406 82.5941 58.078 82.8812 57.7826L82.8812 55.8132C82.5941 56.1086 82.2592 56.3712 81.9243 56.6337L81.9243 58.6031Z" fill="#F48BA2"/>
<path d="M73.8762 51.1529L73.8762 52.4431L75.2255 52.4431L75.2255 53.4528L73.8762 53.4528L73.8762 54.2742L72.6905 54.2742L72.6905 53.4528L72.0655 53.4528L72.0655 54.2742L70.8798 54.2742L70.8798 53.4528L66.7211 53.4528L66.7211 51.221C66.7211 50.5773 66.9665 50.0631 67.4571 49.6784C67.9438 49.2938 68.5922 49.1014 69.4021 49.1014C70.2276 49.1014 70.876 49.2844 71.3471 49.6504C71.8144 50.0163 72.0539 50.5252 72.0655 51.1769L72.0655 52.4431L72.6905 52.4431L72.6905 51.1529L73.8762 51.1529ZM70.8798 52.4431L70.8798 51.237C70.8798 50.8738 70.7572 50.596 70.5119 50.4036C70.2666 50.2113 69.9005 50.1152 69.4138 50.1152C68.9777 50.1152 68.6214 50.21 68.3449 50.3996C68.0684 50.5866 67.9244 50.8457 67.9127 51.1769L67.9127 52.4431L70.8798 52.4431Z" fill="#F48BA2"/>
<path d="M84.7952 49.5228C84.7952 53.954 78.8141 57.5646 71.3976 57.5646C63.9811 57.5646 58.0001 53.954 58.0001 49.5228C58.0001 45.0917 63.9811 41.4811 71.3976 41.4811C78.8141 41.4811 84.7952 45.0917 84.7952 49.5228Z" fill="#FFDCE4"/>
<path d="M71.3976 57.5647C64.5553 57.5647 58.9092 54.4793 58.0957 50.5076C58.0479 50.8359 58 51.1641 58 51.4923C58 55.9235 63.9811 59.5341 71.3976 59.5341C78.8141 59.5341 84.7951 55.9235 84.7951 51.4923C84.7951 51.1641 84.7473 50.8359 84.6994 50.5076C83.886 54.4793 78.2399 57.5647 71.3976 57.5647Z" fill="#FFBFCD"/>
<path d="M82.1635 49.4901C82.1635 49.7527 82.1635 49.9825 82.1157 50.2122C82.0678 50.3764 81.8286 50.5076 81.5893 50.5076C81.3501 50.4748 81.1587 50.3107 81.1587 50.1466C81.2065 49.9496 81.2065 49.7527 81.2065 49.5229C81.2065 49.326 81.3979 49.1947 81.685 49.1947C81.9721 49.1947 82.1635 49.326 82.1635 49.4901ZM81.6372 47.5864C81.6372 47.7177 81.5415 47.849 81.3501 47.8818C81.1109 47.9474 80.8238 47.849 80.7281 47.6848C80.6324 47.4879 80.4888 47.291 80.3453 47.1268C80.2017 46.9627 80.2974 46.7658 80.5367 46.7001C80.7759 46.6017 81.063 46.6673 81.1587 46.8314C81.3022 47.0284 81.4458 47.2581 81.5415 47.4551C81.6372 47.5207 81.6372 47.5535 81.6372 47.5864ZM81.3022 52.0175C81.3022 52.0832 81.3022 52.116 81.2544 52.1816C81.1109 52.3786 80.9195 52.5755 80.7759 52.7725C80.6324 52.9366 80.3453 52.9694 80.106 52.8709C79.8668 52.7725 79.8189 52.5755 79.9625 52.4114C80.106 52.2473 80.2974 52.0503 80.3931 51.8862C80.5367 51.7221 80.8238 51.6565 81.0152 51.7549C81.2065 51.7878 81.3022 51.9191 81.3022 52.0175ZM79.5797 45.42C79.5797 45.5185 79.5319 45.5841 79.4362 45.6498C79.2448 45.7811 78.9577 45.7811 78.7663 45.6498C78.5749 45.5185 78.3356 45.3544 78.0964 45.2231C77.905 45.1246 77.8572 44.8949 78.0486 44.7636C78.2399 44.6323 78.527 44.5994 78.7184 44.7307C78.9577 44.862 79.2448 45.0261 79.4362 45.1903C79.5319 45.2559 79.5797 45.3544 79.5797 45.42ZM78.9098 54.0197C78.9098 54.1182 78.862 54.2167 78.7184 54.2823C78.4792 54.4136 78.1921 54.5777 77.905 54.6762C77.6658 54.7747 77.3787 54.7419 77.2351 54.5777C77.0916 54.4136 77.1394 54.2167 77.3787 54.1182C77.6179 53.9869 77.8572 53.8885 78.0964 53.7572C78.2878 53.6259 78.6227 53.6587 78.7663 53.79C78.862 53.8885 78.9098 53.9541 78.9098 54.0197ZM76.4696 43.9758C76.4696 44.0086 76.4696 44.0743 76.4217 44.1071C76.326 44.2712 76.0389 44.3369 75.7997 44.2712C75.5126 44.1727 75.2255 44.1071 74.9384 44.0414C74.6992 43.9758 74.5556 43.8117 74.6513 43.6147C74.747 43.4506 74.9863 43.3522 75.2733 43.4178C75.6083 43.4834 75.8954 43.5819 76.1825 43.6476C76.3739 43.746 76.4696 43.8445 76.4696 43.9758ZM75.6083 55.2999C75.6083 55.4312 75.4647 55.5624 75.2733 55.5953C74.9863 55.6609 74.6513 55.7266 74.3164 55.7922C74.0771 55.825 73.79 55.7266 73.7422 55.5624C73.6943 55.3983 73.8379 55.2014 74.0771 55.1686C74.3642 55.1029 74.6513 55.0701 74.9384 55.0044C75.1776 54.9388 75.4647 55.0373 75.5604 55.2014C75.6083 55.2014 75.6083 55.2342 75.6083 55.2999ZM72.7852 43.3522C72.7852 43.385 72.7852 43.385 72.7852 43.3522C72.7852 43.5491 72.546 43.6804 72.2589 43.6804C71.9718 43.6804 71.6847 43.6476 71.3976 43.6476C71.1105 43.6476 70.9191 43.5163 70.9191 43.3193C70.9191 43.1224 71.1105 42.9911 71.3976 42.9911V42.9911C71.7326 42.9911 72.0197 42.9911 72.3546 43.0239C72.5938 43.0567 72.7852 43.188 72.7852 43.3522ZM71.8761 55.6937C71.8761 55.8907 71.6847 56.022 71.3976 56.022C71.0627 56.022 70.7277 56.022 70.4407 55.9891C70.2014 55.9891 69.9622 55.825 70.01 55.6281C70.01 55.4312 70.2493 55.2999 70.5364 55.3327C70.8234 55.3327 71.1584 55.3655 71.4455 55.3655C71.6847 55.3655 71.8761 55.5296 71.8761 55.6937ZM69.0052 43.5819C69.0052 43.7132 68.8617 43.8773 68.6224 43.9102C68.3353 43.9758 68.0482 44.0086 67.7611 44.0743C67.5219 44.1399 67.2348 44.0414 67.1391 43.8773C67.0434 43.7132 67.187 43.5163 67.4262 43.4506C67.7133 43.385 68.0482 43.3193 68.3832 43.2537C68.6224 43.2209 68.9095 43.3193 68.9574 43.4834C69.0052 43.5163 69.0052 43.5491 69.0052 43.5819ZM68.1439 55.2999C68.1439 55.3327 68.1439 55.3655 68.0961 55.3983C68.0004 55.5624 67.7611 55.6609 67.4741 55.5953C67.187 55.5296 66.852 55.4312 66.5649 55.3655C66.3257 55.2999 66.23 55.1029 66.3257 54.9388C66.4214 54.7747 66.7085 54.709 66.9477 54.7747C67.2348 54.8732 67.5219 54.9388 67.809 55.0044C68.0482 55.0373 68.1439 55.1686 68.1439 55.2999ZM65.5601 44.6323C65.5601 44.7307 65.4644 44.8292 65.3687 44.8949C65.1295 45.0261 64.8902 45.1246 64.651 45.2559C64.4596 45.3872 64.1247 45.3544 63.9811 45.2231C63.7897 45.0918 63.8376 44.862 64.029 44.7636C64.2682 44.6323 64.5553 44.4681 64.8424 44.3697C65.0816 44.2712 65.3687 44.304 65.5123 44.4681C65.5601 44.501 65.5601 44.5666 65.5601 44.6323ZM64.8424 54.0526C64.8424 54.1182 64.7945 54.1839 64.7467 54.2495C64.6031 54.3808 64.2682 54.4136 64.0768 54.2823C63.8376 54.151 63.5505 53.9869 63.3591 53.8228C63.1677 53.6915 63.1677 53.4946 63.3591 53.3633C63.5505 53.232 63.8376 53.232 64.029 53.3633C64.2204 53.4946 64.4596 53.6587 64.6988 53.79C64.7945 53.8556 64.8424 53.9541 64.8424 54.0526ZM62.9285 46.4704C62.9285 46.536 62.8806 46.6017 62.8328 46.6345C62.6892 46.7986 62.4978 46.9955 62.4021 47.1597C62.3064 47.3238 61.9715 47.3894 61.7801 47.291C61.5408 47.2253 61.4452 47.0284 61.5887 46.8643C61.7322 46.6673 61.9236 46.4704 62.0672 46.2734C62.2107 46.1093 62.4978 46.0765 62.7371 46.175C62.8328 46.2406 62.9285 46.3719 62.9285 46.4704ZM62.45 52.0503C62.45 52.1816 62.3543 52.2801 62.2107 52.3458C61.9715 52.4442 61.6844 52.3786 61.5887 52.2145C61.4452 52.0175 61.3016 51.7878 61.2059 51.5908C61.1102 51.4267 61.2538 51.2298 61.493 51.1641C61.7322 51.0985 62.0193 51.1969 62.115 51.3611C62.2107 51.558 62.3543 51.7549 62.4978 51.9191C62.45 51.9519 62.45 51.9847 62.45 52.0503ZM61.6365 48.8993L61.6365 48.9321C61.5887 49.1291 61.5887 49.326 61.5887 49.5229C61.5887 49.7199 61.3973 49.8512 61.1102 49.8512C60.8231 49.8512 60.6317 49.7199 60.6317 49.5229C60.6317 49.2932 60.6317 49.0634 60.6796 48.8665C60.7274 48.7024 60.9667 48.5711 61.2059 48.5711C61.4452 48.5711 61.6365 48.7352 61.6365 48.8993Z" fill="#FFBFCD"/>
<path d="M71.8761 57.5647L71.8761 59.5341C72.2111 59.5341 72.4982 59.5012 72.8331 59.5012L72.8331 57.5318C72.4982 57.5318 72.2111 57.5647 71.8761 57.5647Z" fill="#F48BA2"/>
<path d="M69.4837 57.499L69.4837 59.4684C69.8187 59.5012 70.1057 59.5012 70.4407 59.5341L70.4407 57.5647C70.1057 57.5318 69.8187 57.5318 69.4837 57.499Z" fill="#F48BA2"/>
<path d="M74.2685 57.4005L74.2685 59.3699C74.6035 59.337 74.8906 59.2714 75.2255 59.2058L75.2255 57.2364C74.8906 57.302 74.6035 57.3348 74.2685 57.4005Z" fill="#F48BA2"/>
<path d="M76.6609 56.9411L76.6609 58.9105C76.9959 58.8121 77.283 58.7464 77.6179 58.6479L77.6179 56.6785C77.283 56.7442 76.9959 56.8427 76.6609 56.9411Z" fill="#F48BA2"/>
<path d="M67.0913 57.138L67.0913 59.1074C67.4262 59.173 67.7133 59.2387 68.0483 59.2715L68.0483 57.3021C67.7133 57.2693 67.4262 57.2036 67.0913 57.138Z" fill="#F48BA2"/>
<path d="M64.6989 56.4815L64.6989 58.4509C65.0338 58.5494 65.3209 58.6479 65.6559 58.7463L65.6559 56.7769C65.3209 56.7113 65.0338 56.6128 64.6989 56.4815Z" fill="#F48BA2"/>
<path d="M61.8279 55.1684L61.8279 57.1378C62.115 57.3347 62.45 57.4988 62.7849 57.663L62.7849 55.6936C62.45 55.5294 62.115 55.3325 61.8279 55.1684Z" fill="#F48BA2"/>
<path d="M59.4355 53.1335L59.4355 55.1029C59.7226 55.4312 60.0576 55.7594 60.3925 56.0548L60.3925 54.0854C60.0576 53.79 59.7226 53.4946 59.4355 53.1335Z" fill="#F48BA2"/>
<path d="M79.5319 55.9237L79.5319 57.8931C79.8668 57.7289 80.2018 57.5648 80.4889 57.4007L80.4889 55.4313C80.2018 55.5954 79.8668 55.7595 79.5319 55.9237Z" fill="#F48BA2"/>
<path d="M81.9243 56.4813C82.2592 56.2187 82.5942 55.9561 82.8813 55.6607L82.8813 53.6913C82.5942 53.9867 82.2592 54.2493 81.9243 54.5119L81.9243 56.4813Z" fill="#F48BA2"/>
<path d="M73.8762 49.0313L73.8762 50.3215L75.2255 50.3215L75.2255 51.3312L73.8762 51.3312L73.8762 52.1526L72.6905 52.1526L72.6905 51.3312L72.0656 51.3312L72.0656 52.1526L70.8799 52.1526L70.8799 51.3312L66.7212 51.3312L66.7212 49.0994C66.7212 48.4557 66.9665 47.9415 67.4571 47.5568C67.9439 47.1722 68.5922 46.9799 69.4021 46.9799C70.2276 46.9799 70.876 47.1628 71.3471 47.5288C71.8144 47.8947 72.0539 48.4036 72.0656 49.0554L72.0656 50.3215L72.6905 50.3215L72.6905 49.0313L73.8762 49.0313ZM70.8799 50.3215L70.8799 49.1155C70.8799 48.7522 70.7572 48.4744 70.5119 48.2821C70.2666 48.0897 69.9006 47.9936 69.4138 47.9936C68.9777 47.9936 68.6214 48.0884 68.3449 48.2781C68.0685 48.465 67.9244 48.7241 67.9127 49.0554L67.9127 50.3215L70.8799 50.3215Z" fill="#F48BA2"/>
<path d="M113.02 53.7107C113.02 58.1419 107.039 61.7524 99.6224 61.7524C92.2059 61.7524 86.2249 58.1419 86.2249 53.7107C86.2249 49.2796 92.2059 45.669 99.6224 45.669C107.039 45.669 113.02 49.2796 113.02 53.7107Z" fill="white"/>
<path d="M99.6224 61.7525C92.7801 61.7525 87.134 58.6671 86.3205 54.6955C86.2727 55.0237 86.2249 55.352 86.2249 55.6802C86.2249 60.1114 92.2059 63.7219 99.6224 63.7219C107.039 63.7219 113.02 60.1114 113.02 55.6802C113.02 55.352 112.972 55.0237 112.924 54.6955C112.111 58.6671 106.465 61.7525 99.6224 61.7525Z" fill="#FFBFCD"/>
<path d="M110.388 53.678C110.388 53.9406 110.388 54.1703 110.341 54.4001C110.293 54.5642 110.053 54.6955 109.814 54.6955C109.575 54.6627 109.384 54.4986 109.384 54.3345C109.431 54.1375 109.431 53.9406 109.431 53.7108C109.431 53.5139 109.623 53.3826 109.91 53.3826C110.197 53.3826 110.388 53.5139 110.388 53.678ZM109.862 51.7742C109.862 51.9055 109.766 52.0368 109.575 52.0696C109.336 52.1353 109.049 52.0368 108.953 51.8727C108.857 51.6758 108.714 51.4788 108.57 51.3147C108.427 51.1506 108.522 50.9536 108.762 50.888C109.001 50.7895 109.288 50.8552 109.384 51.0193C109.527 51.2162 109.671 51.446 109.766 51.6429C109.862 51.7086 109.862 51.7414 109.862 51.7742ZM109.527 56.2054C109.527 56.271 109.527 56.3039 109.479 56.3695C109.336 56.5664 109.144 56.7634 109.001 56.9603C108.857 57.1244 108.57 57.1573 108.331 57.0588C108.092 56.9603 108.044 56.7634 108.187 56.5993C108.331 56.4352 108.522 56.2382 108.618 56.0741C108.762 55.91 109.049 55.8443 109.24 55.9428C109.431 55.9756 109.527 56.1069 109.527 56.2054ZM107.805 49.6079C107.805 49.7064 107.757 49.772 107.661 49.8377C107.47 49.9689 107.183 49.9689 106.991 49.8377C106.8 49.7064 106.56 49.5422 106.321 49.411C106.13 49.3125 106.082 49.0827 106.273 48.9514C106.465 48.8201 106.752 48.7873 106.943 48.9186C107.183 49.0499 107.47 49.214 107.661 49.3781C107.757 49.4438 107.805 49.5422 107.805 49.6079ZM107.135 58.2076C107.135 58.3061 107.087 58.4046 106.943 58.4702C106.704 58.6015 106.417 58.7656 106.13 58.8641C105.891 58.9626 105.604 58.9297 105.46 58.7656C105.316 58.6015 105.364 58.4046 105.604 58.3061C105.843 58.1748 106.082 58.0763 106.321 57.945C106.513 57.8137 106.848 57.8466 106.991 57.9778C107.087 58.0763 107.135 58.142 107.135 58.2076ZM104.694 48.1637C104.694 48.1965 104.694 48.2621 104.647 48.295C104.551 48.4591 104.264 48.5247 104.025 48.4591C103.737 48.3606 103.45 48.295 103.163 48.2293C102.924 48.1637 102.78 47.9995 102.876 47.8026C102.972 47.6385 103.211 47.54 103.498 47.6057C103.833 47.6713 104.12 47.7698 104.407 47.8354C104.599 47.9339 104.694 48.0324 104.694 48.1637ZM103.833 59.4877C103.833 59.619 103.69 59.7503 103.498 59.7831C103.211 59.8488 102.876 59.9144 102.541 59.9801C102.302 60.0129 102.015 59.9144 101.967 59.7503C101.919 59.5862 102.063 59.3893 102.302 59.3564C102.589 59.2908 102.876 59.258 103.163 59.1923C103.402 59.1267 103.69 59.2251 103.785 59.3893C103.833 59.3893 103.833 59.4221 103.833 59.4877ZM101.01 47.54C101.01 47.5728 101.01 47.5728 101.01 47.54C101.01 47.737 100.771 47.8683 100.484 47.8683C100.197 47.8683 99.9096 47.8354 99.6225 47.8354C99.3354 47.8354 99.144 47.7041 99.144 47.5072C99.144 47.3103 99.3354 47.179 99.6225 47.179V47.179C99.9574 47.179 100.244 47.179 100.579 47.2118C100.819 47.2446 101.01 47.3759 101.01 47.54ZM100.101 59.8816C100.101 60.0785 99.9096 60.2098 99.6225 60.2098C99.2875 60.2098 98.9526 60.2098 98.6655 60.177C98.4263 60.177 98.187 60.0129 98.2349 59.816C98.2349 59.619 98.4741 59.4877 98.7612 59.5205C99.0483 59.5205 99.3832 59.5534 99.6703 59.5534C99.9096 59.5534 100.101 59.7175 100.101 59.8816ZM97.23 47.7698C97.23 47.9011 97.0865 48.0652 96.8473 48.098C96.5602 48.1637 96.2731 48.1965 95.986 48.2621C95.7467 48.3278 95.4596 48.2293 95.364 48.0652C95.2683 47.9011 95.4118 47.7041 95.651 47.6385C95.9381 47.5728 96.2731 47.5072 96.608 47.4415C96.8473 47.4087 97.1343 47.5072 97.1822 47.6713C97.23 47.7041 97.23 47.737 97.23 47.7698ZM96.3688 59.4877C96.3688 59.5205 96.3688 59.5534 96.3209 59.5862C96.2252 59.7503 95.986 59.8488 95.6989 59.7831C95.4118 59.7175 95.0769 59.619 94.7898 59.5534C94.5505 59.4877 94.4548 59.2908 94.5505 59.1267C94.6462 58.9626 94.9333 58.8969 95.1726 58.9626C95.4596 59.061 95.7467 59.1267 96.0338 59.1923C96.2731 59.2251 96.3688 59.3564 96.3688 59.4877ZM93.785 48.8201C93.785 48.9186 93.6893 49.0171 93.5936 49.0827C93.3543 49.214 93.1151 49.3125 92.8758 49.4438C92.6844 49.5751 92.3495 49.5422 92.206 49.411C92.0146 49.2797 92.0624 49.0499 92.2538 48.9514C92.493 48.8201 92.7801 48.656 93.0672 48.5575C93.3065 48.4591 93.5936 48.4919 93.7371 48.656C93.785 48.6888 93.785 48.7545 93.785 48.8201ZM93.0672 58.2404C93.0672 58.3061 93.0194 58.3717 92.9715 58.4374C92.828 58.5687 92.493 58.6015 92.3017 58.4702C92.0624 58.3389 91.7753 58.1748 91.5839 58.0107C91.3925 57.8794 91.3925 57.6824 91.5839 57.5511C91.7753 57.4199 92.0624 57.4199 92.2538 57.5511C92.4452 57.6824 92.6844 57.8466 92.9237 57.9778C93.0194 58.0435 93.0672 58.142 93.0672 58.2404ZM91.1533 50.6582C91.1533 50.7239 91.1054 50.7895 91.0576 50.8224C90.914 50.9865 90.7227 51.1834 90.627 51.3475C90.5313 51.5116 90.1963 51.5773 90.0049 51.4788C89.7657 51.4132 89.67 51.2162 89.8135 51.0521C89.9571 50.8552 90.1485 50.6582 90.292 50.4613C90.4356 50.2972 90.7227 50.2644 90.9619 50.3628C91.0576 50.4285 91.1533 50.5598 91.1533 50.6582ZM90.6748 56.2382C90.6748 56.3695 90.5791 56.468 90.4356 56.5336C90.1963 56.6321 89.9092 56.5664 89.8135 56.4023C89.67 56.2054 89.5264 55.9756 89.4307 55.7787C89.3351 55.6146 89.4786 55.4176 89.7178 55.352C89.9571 55.2863 90.2442 55.3848 90.3399 55.5489C90.4356 55.7459 90.5791 55.9428 90.7227 56.1069C90.6748 56.1397 90.6748 56.1726 90.6748 56.2382ZM89.8614 53.0872L89.8614 53.12C89.8135 53.3169 89.8135 53.5139 89.8135 53.7108C89.8135 53.9078 89.6221 54.039 89.3351 54.039C89.048 54.039 88.8566 53.9078 88.8566 53.7108C88.8566 53.481 88.8566 53.2513 88.9044 53.0543C88.9523 52.8902 89.1915 52.7589 89.4307 52.7589C89.67 52.7589 89.8614 52.9231 89.8614 53.0872Z" fill="#FFBFCD"/>
<path d="M100.101 61.7525L100.101 63.7219C100.436 63.7219 100.723 63.6891 101.058 63.6891L101.058 61.7197C100.723 61.7197 100.436 61.7525 100.101 61.7525Z" fill="#F48BA2"/>
<path d="M97.7085 61.6869L97.7085 63.6563C98.0435 63.6891 98.3306 63.6891 98.6655 63.7219L98.6655 61.7525C98.3306 61.7197 98.0435 61.7197 97.7085 61.6869Z" fill="#F48BA2"/>
<path d="M102.493 61.5885L102.493 63.5579C102.828 63.525 103.115 63.4594 103.45 63.3937L103.45 61.4243C103.115 61.49 102.828 61.5228 102.493 61.5885Z" fill="#F48BA2"/>
<path d="M104.886 61.1289L104.886 63.0983C105.221 62.9998 105.508 62.9341 105.843 62.8357L105.843 60.8663C105.508 60.9319 105.221 61.0304 104.886 61.1289Z" fill="#F48BA2"/>
<path d="M95.3161 61.3258L95.3161 63.2952C95.6511 63.3609 95.9381 63.4265 96.2731 63.4594L96.2731 61.4899C95.9381 61.4571 95.6511 61.3915 95.3161 61.3258Z" fill="#F48BA2"/>
<path d="M92.9237 60.6693L92.9237 62.6387C93.2587 62.7371 93.5458 62.8356 93.8807 62.9341L93.8807 60.9647C93.5458 60.899 93.2587 60.8006 92.9237 60.6693Z" fill="#F48BA2"/>
<path d="M90.0528 59.3563L90.0528 61.3257C90.3399 61.5226 90.6748 61.6867 91.0097 61.8508L91.0097 59.8814C90.6748 59.7173 90.3399 59.5204 90.0528 59.3563Z" fill="#F48BA2"/>
<path d="M87.6604 57.3213L87.6604 59.2907C87.9474 59.6189 88.2824 59.9471 88.6173 60.2426L88.6173 58.2732C88.2824 57.9777 87.9474 57.6823 87.6604 57.3213Z" fill="#F48BA2"/>
<path d="M107.757 60.1113L107.757 62.0807C108.092 61.9166 108.427 61.7525 108.714 61.5883L108.714 59.6189C108.427 59.7831 108.092 59.9472 107.757 60.1113Z" fill="#F48BA2"/>
<path d="M110.149 60.6693C110.484 60.4067 110.819 60.1441 111.106 59.8487L111.106 57.8793C110.819 58.1747 110.484 58.4373 110.149 58.6999L110.149 60.6693Z" fill="#F48BA2"/>
<path d="M102.101 53.2192L102.101 54.5094L103.45 54.5094L103.45 55.5191L102.101 55.5191L102.101 56.3405L100.915 56.3405L100.915 55.5191L100.29 55.5191L100.29 56.3405L99.1047 56.3405L99.1047 55.5191L94.946 55.5191L94.946 53.2873C94.946 52.6436 95.1913 52.1293 95.6819 51.7447C96.1687 51.3601 96.817 51.1677 97.627 51.1677C98.4525 51.1677 99.1008 51.3507 99.572 51.7167C100.039 52.0826 100.279 52.5915 100.29 53.2432L100.29 54.5094L100.915 54.5094L100.915 53.2192L102.101 53.2192ZM99.1047 54.5094L99.1047 53.3033C99.1047 52.9401 98.982 52.6622 98.7367 52.4699C98.4914 52.2776 98.1254 52.1814 97.6386 52.1814C97.2025 52.1814 96.8462 52.2763 96.5698 52.4659C96.2933 52.6529 96.1492 52.912 96.1375 53.2432L96.1375 54.5094L99.1047 54.5094Z" fill="#F48BA2"/>
<path d="M113.02 51.5893C113.02 56.0204 107.039 59.631 99.6225 59.631C92.206 59.631 86.2249 56.0204 86.2249 51.5893C86.2249 47.1581 92.206 43.5475 99.6225 43.5475C107.039 43.5475 113.02 47.1581 113.02 51.5893Z" fill="white"/>
<path d="M99.6224 59.6309C92.7801 59.6309 87.134 56.5455 86.3206 52.5739C86.2727 52.9021 86.2249 53.2304 86.2249 53.5586C86.2249 57.9898 92.2059 61.6003 99.6224 61.6003C107.039 61.6003 113.02 57.9898 113.02 53.5586C113.02 53.2304 112.972 52.9021 112.924 52.5739C112.111 56.5455 106.465 59.6309 99.6224 59.6309Z" fill="#FFBFCD"/>
<path d="M110.388 51.5564C110.388 51.819 110.388 52.0488 110.341 52.2785C110.293 52.4426 110.053 52.5739 109.814 52.5739C109.575 52.5411 109.384 52.377 109.384 52.2129C109.431 52.0159 109.431 51.819 109.431 51.5892C109.431 51.3923 109.623 51.261 109.91 51.261C110.197 51.261 110.388 51.3923 110.388 51.5564ZM109.862 49.6527C109.862 49.7839 109.766 49.9152 109.575 49.9481C109.336 50.0137 109.049 49.9152 108.953 49.7511C108.857 49.5542 108.714 49.3572 108.57 49.1931C108.427 49.029 108.522 48.8321 108.762 48.7664C109.001 48.668 109.288 48.7336 109.384 48.8977C109.527 49.0947 109.671 49.3244 109.766 49.5214C109.862 49.587 109.862 49.6198 109.862 49.6527ZM109.527 54.0838C109.527 54.1495 109.527 54.1823 109.479 54.2479C109.336 54.4449 109.144 54.6418 109.001 54.8387C108.857 55.0029 108.57 55.0357 108.331 54.9372C108.092 54.8387 108.044 54.6418 108.187 54.4777C108.331 54.3136 108.522 54.1166 108.618 53.9525C108.762 53.7884 109.049 53.7227 109.24 53.8212C109.431 53.854 109.527 53.9853 109.527 54.0838ZM107.805 47.4863C107.805 47.5848 107.757 47.6504 107.661 47.7161C107.47 47.8474 107.183 47.8474 106.991 47.7161C106.8 47.5848 106.561 47.4207 106.321 47.2894C106.13 47.1909 106.082 46.9611 106.273 46.8298C106.465 46.6985 106.752 46.6657 106.943 46.797C107.183 46.9283 107.47 47.0924 107.661 47.2565C107.757 47.3222 107.805 47.4207 107.805 47.4863ZM107.135 56.086C107.135 56.1845 107.087 56.283 106.943 56.3486C106.704 56.4799 106.417 56.644 106.13 56.7425C105.891 56.841 105.604 56.8081 105.46 56.644C105.316 56.4799 105.364 56.283 105.604 56.1845C105.843 56.0532 106.082 55.9547 106.321 55.8234C106.513 55.6922 106.848 55.725 106.991 55.8563C107.087 55.9547 107.135 56.0204 107.135 56.086ZM104.694 46.0421C104.694 46.0749 104.694 46.1406 104.647 46.1734C104.551 46.3375 104.264 46.4031 104.025 46.3375C103.737 46.239 103.45 46.1734 103.163 46.1077C102.924 46.0421 102.78 45.878 102.876 45.681C102.972 45.5169 103.211 45.4184 103.498 45.4841C103.833 45.5497 104.12 45.6482 104.407 45.7138C104.599 45.8123 104.694 45.9108 104.694 46.0421ZM103.833 57.3661C103.833 57.4974 103.69 57.6287 103.498 57.6616C103.211 57.7272 102.876 57.7928 102.541 57.8585C102.302 57.8913 102.015 57.7928 101.967 57.6287C101.919 57.4646 102.063 57.2677 102.302 57.2348C102.589 57.1692 102.876 57.1364 103.163 57.0707C103.403 57.0051 103.69 57.1036 103.785 57.2677C103.833 57.2677 103.833 57.3005 103.833 57.3661ZM101.01 45.4184C101.01 45.4513 101.01 45.4513 101.01 45.4184C101.01 45.6154 100.771 45.7467 100.484 45.7467C100.197 45.7467 99.9096 45.7138 99.6225 45.7138C99.3354 45.7138 99.144 45.5826 99.144 45.3856C99.144 45.1887 99.3354 45.0574 99.6225 45.0574V45.0574C99.9574 45.0574 100.245 45.0574 100.579 45.0902C100.819 45.123 101.01 45.2543 101.01 45.4184ZM100.101 57.76C100.101 57.957 99.9096 58.0883 99.6225 58.0883C99.2876 58.0883 98.9526 58.0883 98.6655 58.0554C98.4263 58.0554 98.187 57.8913 98.2349 57.6944C98.2349 57.4974 98.4741 57.3661 98.7612 57.399C99.0483 57.399 99.3833 57.4318 99.6703 57.4318C99.9096 57.4318 100.101 57.5959 100.101 57.76ZM97.2301 45.6482C97.2301 45.7795 97.0865 45.9436 96.8473 45.9764C96.5602 46.0421 96.2731 46.0749 95.986 46.1406C95.7468 46.2062 95.4597 46.1077 95.364 45.9436C95.2683 45.7795 95.4118 45.5826 95.6511 45.5169C95.9382 45.4513 96.2731 45.3856 96.608 45.32C96.8473 45.2871 97.1344 45.3856 97.1822 45.5497C97.2301 45.5826 97.2301 45.6154 97.2301 45.6482ZM96.3688 57.3661C96.3688 57.399 96.3688 57.4318 96.321 57.4646C96.2253 57.6287 95.986 57.7272 95.6989 57.6616C95.4118 57.5959 95.0769 57.4974 94.7898 57.4318C94.5506 57.3661 94.4549 57.1692 94.5506 57.0051C94.6463 56.841 94.9333 56.7753 95.1726 56.841C95.4597 56.9394 95.7468 57.0051 96.0339 57.0707C96.2731 57.1036 96.3688 57.2348 96.3688 57.3661ZM93.785 46.6985C93.785 46.797 93.6893 46.8955 93.5936 46.9611C93.3543 47.0924 93.1151 47.1909 92.8759 47.3222C92.6845 47.4535 92.3495 47.4207 92.206 47.2894C92.0146 47.1581 92.0624 46.9283 92.2538 46.8298C92.4931 46.6985 92.7802 46.5344 93.0673 46.436C93.3065 46.3375 93.5936 46.3703 93.7371 46.5344C93.785 46.5673 93.785 46.6329 93.785 46.6985ZM93.0673 56.1189C93.0673 56.1845 93.0194 56.2501 92.9716 56.3158C92.828 56.4471 92.4931 56.4799 92.3017 56.3486C92.0624 56.2173 91.7754 56.0532 91.584 55.8891C91.3926 55.7578 91.3926 55.5609 91.584 55.4296C91.7754 55.2983 92.0624 55.2983 92.2538 55.4296C92.4452 55.5609 92.6845 55.725 92.9237 55.8563C93.0194 55.9219 93.0673 56.0204 93.0673 56.1189ZM91.1533 48.5367C91.1533 48.6023 91.1055 48.668 91.0576 48.7008C90.9141 48.8649 90.7227 49.0618 90.627 49.2259C90.5313 49.3901 90.1964 49.4557 90.005 49.3572C89.7657 49.2916 89.67 49.0947 89.8136 48.9305C89.9571 48.7336 90.1485 48.5367 90.292 48.3397C90.4356 48.1756 90.7227 48.1428 90.9619 48.2412C91.0576 48.3069 91.1533 48.4382 91.1533 48.5367ZM90.6748 54.1166C90.6748 54.2479 90.5791 54.3464 90.4356 54.412C90.1964 54.5105 89.9093 54.4449 89.8136 54.2807C89.67 54.0838 89.5265 53.854 89.4308 53.6571C89.3351 53.493 89.4786 53.296 89.7179 53.2304C89.9571 53.1648 90.2442 53.2632 90.3399 53.4273C90.4356 53.6243 90.5791 53.8212 90.7227 53.9853C90.6748 54.0182 90.6748 54.051 90.6748 54.1166ZM89.8614 50.9656L89.8614 50.9984C89.8136 51.1953 89.8136 51.3923 89.8136 51.5892C89.8136 51.7862 89.6222 51.9175 89.3351 51.9175C89.048 51.9175 88.8566 51.7862 88.8566 51.5892C88.8566 51.3595 88.8566 51.1297 88.9044 50.9328C88.9523 50.7686 89.1915 50.6374 89.4308 50.6374C89.67 50.6374 89.8614 50.8015 89.8614 50.9656Z" fill="#FFBFCD"/>
<path d="M100.101 59.6309L100.101 61.6003C100.436 61.6003 100.723 61.5675 101.058 61.5675L101.058 59.5981C100.723 59.5981 100.436 59.6309 100.101 59.6309Z" fill="#F48BA2"/>
<path d="M97.7086 59.5653L97.7086 61.5347C98.0435 61.5675 98.3306 61.5675 98.6655 61.6003L98.6655 59.6309C98.3306 59.5981 98.0435 59.5981 97.7086 59.5653Z" fill="#F48BA2"/>
<path d="M102.493 59.4669L102.493 61.4363C102.828 61.4035 103.115 61.3378 103.45 61.2722L103.45 59.3028C103.115 59.3684 102.828 59.4012 102.493 59.4669Z" fill="#F48BA2"/>
<path d="M104.886 59.0074L104.886 60.9768C105.221 60.8783 105.508 60.8127 105.843 60.7142L105.843 58.7448C105.508 58.8105 105.221 58.9089 104.886 59.0074Z" fill="#F48BA2"/>
<path d="M95.3161 59.2044L95.3161 61.1738C95.6511 61.2394 95.9382 61.3051 96.2731 61.3379L96.2731 59.3685C95.9382 59.3357 95.6511 59.27 95.3161 59.2044Z" fill="#F48BA2"/>
<path d="M92.9238 58.5478L92.9238 60.5172C93.2587 60.6157 93.5458 60.7142 93.8807 60.8126L93.8807 58.8432C93.5458 58.7776 93.2587 58.6791 92.9238 58.5478Z" fill="#F48BA2"/>
<path d="M90.0528 57.2349L90.0528 59.2043C90.3399 59.4013 90.6748 59.5654 91.0098 59.7295L91.0098 57.7601C90.6748 57.596 90.3399 57.399 90.0528 57.2349Z" fill="#F48BA2"/>
<path d="M87.6604 55.1998L87.6604 57.1692C87.9475 57.4974 88.2824 57.8257 88.6174 58.1211L88.6174 56.1517C88.2824 55.8563 87.9475 55.5609 87.6604 55.1998Z" fill="#F48BA2"/>
<path d="M107.757 57.9899L107.757 59.9594C108.092 59.7952 108.427 59.6311 108.714 59.467L108.714 57.4976C108.427 57.6617 108.092 57.8258 107.757 57.9899Z" fill="#F48BA2"/>
<path d="M110.149 58.5477C110.484 58.2851 110.819 58.0226 111.106 57.7271L111.106 55.7577C110.819 56.0532 110.484 56.3157 110.149 56.5783L110.149 58.5477Z" fill="#F48BA2"/>
<path d="M102.101 51.0977L102.101 52.3879L103.45 52.3879L103.45 53.3976L102.101 53.3976L102.101 54.219L100.915 54.219L100.915 53.3976L100.29 53.3976L100.29 54.219L99.1047 54.219L99.1047 53.3976L94.946 53.3976L94.946 51.1658C94.946 50.5221 95.1913 50.0079 95.682 49.6232C96.1687 49.2386 96.8171 49.0463 97.627 49.0463C98.4525 49.0463 99.1008 49.2292 99.572 49.5952C100.039 49.9611 100.279 50.47 100.29 51.1218L100.29 52.3879L100.915 52.3879L100.915 51.0977L102.101 51.0977ZM99.1047 52.3879L99.1047 51.1819C99.1047 50.8186 98.9821 50.5408 98.7368 50.3485C98.4914 50.1561 98.1254 50.06 97.6387 50.06C97.2026 50.06 96.8463 50.1548 96.5698 50.3445C96.2933 50.5314 96.1492 50.7905 96.1376 51.1218L96.1376 52.3879L99.1047 52.3879Z" fill="#F48BA2"/>
<path d="M113.02 49.4592C113.02 53.8904 107.039 57.501 99.6224 57.501C92.2059 57.501 86.2249 53.8904 86.2249 49.4592C86.2249 45.0281 92.2059 41.4175 99.6224 41.4175C107.039 41.4175 113.02 45.0281 113.02 49.4592Z" fill="white"/>
<path d="M99.6224 57.5009C92.7801 57.5009 87.134 54.4155 86.3205 50.4439C86.2727 50.7721 86.2249 51.1004 86.2249 51.4286C86.2249 55.8598 92.2059 59.4703 99.6224 59.4703C107.039 59.4703 113.02 55.8598 113.02 51.4286C113.02 51.1004 112.972 50.7721 112.924 50.4439C112.111 54.4155 106.465 57.5009 99.6224 57.5009Z" fill="#FFBFCD"/>
<path d="M110.388 49.4264C110.388 49.689 110.388 49.9188 110.341 50.1485C110.293 50.3126 110.053 50.4439 109.814 50.4439C109.575 50.4111 109.384 50.247 109.384 50.0829C109.431 49.8859 109.431 49.689 109.431 49.4592C109.431 49.2623 109.623 49.131 109.91 49.131C110.197 49.131 110.388 49.2623 110.388 49.4264ZM109.862 47.5226C109.862 47.6539 109.766 47.7852 109.575 47.8181C109.336 47.8837 109.049 47.7852 108.953 47.6211C108.857 47.4242 108.714 47.2272 108.57 47.0631C108.427 46.899 108.522 46.7021 108.762 46.6364C109.001 46.5379 109.288 46.6036 109.384 46.7677C109.527 46.9646 109.671 47.1944 109.766 47.3914C109.862 47.457 109.862 47.4898 109.862 47.5226ZM109.527 51.9538C109.527 52.0194 109.527 52.0523 109.479 52.1179C109.336 52.3149 109.144 52.5118 109.001 52.7087C108.857 52.8729 108.57 52.9057 108.331 52.8072C108.092 52.7087 108.044 52.5118 108.187 52.3477C108.331 52.1836 108.522 51.9866 108.618 51.8225C108.762 51.6584 109.049 51.5927 109.24 51.6912C109.431 51.724 109.527 51.8553 109.527 51.9538ZM107.805 45.3563C107.805 45.4548 107.757 45.5204 107.661 45.5861C107.47 45.7174 107.183 45.7174 106.991 45.5861C106.8 45.4548 106.56 45.2907 106.321 45.1594C106.13 45.0609 106.082 44.8311 106.273 44.6998C106.465 44.5685 106.752 44.5357 106.943 44.667C107.183 44.7983 107.47 44.9624 107.661 45.1265C107.757 45.1922 107.805 45.2907 107.805 45.3563ZM107.135 53.956C107.135 54.0545 107.087 54.153 106.943 54.2186C106.704 54.3499 106.417 54.514 106.13 54.6125C105.891 54.711 105.604 54.6781 105.46 54.514C105.316 54.3499 105.364 54.153 105.604 54.0545C105.843 53.9232 106.082 53.8247 106.321 53.6934C106.513 53.5621 106.848 53.595 106.991 53.7263C107.087 53.8247 107.135 53.8904 107.135 53.956ZM104.694 43.9121C104.694 43.9449 104.694 44.0105 104.647 44.0434C104.551 44.2075 104.264 44.2731 104.025 44.2075C103.737 44.109 103.45 44.0434 103.163 43.9777C102.924 43.9121 102.78 43.748 102.876 43.551C102.972 43.3869 103.211 43.2884 103.498 43.3541C103.833 43.4197 104.12 43.5182 104.407 43.5838C104.599 43.6823 104.694 43.7808 104.694 43.9121ZM103.833 55.2361C103.833 55.3674 103.69 55.4987 103.498 55.5315C103.211 55.5972 102.876 55.6628 102.541 55.7285C102.302 55.7613 102.015 55.6628 101.967 55.4987C101.919 55.3346 102.063 55.1377 102.302 55.1048C102.589 55.0392 102.876 55.0064 103.163 54.9407C103.402 54.8751 103.69 54.9736 103.785 55.1377C103.833 55.1377 103.833 55.1705 103.833 55.2361ZM101.01 43.2884C101.01 43.3213 101.01 43.3213 101.01 43.2884C101.01 43.4854 100.771 43.6167 100.484 43.6167C100.197 43.6167 99.9096 43.5838 99.6225 43.5838C99.3354 43.5838 99.144 43.4525 99.144 43.2556C99.144 43.0587 99.3354 42.9274 99.6225 42.9274V42.9274C99.9574 42.9274 100.244 42.9274 100.579 42.9602C100.819 42.993 101.01 43.1243 101.01 43.2884ZM100.101 55.63C100.101 55.827 99.9096 55.9583 99.6225 55.9583C99.2875 55.9583 98.9526 55.9583 98.6655 55.9254C98.4263 55.9254 98.187 55.7613 98.2349 55.5644C98.2349 55.3674 98.4741 55.2361 98.7612 55.269C99.0483 55.269 99.3832 55.3018 99.6703 55.3018C99.9096 55.3018 100.101 55.4659 100.101 55.63ZM97.23 43.5182C97.23 43.6495 97.0865 43.8136 96.8473 43.8464C96.5602 43.9121 96.2731 43.9449 95.986 44.0105C95.7467 44.0762 95.4596 43.9777 95.364 43.8136C95.2683 43.6495 95.4118 43.4525 95.651 43.3869C95.9381 43.3213 96.2731 43.2556 96.608 43.19C96.8473 43.1571 97.1343 43.2556 97.1822 43.4197C97.23 43.4525 97.23 43.4854 97.23 43.5182ZM96.3688 55.2361C96.3688 55.269 96.3688 55.3018 96.3209 55.3346C96.2252 55.4987 95.986 55.5972 95.6989 55.5315C95.4118 55.4659 95.0769 55.3674 94.7898 55.3018C94.5505 55.2361 94.4548 55.0392 94.5505 54.8751C94.6462 54.711 94.9333 54.6453 95.1726 54.711C95.4596 54.8094 95.7467 54.8751 96.0338 54.9407C96.2731 54.9736 96.3688 55.1048 96.3688 55.2361ZM93.785 44.5685C93.785 44.667 93.6893 44.7655 93.5936 44.8311C93.3543 44.9624 93.1151 45.0609 92.8758 45.1922C92.6844 45.3235 92.3495 45.2907 92.206 45.1594C92.0146 45.0281 92.0624 44.7983 92.2538 44.6998C92.493 44.5685 92.7801 44.4044 93.0672 44.306C93.3065 44.2075 93.5936 44.2403 93.7371 44.4044C93.785 44.4372 93.785 44.5029 93.785 44.5685ZM93.0672 53.9888C93.0672 54.0545 93.0194 54.1201 92.9715 54.1858C92.828 54.3171 92.493 54.3499 92.3017 54.2186C92.0624 54.0873 91.7753 53.9232 91.5839 53.7591C91.3925 53.6278 91.3925 53.4309 91.5839 53.2996C91.7753 53.1683 92.0624 53.1683 92.2538 53.2996C92.4452 53.4309 92.6844 53.595 92.9237 53.7263C93.0194 53.7919 93.0672 53.8904 93.0672 53.9888ZM91.1533 46.4067C91.1533 46.4723 91.1054 46.5379 91.0576 46.5708C90.914 46.7349 90.7227 46.9318 90.627 47.0959C90.5313 47.2601 90.1963 47.3257 90.0049 47.2272C89.7657 47.1616 89.67 46.9646 89.8135 46.8005C89.9571 46.6036 90.1485 46.4067 90.292 46.2097C90.4356 46.0456 90.7227 46.0128 90.9619 46.1112C91.0576 46.1769 91.1533 46.3082 91.1533 46.4067ZM90.6748 51.9866C90.6748 52.1179 90.5791 52.2164 90.4356 52.282C90.1963 52.3805 89.9092 52.3149 89.8135 52.1507C89.67 51.9538 89.5264 51.724 89.4307 51.5271C89.3351 51.363 89.4786 51.166 89.7178 51.1004C89.9571 51.0347 90.2442 51.1332 90.3399 51.2973C90.4356 51.4943 90.5791 51.6912 90.7227 51.8553C90.6748 51.8882 90.6748 51.921 90.6748 51.9866ZM89.8614 48.8356L89.8614 48.8684C89.8135 49.0653 89.8135 49.2623 89.8135 49.4592C89.8135 49.6562 89.6221 49.7875 89.3351 49.7875C89.048 49.7875 88.8566 49.6562 88.8566 49.4592C88.8566 49.2295 88.8566 48.9997 88.9044 48.8028C88.9523 48.6386 89.1915 48.5073 89.4307 48.5073C89.67 48.5073 89.8614 48.6715 89.8614 48.8356Z" fill="#FFBFCD"/>
<path d="M100.101 57.5009L100.101 59.4703C100.436 59.4703 100.723 59.4375 101.058 59.4375L101.058 57.4681C100.723 57.4681 100.436 57.5009 100.101 57.5009Z" fill="#F48BA2"/>
<path d="M97.7085 57.4353L97.7085 59.4047C98.0435 59.4375 98.3306 59.4375 98.6655 59.4703L98.6655 57.5009C98.3306 57.4681 98.0435 57.4681 97.7085 57.4353Z" fill="#F48BA2"/>
<path d="M102.493 57.337L102.493 59.3064C102.828 59.2736 103.115 59.2079 103.45 59.1423L103.45 57.1729C103.115 57.2385 102.828 57.2713 102.493 57.337Z" fill="#F48BA2"/>
<path d="M104.886 56.8773L104.886 58.8467C105.221 58.7482 105.508 58.6826 105.843 58.5841L105.843 56.6147C105.508 56.6803 105.221 56.7788 104.886 56.8773Z" fill="#F48BA2"/>
<path d="M95.3161 57.0742L95.3161 59.0436C95.6511 59.1093 95.9381 59.1749 96.2731 59.2078L96.2731 57.2384C95.9381 57.2055 95.6511 57.1399 95.3161 57.0742Z" fill="#F48BA2"/>
<path d="M92.9237 56.4178L92.9237 58.3872C93.2587 58.4857 93.5458 58.5841 93.8807 58.6826L93.8807 56.7132C93.5458 56.6476 93.2587 56.5491 92.9237 56.4178Z" fill="#F48BA2"/>
<path d="M90.0528 55.1049L90.0528 57.0743C90.3399 57.2713 90.6748 57.4354 91.0097 57.5995L91.0097 55.6301C90.6748 55.466 90.3399 55.269 90.0528 55.1049Z" fill="#F48BA2"/>
<path d="M87.6604 53.0698L87.6604 55.0392C87.9474 55.3674 88.2824 55.6957 88.6173 55.9911L88.6173 54.0217C88.2824 53.7263 87.9474 53.4309 87.6604 53.0698Z" fill="#F48BA2"/>
<path d="M107.757 55.8598L107.757 57.8292C108.092 57.6651 108.427 57.501 108.714 57.3369L108.714 55.3675C108.427 55.5316 108.092 55.6957 107.757 55.8598Z" fill="#F48BA2"/>
<path d="M110.149 56.4178C110.484 56.1553 110.819 55.8927 111.106 55.5973L111.106 53.6279C110.819 53.9233 110.484 54.1859 110.149 54.4484L110.149 56.4178Z" fill="#F48BA2"/>
<path d="M102.101 48.9677L102.101 50.2579L103.45 50.2579L103.45 51.2676L102.101 51.2676L102.101 52.089L100.915 52.089L100.915 51.2676L100.29 51.2676L100.29 52.089L99.1047 52.089L99.1047 51.2676L94.946 51.2676L94.946 49.0358C94.946 48.3921 95.1913 47.8779 95.6819 47.4932C96.1687 47.1086 96.817 46.9163 97.627 46.9163C98.4525 46.9163 99.1008 47.0992 99.572 47.4652C100.039 47.8311 100.279 48.34 100.29 48.9918L100.29 50.2579L100.915 50.2579L100.915 48.9677L102.101 48.9677ZM99.1047 50.2579L99.1047 49.0519C99.1047 48.6886 98.982 48.4108 98.7367 48.2185C98.4914 48.0261 98.1254 47.93 97.6386 47.93C97.2025 47.93 96.8462 48.0248 96.5698 48.2145C96.2933 48.4014 96.1492 48.6605 96.1375 48.9918L96.1375 50.2579L99.1047 50.2579Z" fill="#F48BA2"/>
<path d="M113.02 47.3377C113.02 51.7688 107.039 55.3794 99.6225 55.3794C92.206 55.3794 86.2249 51.7688 86.2249 47.3377C86.2249 42.9065 92.206 39.2959 99.6225 39.2959C107.039 39.2959 113.02 42.9065 113.02 47.3377Z" fill="#FFDCE4"/>
<path d="M99.6224 55.3795C92.7801 55.3795 87.134 52.2941 86.3206 48.3225C86.2727 48.6507 86.2249 48.9789 86.2249 49.3072C86.2249 53.7383 92.2059 57.3489 99.6224 57.3489C107.039 57.3489 113.02 53.7383 113.02 49.3072C113.02 48.9789 112.972 48.6507 112.924 48.3224C112.111 52.2941 106.465 55.3795 99.6224 55.3795Z" fill="#FFBFCD"/>
<path d="M110.388 47.3049C110.388 47.5675 110.388 47.7973 110.341 48.0271C110.293 48.1912 110.053 48.3225 109.814 48.3225C109.575 48.2896 109.384 48.1255 109.384 47.9614C109.431 47.7645 109.431 47.5675 109.431 47.3378C109.431 47.1408 109.623 47.0095 109.91 47.0095C110.197 47.0095 110.388 47.1408 110.388 47.3049ZM109.862 45.4012C109.862 45.5325 109.766 45.6638 109.575 45.6966C109.336 45.7622 109.049 45.6638 108.953 45.4997C108.857 45.3027 108.714 45.1058 108.57 44.9417C108.427 44.7775 108.522 44.5806 108.762 44.515C109.001 44.4165 109.288 44.4821 109.384 44.6462C109.527 44.8432 109.671 45.073 109.766 45.2699C109.862 45.3355 109.862 45.3684 109.862 45.4012ZM109.527 49.8323C109.527 49.898 109.527 49.9308 109.479 49.9965C109.336 50.1934 109.144 50.3903 109.001 50.5873C108.857 50.7514 108.57 50.7842 108.331 50.6857C108.092 50.5873 108.044 50.3903 108.187 50.2262C108.331 50.0621 108.522 49.8652 108.618 49.701C108.762 49.5369 109.049 49.4713 109.24 49.5698C109.431 49.6026 109.527 49.7339 109.527 49.8323ZM107.805 43.2348C107.805 43.3333 107.757 43.399 107.661 43.4646C107.47 43.5959 107.183 43.5959 106.991 43.4646C106.8 43.3333 106.561 43.1692 106.321 43.0379C106.13 42.9394 106.082 42.7097 106.273 42.5784C106.465 42.4471 106.752 42.4143 106.943 42.5456C107.183 42.6768 107.47 42.841 107.661 43.0051C107.757 43.0707 107.805 43.1692 107.805 43.2348ZM107.135 51.8346C107.135 51.933 107.087 52.0315 106.943 52.0972C106.704 52.2284 106.417 52.3926 106.13 52.491C105.891 52.5895 105.604 52.5567 105.46 52.3926C105.316 52.2284 105.364 52.0315 105.604 51.933C105.843 51.8017 106.082 51.7033 106.321 51.572C106.513 51.4407 106.848 51.4735 106.991 51.6048C107.087 51.7033 107.135 51.7689 107.135 51.8346ZM104.694 41.7906C104.694 41.8234 104.694 41.8891 104.647 41.9219C104.551 42.086 104.264 42.1517 104.025 42.086C103.737 41.9876 103.45 41.9219 103.163 41.8563C102.924 41.7906 102.78 41.6265 102.876 41.4296C102.972 41.2654 103.211 41.167 103.498 41.2326C103.833 41.2983 104.12 41.3967 104.407 41.4624C104.599 41.5609 104.694 41.6593 104.694 41.7906ZM103.833 53.1147C103.833 53.246 103.69 53.3773 103.498 53.4101C103.211 53.4757 102.876 53.5414 102.541 53.607C102.302 53.6399 102.015 53.5414 101.967 53.3773C101.919 53.2131 102.063 53.0162 102.302 52.9834C102.589 52.9177 102.876 52.8849 103.163 52.8193C103.403 52.7536 103.69 52.8521 103.785 53.0162C103.833 53.0162 103.833 53.049 103.833 53.1147ZM101.01 41.167C101.01 41.1998 101.01 41.1998 101.01 41.167C101.01 41.3639 100.771 41.4952 100.484 41.4952C100.197 41.4952 99.9096 41.4624 99.6225 41.4624C99.3354 41.4624 99.144 41.3311 99.144 41.1341C99.144 40.9372 99.3354 40.8059 99.6225 40.8059V40.8059C99.9574 40.8059 100.245 40.8059 100.579 40.8387C100.819 40.8716 101.01 41.0029 101.01 41.167ZM100.101 53.5086C100.101 53.7055 99.9096 53.8368 99.6225 53.8368C99.2876 53.8368 98.9526 53.8368 98.6655 53.804C98.4263 53.804 98.187 53.6399 98.2349 53.4429C98.2349 53.246 98.4741 53.1147 98.7612 53.1475C99.0483 53.1475 99.3833 53.1803 99.6703 53.1803C99.9096 53.1803 100.101 53.3444 100.101 53.5086ZM97.2301 41.3967C97.2301 41.528 97.0865 41.6921 96.8473 41.725C96.5602 41.7906 96.2731 41.8234 95.986 41.8891C95.7468 41.9547 95.4597 41.8563 95.364 41.6921C95.2683 41.528 95.4118 41.3311 95.6511 41.2654C95.9382 41.1998 96.2731 41.1341 96.608 41.0685C96.8473 41.0357 97.1344 41.1341 97.1822 41.2983C97.2301 41.3311 97.2301 41.3639 97.2301 41.3967ZM96.3688 53.1147C96.3688 53.1475 96.3688 53.1803 96.321 53.2131C96.2253 53.3773 95.986 53.4757 95.6989 53.4101C95.4118 53.3444 95.0769 53.246 94.7898 53.1803C94.5506 53.1147 94.4549 52.9177 94.5506 52.7536C94.6463 52.5895 94.9333 52.5239 95.1726 52.5895C95.4597 52.688 95.7468 52.7536 96.0339 52.8193C96.2731 52.8521 96.3688 52.9834 96.3688 53.1147ZM93.785 42.4471C93.785 42.5456 93.6893 42.644 93.5936 42.7097C93.3543 42.841 93.1151 42.9394 92.8759 43.0707C92.6845 43.202 92.3495 43.1692 92.206 43.0379C92.0146 42.9066 92.0624 42.6768 92.2538 42.5784C92.4931 42.4471 92.7802 42.283 93.0673 42.1845C93.3065 42.086 93.5936 42.1188 93.7371 42.283C93.785 42.3158 93.785 42.3814 93.785 42.4471ZM93.0673 51.8674C93.0673 51.933 93.0194 51.9987 92.9716 52.0643C92.828 52.1956 92.4931 52.2284 92.3017 52.0972C92.0624 51.9659 91.7754 51.8017 91.584 51.6376C91.3926 51.5063 91.3926 51.3094 91.584 51.1781C91.7754 51.0468 92.0624 51.0468 92.2538 51.1781C92.4452 51.3094 92.6845 51.4735 92.9237 51.6048C93.0194 51.6704 93.0673 51.7689 93.0673 51.8674ZM91.1533 44.2852C91.1533 44.3508 91.1055 44.4165 91.0576 44.4493C90.9141 44.6134 90.7227 44.8104 90.627 44.9745C90.5313 45.1386 90.1964 45.2042 90.005 45.1058C89.7657 45.0401 89.67 44.8432 89.8136 44.6791C89.9571 44.4821 90.1485 44.2852 90.292 44.0883C90.4356 43.9241 90.7227 43.8913 90.9619 43.9898C91.0576 44.0554 91.1533 44.1867 91.1533 44.2852ZM90.6748 49.8652C90.6748 49.9965 90.5791 50.0949 90.4356 50.1606C90.1964 50.259 89.9093 50.1934 89.8136 50.0293C89.67 49.8323 89.5265 49.6026 89.4308 49.4056C89.3351 49.2415 89.4786 49.0446 89.7179 48.9789C89.9571 48.9133 90.2442 49.0118 90.3399 49.1759C90.4356 49.3728 90.5791 49.5698 90.7227 49.7339C90.6748 49.7667 90.6748 49.7995 90.6748 49.8652ZM89.8614 46.7141L89.8614 46.7469C89.8136 46.9439 89.8136 47.1408 89.8136 47.3378C89.8136 47.5347 89.6222 47.666 89.3351 47.666C89.048 47.666 88.8566 47.5347 88.8566 47.3378C88.8566 47.108 88.8566 46.8782 88.9044 46.6813C88.9523 46.5172 89.1915 46.3859 89.4308 46.3859C89.67 46.3859 89.8614 46.55 89.8614 46.7141Z" fill="#FFBFCD"/>
<path d="M100.101 55.3795L100.101 57.3489C100.436 57.3489 100.723 57.3161 101.058 57.3161L101.058 55.3467C100.723 55.3467 100.436 55.3795 100.101 55.3795Z" fill="#F48BA2"/>
<path d="M97.7086 55.3138L97.7086 57.2832C98.0435 57.3161 98.3306 57.3161 98.6655 57.3489L98.6655 55.3795C98.3306 55.3467 98.0435 55.3467 97.7086 55.3138Z" fill="#F48BA2"/>
<path d="M102.493 55.2153L102.493 57.1847C102.828 57.1519 103.115 57.0862 103.45 57.0206L103.45 55.0512C103.115 55.1168 102.828 55.1496 102.493 55.2153Z" fill="#F48BA2"/>
<path d="M104.886 54.7557L104.886 56.7251C105.221 56.6266 105.508 56.561 105.843 56.4625L105.843 54.4931C105.508 54.5588 105.221 54.6572 104.886 54.7557Z" fill="#F48BA2"/>
<path d="M95.3161 54.9528L95.3161 56.9222C95.6511 56.9878 95.9382 57.0535 96.2731 57.0863L96.2731 55.1169C95.9382 55.0841 95.6511 55.0184 95.3161 54.9528Z" fill="#F48BA2"/>
<path d="M92.9238 54.2962L92.9238 56.2656C93.2587 56.3641 93.5458 56.4626 93.8807 56.561L93.8807 54.5916C93.5458 54.526 93.2587 54.4275 92.9238 54.2962Z" fill="#F48BA2"/>
<path d="M90.0528 52.9832L90.0528 54.9526C90.3399 55.1495 90.6748 55.3137 91.0098 55.4778L91.0098 53.5084C90.6748 53.3443 90.3399 53.1473 90.0528 52.9832Z" fill="#F48BA2"/>
<path d="M87.6604 50.9483L87.6604 52.9178C87.9475 53.246 88.2824 53.5742 88.6174 53.8696L88.6174 51.9002C88.2824 51.6048 87.9475 51.3094 87.6604 50.9483Z" fill="#F48BA2"/>
<path d="M107.757 53.7382L107.757 55.7076C108.092 55.5435 108.427 55.3794 108.714 55.2153L108.714 53.2459C108.427 53.41 108.092 53.5741 107.757 53.7382Z" fill="#F48BA2"/>
<path d="M110.149 54.2961C110.484 54.0336 110.819 53.771 111.106 53.4756L111.106 51.5062C110.819 51.8016 110.484 52.0642 110.149 52.3267L110.149 54.2961Z" fill="#F48BA2"/>
<path d="M102.101 46.8463L102.101 48.1364L103.45 48.1364L103.45 49.1461L102.101 49.1461L102.101 49.9675L100.915 49.9675L100.915 49.1461L100.29 49.1461L100.29 49.9675L99.1047 49.9675L99.1047 49.1461L94.946 49.1461L94.946 46.9144C94.946 46.2706 95.1913 45.7564 95.682 45.3718C96.1687 44.9871 96.8171 44.7948 97.627 44.7948C98.4525 44.7948 99.1008 44.9778 99.572 45.3437C100.039 45.7097 100.279 46.2185 100.29 46.8703L100.29 48.1364L100.915 48.1364L100.915 46.8463L102.101 46.8463ZM99.1047 48.1364L99.1047 46.9304C99.1047 46.5671 98.9821 46.2893 98.7368 46.097C98.4914 45.9047 98.1254 45.8085 97.6387 45.8085C97.2026 45.8085 96.8463 45.9033 96.5698 46.093C96.2933 46.28 96.1492 46.5391 96.1376 46.8703L96.1376 48.1364L99.1047 48.1364Z" fill="#F48BA2"/>
</svg>
