<svg width="56" height="29" viewBox="0 0 56 29" fill="none" xmlns="http://www.w3.org/2000/svg">
<path d="M26.7951 18.7433C26.7951 23.1745 20.8141 26.785 13.3976 26.785C5.98108 26.785 3.02875e-05 23.1745 3.00052e-05 18.7433C2.97228e-05 14.3122 5.98108 10.7016 13.3976 10.7016C20.8141 10.7016 26.7951 14.3122 26.7951 18.7433Z" fill="white"/>
<path d="M13.3976 26.7851C6.55523 26.7851 0.90912 23.6997 0.0956963 19.7281C0.0478479 20.0563 -5.33338e-07 20.3846 -5.12423e-07 20.7128C-2.30067e-07 25.1439 5.98105 28.7545 13.3976 28.7545C20.8141 28.7545 26.7951 25.1439 26.7951 20.7128C26.7951 20.3846 26.7473 20.0563 26.6994 19.7281C25.886 23.6997 20.2399 26.7851 13.3976 26.7851Z" fill="#FFBFCD"/>
<path d="M24.1635 18.7106C24.1635 18.9732 24.1635 19.2029 24.1157 19.4327C24.0678 19.5968 23.8286 19.7281 23.5893 19.7281C23.3501 19.6953 23.1587 19.5312 23.1587 19.367C23.2065 19.1701 23.2065 18.9732 23.2065 18.7434C23.2065 18.5465 23.3979 18.4152 23.685 18.4152C23.9721 18.4152 24.1635 18.5465 24.1635 18.7106ZM23.6372 16.8068C23.6372 16.9381 23.5415 17.0694 23.3501 17.1022C23.1108 17.1679 22.8237 17.0694 22.728 16.9053C22.6324 16.7084 22.4888 16.5114 22.3453 16.3473C22.2017 16.1832 22.2974 15.9862 22.5367 15.9206C22.7759 15.8221 23.063 15.8878 23.1587 16.0519C23.3022 16.2488 23.4458 16.4786 23.5415 16.6755C23.6372 16.7412 23.6372 16.774 23.6372 16.8068ZM23.3022 21.238C23.3022 21.3036 23.3022 21.3365 23.2544 21.4021C23.1108 21.599 22.9194 21.796 22.7759 21.9929C22.6324 22.157 22.3453 22.1899 22.106 22.0914C21.8668 21.9929 21.8189 21.796 21.9625 21.6319C22.106 21.4677 22.2974 21.2708 22.3931 21.1067C22.5367 20.9426 22.8237 20.8769 23.0151 20.9754C23.2065 21.0082 23.3022 21.1395 23.3022 21.238ZM21.5797 14.6405C21.5797 14.739 21.5318 14.8046 21.4361 14.8702C21.2447 15.0015 20.9577 15.0015 20.7663 14.8702C20.5749 14.739 20.3356 14.5748 20.0964 14.4435C19.905 14.3451 19.8571 14.1153 20.0485 13.984C20.2399 13.8527 20.527 13.8199 20.7184 13.9512C20.9577 14.0825 21.2447 14.2466 21.4361 14.4107C21.5318 14.4764 21.5797 14.5748 21.5797 14.6405ZM20.9098 23.2402C20.9098 23.3387 20.862 23.4371 20.7184 23.5028C20.4792 23.6341 20.1921 23.7982 19.905 23.8967C19.6657 23.9951 19.3787 23.9623 19.2351 23.7982C19.0916 23.6341 19.1394 23.4371 19.3787 23.3387C19.6179 23.2074 19.8571 23.1089 20.0964 22.9776C20.2878 22.8463 20.6227 22.8791 20.7663 23.0104C20.862 23.1089 20.9098 23.1746 20.9098 23.2402ZM18.4695 13.1963C18.4695 13.2291 18.4695 13.2947 18.4217 13.3275C18.326 13.4917 18.0389 13.5573 17.7997 13.4917C17.5126 13.3932 17.2255 13.3275 16.9384 13.2619C16.6991 13.1963 16.5556 13.0321 16.6513 12.8352C16.747 12.6711 16.9862 12.5726 17.2733 12.6383C17.6083 12.7039 17.8954 12.8024 18.1824 12.868C18.3738 12.9665 18.4695 13.065 18.4695 13.1963ZM17.6083 24.5203C17.6083 24.6516 17.4647 24.7829 17.2733 24.8157C16.9862 24.8814 16.6513 24.947 16.3164 25.0127C16.0771 25.0455 15.79 24.947 15.7422 24.7829C15.6943 24.6188 15.8379 24.4218 16.0771 24.389C16.3642 24.3234 16.6513 24.2906 16.9384 24.2249C17.1776 24.1593 17.4647 24.2577 17.5604 24.4218C17.6083 24.4218 17.6083 24.4547 17.6083 24.5203ZM14.7852 12.5726C14.7852 12.6054 14.7852 12.6054 14.7852 12.5726C14.7852 12.7696 14.546 12.9008 14.2589 12.9008C13.9718 12.9008 13.6847 12.868 13.3976 12.868C13.1105 12.868 12.9191 12.7367 12.9191 12.5398C12.9191 12.3428 13.1105 12.2116 13.3976 12.2116V12.2116C13.7325 12.2116 14.0196 12.2116 14.3546 12.2444C14.5938 12.2772 14.7852 12.4085 14.7852 12.5726ZM13.8761 24.9142C13.8761 25.1111 13.6847 25.2424 13.3976 25.2424C13.0627 25.2424 12.7277 25.2424 12.4406 25.2096C12.2014 25.2096 11.9622 25.0455 12.01 24.8486C12.01 24.6516 12.2492 24.5203 12.5363 24.5531C12.8234 24.5531 13.1584 24.586 13.4455 24.586C13.6847 24.586 13.8761 24.7501 13.8761 24.9142ZM11.0052 12.8024C11.0052 12.9337 10.8616 13.0978 10.6224 13.1306C10.3353 13.1963 10.0482 13.2291 9.76113 13.2947C9.52189 13.3604 9.2348 13.2619 9.1391 13.0978C9.0434 12.9337 9.18695 12.7367 9.42619 12.6711C9.71328 12.6054 10.0482 12.5398 10.3832 12.4741C10.6224 12.4413 10.9095 12.5398 10.9573 12.7039C11.0052 12.7367 11.0052 12.7696 11.0052 12.8024ZM10.1439 24.5203C10.1439 24.5531 10.1439 24.586 10.0961 24.6188C10.0004 24.7829 9.76113 24.8814 9.47404 24.8157C9.18695 24.7501 8.85201 24.6516 8.56492 24.586C8.32568 24.5203 8.22998 24.3234 8.32568 24.1593C8.42137 23.9951 8.70846 23.9295 8.94771 23.9951C9.2348 24.0936 9.52189 24.1593 9.80898 24.2249C10.0482 24.2577 10.1439 24.389 10.1439 24.5203ZM7.5601 13.8527C7.5601 13.9512 7.4644 14.0497 7.36871 14.1153C7.12946 14.2466 6.89022 14.3451 6.65098 14.4764C6.45959 14.6077 6.12465 14.5748 5.9811 14.4435C5.78971 14.3123 5.83756 14.0825 6.02895 13.984C6.26819 13.8527 6.55528 13.6886 6.84237 13.5901C7.08162 13.4917 7.36871 13.5245 7.51225 13.6886C7.5601 13.7214 7.5601 13.7871 7.5601 13.8527ZM6.84237 23.273C6.84237 23.3387 6.79453 23.4043 6.74668 23.47C6.60313 23.6013 6.26819 23.6341 6.0768 23.5028C5.83756 23.3715 5.55047 23.2074 5.35907 23.0433C5.16768 22.912 5.16768 22.715 5.35907 22.5837C5.55047 22.4524 5.83756 22.4524 6.02895 22.5837C6.22035 22.715 6.45959 22.8791 6.69883 23.0104C6.79453 23.0761 6.84237 23.1746 6.84237 23.273ZM4.92844 15.6908C4.92844 15.7565 4.88059 15.8221 4.83274 15.8549C4.6892 16.0191 4.4978 16.216 4.4021 16.3801C4.30641 16.5442 3.97147 16.6099 3.78008 16.5114C3.54083 16.4458 3.44514 16.2488 3.58868 16.0847C3.73223 15.8878 3.92362 15.6908 4.06717 15.4939C4.21071 15.3298 4.4978 15.297 4.73704 15.3954C4.83274 15.4611 4.92844 15.5924 4.92844 15.6908ZM4.44995 21.2708C4.44995 21.4021 4.35426 21.5006 4.21071 21.5662C3.97147 21.6647 3.68438 21.599 3.58868 21.4349C3.44514 21.238 3.30159 21.0082 3.20589 20.8113C3.1102 20.6472 3.25374 20.4502 3.49299 20.3846C3.73223 20.3189 4.01932 20.4174 4.11501 20.5815C4.21071 20.7785 4.35426 20.9754 4.4978 21.1395C4.44995 21.1723 4.44995 21.2052 4.44995 21.2708ZM3.63653 18.1198L3.63653 18.1526C3.58868 18.3495 3.58868 18.5465 3.58868 18.7434C3.58868 18.9403 3.39729 19.0716 3.1102 19.0716C2.82311 19.0716 2.63171 18.9403 2.63171 18.7434C2.63171 18.5136 2.63171 18.2839 2.67956 18.0869C2.72741 17.9228 2.96665 17.7915 3.20589 17.7915C3.44514 17.7915 3.63653 17.9556 3.63653 18.1198Z" fill="#FFBFCD"/>
<path d="M13.8761 26.7851L13.8761 28.7545C14.211 28.7545 14.4981 28.7217 14.8331 28.7217L14.8331 26.7523C14.4981 26.7523 14.211 26.7851 13.8761 26.7851Z" fill="#F48BA2"/>
<path d="M11.4837 26.7195L11.4837 28.6889C11.8186 28.7217 12.1057 28.7217 12.4406 28.7545L12.4406 26.7851C12.1057 26.7523 11.8186 26.7523 11.4837 26.7195Z" fill="#F48BA2"/>
<path d="M16.2685 26.6211L16.2685 28.5905C16.6034 28.5576 16.8905 28.492 17.2255 28.4263L17.2255 26.4569C16.8905 26.5226 16.6034 26.5554 16.2685 26.6211Z" fill="#F48BA2"/>
<path d="M18.6609 26.1615L18.6609 28.1309C18.9959 28.0324 19.2829 27.9667 19.6179 27.8683L19.6179 25.8989C19.2829 25.9645 18.9959 26.063 18.6609 26.1615Z" fill="#F48BA2"/>
<path d="M9.09128 26.3584L9.09128 28.3278C9.42622 28.3935 9.71331 28.4591 10.0482 28.4919L10.0482 26.5225C9.71331 26.4897 9.42622 26.4241 9.09128 26.3584Z" fill="#F48BA2"/>
<path d="M6.69885 25.702L6.69885 27.6714C7.03379 27.7699 7.32088 27.8683 7.65582 27.9668L7.65582 25.9974C7.32088 25.9317 7.03379 25.8333 6.69885 25.702Z" fill="#F48BA2"/>
<path d="M3.82791 24.3888L3.82791 26.3582C4.115 26.5552 4.44994 26.7193 4.78488 26.8834L4.78488 24.914C4.44994 24.7499 4.115 24.553 3.82791 24.3888Z" fill="#F48BA2"/>
<path d="M1.43552 22.3539L1.43552 24.3233C1.72261 24.6515 2.05755 24.9797 2.39248 25.2751L2.39248 23.3057C2.05755 23.0103 1.72261 22.7149 1.43552 22.3539Z" fill="#F48BA2"/>
<path d="M21.5319 25.144L21.5319 27.1134C21.8668 26.9493 22.2017 26.7852 22.4888 26.6211L22.4888 24.6517C22.2017 24.8158 21.8668 24.9799 21.5319 25.144Z" fill="#F48BA2"/>
<path d="M23.9243 25.7019C24.2592 25.4393 24.5942 25.1767 24.8813 24.8813L24.8813 22.9119C24.5942 23.2073 24.2592 23.4699 23.9243 23.7325L23.9243 25.7019Z" fill="#F48BA2"/>
<path d="M15.8762 18.2518L15.8762 19.542L17.2255 19.542L17.2255 20.5517L15.8762 20.5517L15.8762 21.373L14.6905 21.373L14.6905 20.5517L14.0656 20.5517L14.0656 21.373L12.8799 21.373L12.8799 20.5517L8.72116 20.5517L8.72116 18.3199C8.72116 17.6761 8.96648 17.1619 9.45711 16.7773C9.94385 16.3926 10.5922 16.2003 11.4021 16.2003C12.2276 16.2003 12.876 16.3833 13.3471 16.7492C13.8144 17.1152 14.0539 17.6241 14.0656 18.2758L14.0656 19.542L14.6905 19.542L14.6905 18.2518L15.8762 18.2518ZM12.8799 19.542L12.8799 18.3359C12.8799 17.9726 12.7572 17.6948 12.5119 17.5025C12.2666 17.3102 11.9005 17.214 11.4138 17.214C10.9777 17.214 10.6214 17.3089 10.3449 17.4985C10.0685 17.6855 9.92438 17.9446 9.9127 18.2758L9.9127 19.542L12.8799 19.542Z" fill="#F48BA2"/>
<path d="M26.7952 16.6218C26.7952 21.053 20.8141 24.6636 13.3976 24.6636C5.98111 24.6636 6.08051e-05 21.053 6.05227e-05 16.6218C6.02404e-05 12.1907 5.98111 8.58012 13.3976 8.58012C20.8141 8.58012 26.7952 12.1907 26.7952 16.6218Z" fill="white"/>
<path d="M13.3976 24.6635C6.55526 24.6635 0.90915 21.5781 0.0957268 17.6065C0.0478784 17.9347 2.99842e-05 18.263 3.00052e-05 18.5912C3.02875e-05 23.0224 5.98108 26.6329 13.3976 26.6329C20.8141 26.6329 26.7951 23.0224 26.7951 18.5912C26.7951 18.263 26.7473 17.9347 26.6994 17.6065C25.886 21.5781 20.2399 24.6635 13.3976 24.6635Z" fill="#FFBFCD"/>
<path d="M24.1635 16.589C24.1635 16.8516 24.1635 17.0813 24.1157 17.3111C24.0678 17.4752 23.8286 17.6065 23.5894 17.6065C23.3501 17.5737 23.1587 17.4096 23.1587 17.2455C23.2066 17.0485 23.2066 16.8516 23.2066 16.6218C23.2066 16.4249 23.398 16.2936 23.685 16.2936C23.9721 16.2936 24.1635 16.4249 24.1635 16.589ZM23.6372 14.6852C23.6372 14.8165 23.5415 14.9478 23.3501 14.9807C23.1109 15.0463 22.8238 14.9478 22.7281 14.7837C22.6324 14.5868 22.4888 14.3898 22.3453 14.2257C22.2017 14.0616 22.2974 13.8647 22.5367 13.799C22.7759 13.7005 23.063 13.7662 23.1587 13.9303C23.3023 14.1272 23.4458 14.357 23.5415 14.554C23.6372 14.6196 23.6372 14.6524 23.6372 14.6852ZM23.3023 19.1164C23.3023 19.182 23.3023 19.2149 23.2544 19.2805C23.1109 19.4775 22.9195 19.6744 22.7759 19.8713C22.6324 20.0355 22.3453 20.0683 22.1061 19.9698C21.8668 19.8713 21.819 19.6744 21.9625 19.5103C22.1061 19.3462 22.2974 19.1492 22.3931 18.9851C22.5367 18.821 22.8238 18.7553 23.0152 18.8538C23.2066 18.8866 23.3023 19.0179 23.3023 19.1164ZM21.5797 12.5189C21.5797 12.6174 21.5319 12.683 21.4362 12.7487C21.2448 12.88 20.9577 12.88 20.7663 12.7487C20.5749 12.6174 20.3357 12.4533 20.0964 12.322C19.905 12.2235 19.8572 11.9937 20.0486 11.8624C20.24 11.7311 20.5271 11.6983 20.7184 11.8296C20.9577 11.9609 21.2448 12.125 21.4362 12.2891C21.5319 12.3548 21.5797 12.4533 21.5797 12.5189ZM20.9098 21.1186C20.9098 21.2171 20.862 21.3156 20.7184 21.3812C20.4792 21.5125 20.1921 21.6766 19.905 21.7751C19.6658 21.8736 19.3787 21.8407 19.2351 21.6766C19.0916 21.5125 19.1394 21.3156 19.3787 21.2171C19.6179 21.0858 19.8572 20.9873 20.0964 20.856C20.2878 20.7247 20.6228 20.7576 20.7663 20.8889C20.862 20.9873 20.9098 21.053 20.9098 21.1186ZM18.4696 11.0747C18.4696 11.1075 18.4696 11.1731 18.4217 11.206C18.326 11.3701 18.0389 11.4357 17.7997 11.3701C17.5126 11.2716 17.2255 11.206 16.9384 11.1403C16.6992 11.0747 16.5556 10.9106 16.6513 10.7136C16.747 10.5495 16.9863 10.451 17.2734 10.5167C17.6083 10.5823 17.8954 10.6808 18.1825 10.7464C18.3739 10.8449 18.4696 10.9434 18.4696 11.0747ZM17.6083 22.3987C17.6083 22.53 17.4648 22.6613 17.2734 22.6941C16.9863 22.7598 16.6513 22.8254 16.3164 22.8911C16.0771 22.9239 15.7901 22.8254 15.7422 22.6613C15.6944 22.4972 15.8379 22.3003 16.0771 22.2674C16.3642 22.2018 16.6513 22.169 16.9384 22.1033C17.1777 22.0377 17.4648 22.1361 17.5605 22.3003C17.6083 22.3003 17.6083 22.3331 17.6083 22.3987ZM14.7852 10.451C14.7852 10.4839 14.7852 10.4839 14.7852 10.451C14.7852 10.648 14.546 10.7793 14.2589 10.7793C13.9718 10.7793 13.6847 10.7464 13.3976 10.7464C13.1105 10.7464 12.9192 10.6151 12.9192 10.4182C12.9192 10.2213 13.1105 10.09 13.3976 10.09V10.09C13.7326 10.09 14.0197 10.09 14.3546 10.1228C14.5938 10.1556 14.7852 10.2869 14.7852 10.451ZM13.8761 22.7926C13.8761 22.9896 13.6847 23.1208 13.3976 23.1208C13.0627 23.1208 12.7278 23.1208 12.4407 23.088C12.2014 23.088 11.9622 22.9239 12.01 22.727C12.01 22.53 12.2493 22.3987 12.5364 22.4316C12.8235 22.4316 13.1584 22.4644 13.4455 22.4644C13.6847 22.4644 13.8761 22.6285 13.8761 22.7926ZM11.0052 10.6808C11.0052 10.8121 10.8617 10.9762 10.6224 11.009C10.3353 11.0747 10.0482 11.1075 9.76116 11.1731C9.52192 11.2388 9.23483 11.1403 9.13913 10.9762C9.04343 10.8121 9.18698 10.6151 9.42622 10.5495C9.71331 10.4839 10.0482 10.4182 10.3832 10.3526C10.6224 10.3197 10.9095 10.4182 10.9574 10.5823C11.0052 10.6151 11.0052 10.648 11.0052 10.6808ZM10.1439 22.3987C10.1439 22.4316 10.1439 22.4644 10.0961 22.4972C10.0004 22.6613 9.76116 22.7598 9.47407 22.6941C9.18698 22.6285 8.85204 22.53 8.56495 22.4644C8.32571 22.3987 8.23001 22.2018 8.32571 22.0377C8.4214 21.8736 8.70849 21.8079 8.94774 21.8736C9.23483 21.972 9.52192 22.0377 9.80901 22.1033C10.0482 22.1361 10.1439 22.2674 10.1439 22.3987ZM7.56013 11.7311C7.56013 11.8296 7.46443 11.9281 7.36874 11.9937C7.12949 12.125 6.89025 12.2235 6.65101 12.3548C6.45962 12.4861 6.12468 12.4533 5.98113 12.322C5.78974 12.1907 5.83759 11.9609 6.02898 11.8624C6.26822 11.7311 6.55531 11.567 6.8424 11.4686C7.08165 11.3701 7.36874 11.4029 7.51228 11.567C7.56013 11.5998 7.56013 11.6655 7.56013 11.7311ZM6.84241 21.1514C6.84241 21.2171 6.79456 21.2827 6.74671 21.3484C6.60316 21.4797 6.26822 21.5125 6.07683 21.3812C5.83759 21.2499 5.5505 21.0858 5.3591 20.9217C5.16771 20.7904 5.16771 20.5935 5.3591 20.4622C5.5505 20.3309 5.83759 20.3309 6.02898 20.4622C6.22038 20.5935 6.45962 20.7576 6.69886 20.8889C6.79456 20.9545 6.84241 21.053 6.84241 21.1514ZM4.92847 13.5692C4.92847 13.6349 4.88062 13.7005 4.83277 13.7334C4.68923 13.8975 4.49783 14.0944 4.40214 14.2585C4.30644 14.4227 3.9715 14.4883 3.78011 14.3898C3.54086 14.3242 3.44517 14.1272 3.58871 13.9631C3.73226 13.7662 3.92365 13.5692 4.0672 13.3723C4.21074 13.2082 4.49783 13.1754 4.73707 13.2738C4.83277 13.3395 4.92847 13.4708 4.92847 13.5692ZM4.44998 19.1492C4.44998 19.2805 4.35429 19.379 4.21074 19.4446C3.9715 19.5431 3.68441 19.4775 3.58871 19.3133C3.44517 19.1164 3.30162 18.8866 3.20593 18.6897C3.11023 18.5256 3.25377 18.3286 3.49302 18.263C3.73226 18.1973 4.01935 18.2958 4.11505 18.4599C4.21074 18.6569 4.35429 18.8538 4.49783 19.0179C4.44998 19.0508 4.44998 19.0836 4.44998 19.1492ZM3.63656 15.9982L3.63656 16.031C3.58871 16.2279 3.58871 16.4249 3.58871 16.6218C3.58871 16.8188 3.39732 16.9501 3.11023 16.9501C2.82314 16.9501 2.63174 16.8188 2.63174 16.6218C2.63174 16.3921 2.63174 16.1623 2.67959 15.9654C2.72744 15.8012 2.96668 15.6699 3.20592 15.6699C3.44517 15.6699 3.63656 15.8341 3.63656 15.9982Z" fill="#FFBFCD"/>
<path d="M13.8761 24.6635L13.8761 26.6329C14.2111 26.6329 14.4982 26.6001 14.8331 26.6001L14.8331 24.6307C14.4982 24.6307 14.2111 24.6635 13.8761 24.6635Z" fill="#F48BA2"/>
<path d="M11.4837 24.5979L11.4837 26.5673C11.8186 26.6001 12.1057 26.6001 12.4407 26.6329L12.4407 24.6635C12.1057 24.6307 11.8186 24.6307 11.4837 24.5979Z" fill="#F48BA2"/>
<path d="M16.2685 24.4995L16.2685 26.4689C16.6035 26.436 16.8906 26.3704 17.2255 26.3048L17.2255 24.3354C16.8906 24.401 16.6035 24.4338 16.2685 24.4995Z" fill="#F48BA2"/>
<path d="M18.6609 24.04L18.6609 26.0094C18.9959 25.9109 19.283 25.8453 19.6179 25.7468L19.6179 23.7774C19.283 23.8431 18.9959 23.9415 18.6609 24.04Z" fill="#F48BA2"/>
<path d="M9.09131 24.237L9.09131 26.2064C9.42625 26.272 9.71334 26.3377 10.0483 26.3705L10.0483 24.4011C9.71334 24.3683 9.42625 24.3026 9.09131 24.237Z" fill="#F48BA2"/>
<path d="M6.69888 23.5804L6.69888 25.5498C7.03382 25.6483 7.32091 25.7467 7.65585 25.8452L7.65585 23.8758C7.32091 23.8102 7.03382 23.7117 6.69888 23.5804Z" fill="#F48BA2"/>
<path d="M3.82794 22.2675L3.82794 24.2369C4.11503 24.4339 4.44997 24.598 4.78491 24.7621L4.78491 22.7927C4.44997 22.6286 4.11503 22.4316 3.82794 22.2675Z" fill="#F48BA2"/>
<path d="M1.43555 20.2324L1.43555 22.2018C1.72264 22.53 2.05758 22.8583 2.39252 23.1537L2.39252 21.1843C2.05758 20.8889 1.72264 20.5935 1.43555 20.2324Z" fill="#F48BA2"/>
<path d="M21.5319 23.0225L21.5319 24.9919C21.8668 24.8278 22.2018 24.6637 22.4889 24.4996L22.4889 22.5302C22.2018 22.6943 21.8668 22.8584 21.5319 23.0225Z" fill="#F48BA2"/>
<path d="M23.9243 23.5804C24.2593 23.3179 24.5942 23.0553 24.8813 22.7599L24.8813 20.7905C24.5942 21.0859 24.2593 21.3485 23.9243 21.611L23.9243 23.5804Z" fill="#F48BA2"/>
<path d="M15.8763 16.1303L15.8763 17.4205L17.2255 17.4205L17.2255 18.4302L15.8763 18.4302L15.8763 19.2516L14.6906 19.2516L14.6906 18.4302L14.0656 18.4302L14.0656 19.2516L12.8799 19.2516L12.8799 18.4302L8.72119 18.4302L8.72119 16.1984C8.72119 15.5547 8.96651 15.0405 9.45714 14.6558C9.94388 14.2712 10.5922 14.0789 11.4022 14.0789C12.2277 14.0789 12.876 14.2618 13.3472 14.6278C13.8144 14.9937 14.0539 15.5026 14.0656 16.1544L14.0656 17.4205L14.6906 17.4205L14.6906 16.1303L15.8763 16.1303ZM12.8799 17.4205L12.8799 16.2145C12.8799 15.8512 12.7572 15.5734 12.5119 15.3811C12.2666 15.1887 11.9006 15.0926 11.4138 15.0926C10.9777 15.0926 10.6214 15.1874 10.345 15.3771C10.0685 15.564 9.92441 15.8231 9.91273 16.1544L9.91273 17.4205L12.8799 17.4205Z" fill="#F48BA2"/>
<path d="M26.7951 14.4918C26.7951 18.923 20.8141 22.5336 13.3976 22.5336C5.98108 22.5336 3.02875e-05 18.923 3.00052e-05 14.4918C2.97228e-05 10.0607 5.98108 6.45012 13.3976 6.45012C20.8141 6.45012 26.7951 10.0607 26.7951 14.4918Z" fill="white"/>
<path d="M13.3976 22.5335C6.55523 22.5335 0.90912 19.4481 0.0956963 15.4765C0.0478479 15.8047 -5.33338e-07 16.133 -5.12423e-07 16.4612C-2.30067e-07 20.8924 5.98105 24.5029 13.3976 24.5029C20.8141 24.5029 26.7951 20.8924 26.7951 16.4612C26.7951 16.133 26.7473 15.8047 26.6994 15.4765C25.886 19.4481 20.2399 22.5335 13.3976 22.5335Z" fill="#FFBFCD"/>
<path d="M24.1635 14.459C24.1635 14.7216 24.1635 14.9513 24.1157 15.1811C24.0678 15.3452 23.8286 15.4765 23.5893 15.4765C23.3501 15.4437 23.1587 15.2796 23.1587 15.1155C23.2065 14.9185 23.2065 14.7216 23.2065 14.4918C23.2065 14.2949 23.3979 14.1636 23.685 14.1636C23.9721 14.1636 24.1635 14.2949 24.1635 14.459ZM23.6372 12.5552C23.6372 12.6865 23.5415 12.8178 23.3501 12.8506C23.1108 12.9163 22.8237 12.8178 22.728 12.6537C22.6324 12.4568 22.4888 12.2598 22.3453 12.0957C22.2017 11.9316 22.2974 11.7347 22.5367 11.669C22.7759 11.5705 23.063 11.6362 23.1587 11.8003C23.3022 11.9972 23.4458 12.227 23.5415 12.4239C23.6372 12.4896 23.6372 12.5224 23.6372 12.5552ZM23.3022 16.9864C23.3022 17.052 23.3022 17.0849 23.2544 17.1505C23.1108 17.3475 22.9194 17.5444 22.7759 17.7413C22.6324 17.9054 22.3453 17.9383 22.106 17.8398C21.8668 17.7413 21.8189 17.5444 21.9625 17.3803C22.106 17.2162 22.2974 17.0192 22.3931 16.8551C22.5367 16.691 22.8237 16.6253 23.0151 16.7238C23.2065 16.7566 23.3022 16.8879 23.3022 16.9864ZM21.5797 10.3889C21.5797 10.4874 21.5318 10.553 21.4361 10.6187C21.2447 10.75 20.9577 10.75 20.7663 10.6187C20.5749 10.4874 20.3356 10.3233 20.0964 10.192C19.905 10.0935 19.8571 9.86372 20.0485 9.73243C20.2399 9.60114 20.527 9.56831 20.7184 9.69961C20.9577 9.8309 21.2447 9.99502 21.4361 10.1591C21.5318 10.2248 21.5797 10.3232 21.5797 10.3889ZM20.9098 18.9886C20.9098 19.0871 20.862 19.1856 20.7184 19.2512C20.4792 19.3825 20.1921 19.5466 19.905 19.6451C19.6657 19.7436 19.3787 19.7107 19.2351 19.5466C19.0916 19.3825 19.1394 19.1856 19.3787 19.0871C19.6179 18.9558 19.8571 18.8573 20.0964 18.726C20.2878 18.5947 20.6227 18.6276 20.7663 18.7589C20.862 18.8573 20.9098 18.923 20.9098 18.9886ZM18.4695 8.94467C18.4695 8.97749 18.4695 9.04314 18.4217 9.07596C18.326 9.24008 18.0389 9.30573 17.7997 9.24008C17.5126 9.14161 17.2255 9.07596 16.9384 9.01031C16.6991 8.94467 16.5556 8.78055 16.6513 8.58361C16.747 8.41949 16.9862 8.32102 17.2733 8.38667C17.6083 8.45232 17.8954 8.55079 18.1824 8.61643C18.3738 8.7149 18.4695 8.81337 18.4695 8.94467ZM17.6083 20.2687C17.6083 20.4 17.4647 20.5313 17.2733 20.5641C16.9862 20.6298 16.6513 20.6954 16.3164 20.7611C16.0771 20.7939 15.79 20.6954 15.7422 20.5313C15.6943 20.3672 15.8379 20.1703 16.0771 20.1374C16.3642 20.0718 16.6513 20.039 16.9384 19.9733C17.1776 19.9077 17.4647 20.0061 17.5604 20.1703C17.6083 20.1703 17.6083 20.2031 17.6083 20.2687ZM14.7852 8.32102C14.7852 8.35385 14.7852 8.35385 14.7852 8.32102C14.7852 8.51796 14.546 8.64926 14.2589 8.64926C13.9718 8.64926 13.6847 8.61643 13.3976 8.61643C13.1105 8.61643 12.9191 8.48514 12.9191 8.2882C12.9191 8.09126 13.1105 7.95997 13.3976 7.95997V7.95997C13.7325 7.95997 14.0196 7.95997 14.3546 7.99279C14.5938 8.02561 14.7852 8.15691 14.7852 8.32102ZM13.8761 20.6626C13.8761 20.8596 13.6847 20.9908 13.3976 20.9908C13.0627 20.9908 12.7277 20.9908 12.4406 20.958C12.2014 20.958 11.9622 20.7939 12.01 20.597C12.01 20.4 12.2492 20.2687 12.5363 20.3016C12.8234 20.3016 13.1584 20.3344 13.4455 20.3344C13.6847 20.3344 13.8761 20.4985 13.8761 20.6626ZM11.0052 8.55079C11.0052 8.68208 10.8616 8.8462 10.6224 8.87902C10.3353 8.94467 10.0482 8.97749 9.76113 9.04314C9.52189 9.10879 9.2348 9.01031 9.1391 8.8462C9.0434 8.68208 9.18695 8.48514 9.42619 8.41949C9.71328 8.35385 10.0482 8.2882 10.3832 8.22255C10.6224 8.18973 10.9095 8.2882 10.9573 8.45232C11.0052 8.48514 11.0052 8.51797 11.0052 8.55079ZM10.1439 20.2687C10.1439 20.3016 10.1439 20.3344 10.0961 20.3672C10.0004 20.5313 9.76113 20.6298 9.47404 20.5641C9.18695 20.4985 8.85201 20.4 8.56492 20.3344C8.32568 20.2687 8.22998 20.0718 8.32568 19.9077C8.42137 19.7436 8.70846 19.6779 8.94771 19.7436C9.2348 19.842 9.52189 19.9077 9.80898 19.9733C10.0482 20.0061 10.1439 20.1374 10.1439 20.2687ZM7.5601 9.60114C7.5601 9.69961 7.4644 9.79808 7.36871 9.86372C7.12946 9.99502 6.89022 10.0935 6.65098 10.2248C6.45959 10.3561 6.12465 10.3233 5.9811 10.192C5.78971 10.0607 5.83756 9.8309 6.02895 9.73243C6.26819 9.60114 6.55528 9.43702 6.84237 9.33855C7.08162 9.24008 7.36871 9.2729 7.51225 9.43702C7.5601 9.46984 7.5601 9.53549 7.5601 9.60114ZM6.84237 19.0214C6.84237 19.0871 6.79453 19.1527 6.74668 19.2184C6.60313 19.3497 6.26819 19.3825 6.0768 19.2512C5.83756 19.1199 5.55047 18.9558 5.35907 18.7917C5.16768 18.6604 5.16768 18.4634 5.35907 18.3322C5.55047 18.2009 5.83756 18.2009 6.02895 18.3322C6.22035 18.4634 6.45959 18.6276 6.69883 18.7589C6.79453 18.8245 6.84237 18.923 6.84237 19.0214ZM4.92844 11.4392C4.92844 11.5049 4.88059 11.5705 4.83274 11.6034C4.6892 11.7675 4.4978 11.9644 4.4021 12.1285C4.30641 12.2927 3.97147 12.3583 3.78008 12.2598C3.54083 12.1942 3.44514 11.9972 3.58868 11.8331C3.73223 11.6362 3.92362 11.4392 4.06717 11.2423C4.21071 11.0782 4.4978 11.0454 4.73704 11.1438C4.83274 11.2095 4.92844 11.3408 4.92844 11.4392ZM4.44995 17.0192C4.44995 17.1505 4.35426 17.249 4.21071 17.3146C3.97147 17.4131 3.68438 17.3475 3.58868 17.1833C3.44514 16.9864 3.30159 16.7566 3.20589 16.5597C3.1102 16.3956 3.25374 16.1986 3.49299 16.133C3.73223 16.0673 4.01932 16.1658 4.11501 16.3299C4.21071 16.5269 4.35426 16.7238 4.4978 16.8879C4.44995 16.9207 4.44995 16.9536 4.44995 17.0192ZM3.63653 13.8682L3.63653 13.901C3.58868 14.0979 3.58868 14.2949 3.58868 14.4918C3.58868 14.6888 3.39729 14.8201 3.1102 14.8201C2.82311 14.8201 2.63171 14.6888 2.63171 14.4918C2.63171 14.2621 2.63171 14.0323 2.67956 13.8354C2.72741 13.6712 2.96665 13.5399 3.20589 13.5399C3.44514 13.5399 3.63653 13.7041 3.63653 13.8682Z" fill="#FFBFCD"/>
<path d="M13.8761 22.5335L13.8761 24.5029C14.211 24.5029 14.4981 24.4701 14.8331 24.4701L14.8331 22.5007C14.4981 22.5007 14.211 22.5335 13.8761 22.5335Z" fill="#F48BA2"/>
<path d="M11.4837 22.4679L11.4837 24.4373C11.8186 24.4701 12.1057 24.4701 12.4406 24.5029L12.4406 22.5335C12.1057 22.5007 11.8186 22.5007 11.4837 22.4679Z" fill="#F48BA2"/>
<path d="M16.2685 22.3696L16.2685 24.339C16.6034 24.3062 16.8905 24.2405 17.2255 24.1749L17.2255 22.2055C16.8905 22.2711 16.6034 22.3039 16.2685 22.3696Z" fill="#F48BA2"/>
<path d="M18.6609 21.9099L18.6609 23.8793C18.9959 23.7808 19.2829 23.7152 19.6179 23.6167L19.6179 21.6473C19.2829 21.7129 18.9959 21.8114 18.6609 21.9099Z" fill="#F48BA2"/>
<path d="M9.09128 22.1068L9.09128 24.0762C9.42622 24.1419 9.71331 24.2075 10.0482 24.2404L10.0482 22.271C9.71331 22.2381 9.42622 22.1725 9.09128 22.1068Z" fill="#F48BA2"/>
<path d="M6.69885 21.4504L6.69885 23.4198C7.03379 23.5183 7.32088 23.6167 7.65582 23.7152L7.65582 21.7458C7.32088 21.6802 7.03379 21.5817 6.69885 21.4504Z" fill="#F48BA2"/>
<path d="M3.82791 20.1375L3.82791 22.1069C4.115 22.3038 4.44994 22.468 4.78488 22.6321L4.78488 20.6627C4.44994 20.4986 4.115 20.3016 3.82791 20.1375Z" fill="#F48BA2"/>
<path d="M1.43552 18.1024L1.43552 20.0718C1.72261 20.4 2.05755 20.7283 2.39248 21.0237L2.39248 19.0543C2.05755 18.7589 1.72261 18.4635 1.43552 18.1024Z" fill="#F48BA2"/>
<path d="M21.5319 20.8924L21.5319 22.8618C21.8668 22.6977 22.2017 22.5336 22.4888 22.3695L22.4888 20.4001C22.2017 20.5642 21.8668 20.7283 21.5319 20.8924Z" fill="#F48BA2"/>
<path d="M23.9243 21.4506C24.2592 21.188 24.5942 20.9254 24.8813 20.63L24.8813 18.6606C24.5942 18.956 24.2592 19.2186 23.9243 19.4812L23.9243 21.4506Z" fill="#F48BA2"/>
<path d="M15.8762 14.0003L15.8762 15.2905L17.2255 15.2905L17.2255 16.3002L15.8762 16.3002L15.8762 17.1216L14.6905 17.1216L14.6905 16.3002L14.0656 16.3002L14.0656 17.1216L12.8799 17.1216L12.8799 16.3002L8.72116 16.3002L8.72116 14.0684C8.72116 13.4247 8.96648 12.9105 9.45711 12.5258C9.94385 12.1412 10.5922 11.9489 11.4021 11.9489C12.2276 11.9489 12.876 12.1318 13.3471 12.4978C13.8144 12.8637 14.0539 13.3726 14.0656 14.0244L14.0656 15.2905L14.6905 15.2905L14.6905 14.0003L15.8762 14.0003ZM12.8799 15.2905L12.8799 14.0845C12.8799 13.7212 12.7572 13.4434 12.5119 13.2511C12.2666 13.0587 11.9005 12.9626 11.4138 12.9626C10.9777 12.9626 10.6214 13.0574 10.3449 13.247C10.0685 13.434 9.92438 13.6931 9.9127 14.0244L9.9127 15.2905L12.8799 15.2905Z" fill="#F48BA2"/>
<path d="M26.7952 12.3703C26.7952 16.8014 20.8141 20.412 13.3976 20.412C5.98111 20.412 6.08051e-05 16.8014 6.05227e-05 12.3703C6.02404e-05 7.9391 5.98111 4.32853 13.3976 4.32853C20.8141 4.32853 26.7952 7.9391 26.7952 12.3703Z" fill="white"/>
<path d="M13.3976 20.4121C6.55526 20.4121 0.90915 17.3267 0.0957268 13.355C0.0478784 13.6833 2.99842e-05 14.0115 3.00052e-05 14.3397C3.02875e-05 18.7709 5.98108 22.3815 13.3976 22.3815C20.8141 22.3815 26.7951 18.7709 26.7951 14.3397C26.7951 14.0115 26.7473 13.6833 26.6994 13.355C25.886 17.3267 20.2399 20.4121 13.3976 20.4121Z" fill="#FFBFCD"/>
<path d="M24.1635 12.3375C24.1635 12.6001 24.1635 12.8299 24.1157 13.0596C24.0678 13.2238 23.8286 13.3551 23.5894 13.3551C23.3501 13.3222 23.1587 13.1581 23.1587 12.994C23.2066 12.7971 23.2066 12.6001 23.2066 12.3704C23.2066 12.1734 23.398 12.0421 23.685 12.0421C23.9721 12.0421 24.1635 12.1734 24.1635 12.3375ZM23.6372 10.4338C23.6372 10.5651 23.5415 10.6964 23.3501 10.7292C23.1109 10.7948 22.8238 10.6964 22.7281 10.5322C22.6324 10.3353 22.4888 10.1384 22.3453 9.97425C22.2017 9.81013 22.2974 9.61319 22.5367 9.54755C22.7759 9.44908 23.063 9.51472 23.1587 9.67884C23.3023 9.87578 23.4458 10.1055 23.5415 10.3025C23.6372 10.3681 23.6372 10.401 23.6372 10.4338ZM23.3023 14.8649C23.3023 14.9306 23.3023 14.9634 23.2544 15.0291C23.1109 15.226 22.9195 15.4229 22.7759 15.6199C22.6324 15.784 22.3453 15.8168 22.1061 15.7183C21.8668 15.6199 21.819 15.4229 21.9625 15.2588C22.1061 15.0947 22.2974 14.8978 22.3931 14.7336C22.5367 14.5695 22.8238 14.5039 23.0152 14.6023C23.2066 14.6352 23.3023 14.7665 23.3023 14.8649ZM21.5797 8.26744C21.5797 8.36591 21.5319 8.43155 21.4362 8.4972C21.2448 8.62849 20.9577 8.62849 20.7663 8.4972C20.5749 8.36591 20.3357 8.20179 20.0964 8.0705C19.905 7.97203 19.8572 7.74226 20.0486 7.61097C20.24 7.47968 20.5271 7.44685 20.7184 7.57815C20.9577 7.70944 21.2448 7.87356 21.4362 8.03767C21.5319 8.10332 21.5797 8.20179 21.5797 8.26744ZM20.9098 16.8672C20.9098 16.9656 20.862 17.0641 20.7184 17.1297C20.4792 17.261 20.1921 17.4252 19.905 17.5236C19.6658 17.6221 19.3787 17.5893 19.2351 17.4252C19.0916 17.261 19.1394 17.0641 19.3787 16.9656C19.6179 16.8343 19.8572 16.7359 20.0964 16.6046C20.2878 16.4733 20.6228 16.5061 20.7663 16.6374C20.862 16.7359 20.9098 16.8015 20.9098 16.8672ZM18.4696 6.82321C18.4696 6.85603 18.4696 6.92168 18.4217 6.9545C18.326 7.11862 18.0389 7.18427 17.7997 7.11862C17.5126 7.02015 17.2255 6.9545 16.9384 6.88885C16.6992 6.82321 16.5556 6.65909 16.6513 6.46215C16.747 6.29803 16.9863 6.19956 17.2734 6.26521C17.6083 6.33086 17.8954 6.42933 18.1825 6.49497C18.3739 6.59344 18.4696 6.69191 18.4696 6.82321ZM17.6083 18.1473C17.6083 18.2786 17.4648 18.4099 17.2734 18.4427C16.9863 18.5083 16.6513 18.574 16.3164 18.6396C16.0771 18.6724 15.7901 18.574 15.7422 18.4099C15.6944 18.2457 15.8379 18.0488 16.0771 18.016C16.3642 17.9503 16.6513 17.9175 16.9384 17.8519C17.1777 17.7862 17.4648 17.8847 17.5605 18.0488C17.6083 18.0488 17.6083 18.0816 17.6083 18.1473ZM14.7852 6.19956C14.7852 6.23239 14.7852 6.23239 14.7852 6.19956C14.7852 6.3965 14.546 6.5278 14.2589 6.5278C13.9718 6.5278 13.6847 6.49497 13.3976 6.49497C13.1105 6.49497 12.9192 6.36368 12.9192 6.16674C12.9192 5.9698 13.1105 5.83851 13.3976 5.83851V5.83851C13.7326 5.83851 14.0197 5.83851 14.3546 5.87133C14.5938 5.90415 14.7852 6.03545 14.7852 6.19956ZM13.8761 18.5412C13.8761 18.7381 13.6847 18.8694 13.3976 18.8694C13.0627 18.8694 12.7278 18.8694 12.4407 18.8366C12.2014 18.8366 11.9622 18.6724 12.01 18.4755C12.01 18.2786 12.2493 18.1473 12.5364 18.1801C12.8235 18.1801 13.1584 18.2129 13.4455 18.2129C13.6847 18.2129 13.8761 18.377 13.8761 18.5412ZM11.0052 6.42933C11.0052 6.56062 10.8617 6.72474 10.6224 6.75756C10.3353 6.82321 10.0482 6.85603 9.76116 6.92168C9.52192 6.98733 9.23483 6.88885 9.13913 6.72474C9.04343 6.56062 9.18698 6.36368 9.42622 6.29803C9.71331 6.23239 10.0482 6.16674 10.3832 6.10109C10.6224 6.06827 10.9095 6.16674 10.9574 6.33086C11.0052 6.36368 11.0052 6.39651 11.0052 6.42933ZM10.1439 18.1473C10.1439 18.1801 10.1439 18.2129 10.0961 18.2457C10.0004 18.4099 9.76116 18.5083 9.47407 18.4427C9.18698 18.377 8.85204 18.2786 8.56495 18.2129C8.32571 18.1473 8.23001 17.9503 8.32571 17.7862C8.4214 17.6221 8.70849 17.5564 8.94774 17.6221C9.23483 17.7206 9.52192 17.7862 9.80901 17.8519C10.0482 17.8847 10.1439 18.016 10.1439 18.1473ZM7.56013 7.47968C7.56013 7.57815 7.46443 7.67662 7.36874 7.74226C7.12949 7.87356 6.89025 7.97203 6.65101 8.10332C6.45962 8.23461 6.12468 8.20179 5.98113 8.0705C5.78974 7.9392 5.83759 7.70944 6.02898 7.61097C6.26822 7.47968 6.55531 7.31556 6.8424 7.21709C7.08165 7.11862 7.36874 7.15144 7.51228 7.31556C7.56013 7.34838 7.56013 7.41403 7.56013 7.47968ZM6.84241 16.9C6.84241 16.9656 6.79456 17.0313 6.74671 17.0969C6.60316 17.2282 6.26822 17.261 6.07683 17.1297C5.83759 16.9985 5.5505 16.8343 5.3591 16.6702C5.16771 16.5389 5.16771 16.342 5.3591 16.2107C5.5505 16.0794 5.83759 16.0794 6.02898 16.2107C6.22038 16.342 6.45962 16.5061 6.69886 16.6374C6.79456 16.703 6.84241 16.8015 6.84241 16.9ZM4.92847 9.31778C4.92847 9.38343 4.88062 9.44908 4.83277 9.4819C4.68923 9.64602 4.49783 9.84296 4.40214 10.0071C4.30644 10.1712 3.9715 10.2368 3.78011 10.1384C3.54086 10.0727 3.44517 9.87578 3.58871 9.71167C3.73226 9.51473 3.92365 9.31778 4.0672 9.12084C4.21074 8.95673 4.49783 8.9239 4.73707 9.02237C4.83277 9.08802 4.92847 9.21931 4.92847 9.31778ZM4.44998 14.8978C4.44998 15.0291 4.35429 15.1275 4.21074 15.1932C3.9715 15.2916 3.68441 15.226 3.58871 15.0619C3.44517 14.8649 3.30162 14.6352 3.20593 14.4382C3.11023 14.2741 3.25377 14.0772 3.49302 14.0115C3.73226 13.9459 4.01935 14.0443 4.11505 14.2085C4.21074 14.4054 4.35429 14.6023 4.49783 14.7665C4.44998 14.7993 4.44998 14.8321 4.44998 14.8978ZM3.63656 11.7467L3.63656 11.7795C3.58871 11.9765 3.58871 12.1734 3.58871 12.3704C3.58871 12.5673 3.39732 12.6986 3.11023 12.6986C2.82314 12.6986 2.63174 12.5673 2.63174 12.3704C2.63174 12.1406 2.63174 11.9108 2.67959 11.7139C2.72744 11.5498 2.96668 11.4185 3.20592 11.4185C3.44517 11.4185 3.63656 11.5826 3.63656 11.7467Z" fill="#FFBFCD"/>
<path d="M13.8761 20.4121L13.8761 22.3815C14.2111 22.3815 14.4982 22.3486 14.8331 22.3486L14.8331 20.3792C14.4982 20.3792 14.2111 20.4121 13.8761 20.4121Z" fill="#F48BA2"/>
<path d="M11.4837 20.3464L11.4837 22.3158C11.8186 22.3486 12.1057 22.3486 12.4407 22.3815L12.4407 20.4121C12.1057 20.3792 11.8186 20.3792 11.4837 20.3464Z" fill="#F48BA2"/>
<path d="M16.2685 20.2479L16.2685 22.2173C16.6035 22.1845 16.8906 22.1188 17.2255 22.0532L17.2255 20.0838C16.8906 20.1494 16.6035 20.1822 16.2685 20.2479Z" fill="#F48BA2"/>
<path d="M18.6609 19.7884L18.6609 21.7578C18.9959 21.6593 19.283 21.5937 19.6179 21.4952L19.6179 19.5258C19.283 19.5915 18.9959 19.6899 18.6609 19.7884Z" fill="#F48BA2"/>
<path d="M9.09131 19.9854L9.09131 21.9548C9.42625 22.0204 9.71334 22.0861 10.0483 22.1189L10.0483 20.1495C9.71334 20.1167 9.42625 20.051 9.09131 19.9854Z" fill="#F48BA2"/>
<path d="M6.69888 19.3289L6.69888 21.2983C7.03382 21.3968 7.32091 21.4953 7.65585 21.5937L7.65585 19.6243C7.32091 19.5587 7.03382 19.4602 6.69888 19.3289Z" fill="#F48BA2"/>
<path d="M3.82794 18.0158L3.82794 19.9852C4.11503 20.1821 4.44997 20.3463 4.78491 20.5104L4.78491 18.541C4.44997 18.3769 4.11503 18.1799 3.82794 18.0158Z" fill="#F48BA2"/>
<path d="M1.43555 15.9809L1.43555 17.9503C1.72264 18.2786 2.05758 18.6068 2.39252 18.9022L2.39252 16.9328C2.05758 16.6374 1.72264 16.342 1.43555 15.9809Z" fill="#F48BA2"/>
<path d="M21.5319 18.7708L21.5319 20.7402C21.8668 20.5761 22.2018 20.412 22.4889 20.2479L22.4889 18.2785C22.2018 18.4426 21.8668 18.6067 21.5319 18.7708Z" fill="#F48BA2"/>
<path d="M23.9243 19.3287C24.2593 19.0661 24.5942 18.8036 24.8813 18.5082L24.8813 16.5387C24.5942 16.8342 24.2593 17.0967 23.9243 17.3593L23.9243 19.3287Z" fill="#F48BA2"/>
<path d="M15.8763 11.8789L15.8763 13.169L17.2255 13.169L17.2255 14.1787L15.8763 14.1787L15.8763 15.0001L14.6906 15.0001L14.6906 14.1787L14.0656 14.1787L14.0656 15.0001L12.8799 15.0001L12.8799 14.1787L8.72119 14.1787L8.72119 11.947C8.72119 11.3032 8.96651 10.789 9.45714 10.4044C9.94388 10.0197 10.5922 9.8274 11.4022 9.8274C12.2277 9.8274 12.876 10.0104 13.3472 10.3763C13.8144 10.7423 14.0539 11.2511 14.0656 11.9029L14.0656 13.169L14.6906 13.169L14.6906 11.8789L15.8763 11.8789ZM12.8799 13.169L12.8799 11.963C12.8799 11.5997 12.7572 11.3219 12.5119 11.1296C12.2666 10.9373 11.9006 10.8411 11.4138 10.8411C10.9777 10.8411 10.6214 10.9359 10.345 11.1256C10.0685 11.3126 9.92441 11.5717 9.91273 11.9029L9.91273 13.169L12.8799 13.169Z" fill="#F48BA2"/>
<path d="M26.7951 10.1632C26.7951 14.5944 20.8141 18.205 13.3976 18.205C5.98108 18.205 3.02875e-05 14.5944 3.00052e-05 10.1632C2.97228e-05 5.73207 5.98108 2.1215 13.3976 2.1215C20.8141 2.1215 26.7951 5.73207 26.7951 10.1632Z" fill="white"/>
<path d="M13.3976 18.205C6.55523 18.205 0.90912 15.1196 0.0956963 11.148C0.0478479 11.4762 -5.33338e-07 11.8045 -5.12423e-07 12.1327C-2.30067e-07 16.5639 5.98105 20.1744 13.3976 20.1744C20.8141 20.1744 26.7951 16.5639 26.7951 12.1327C26.7951 11.8045 26.7473 11.4762 26.6994 11.148C25.886 15.1196 20.2399 18.205 13.3976 18.205Z" fill="#FFBFCD"/>
<path d="M24.1635 10.1305C24.1635 10.3931 24.1635 10.6229 24.1157 10.8526C24.0678 11.0167 23.8286 11.148 23.5893 11.148C23.3501 11.1152 23.1587 10.9511 23.1587 10.787C23.2065 10.59 23.2065 10.3931 23.2065 10.1633C23.2065 9.96639 23.3979 9.83509 23.685 9.83509C23.9721 9.83509 24.1635 9.96639 24.1635 10.1305ZM23.6372 8.22675C23.6372 8.35804 23.5415 8.48933 23.3501 8.52216C23.1108 8.5878 22.8237 8.48933 22.728 8.32522C22.6324 8.12828 22.4888 7.93134 22.3453 7.76722C22.2017 7.6031 22.2974 7.40616 22.5367 7.34052C22.7759 7.24205 23.063 7.30769 23.1587 7.47181C23.3022 7.66875 23.4458 7.89851 23.5415 8.09545C23.6372 8.1611 23.6372 8.19392 23.6372 8.22675ZM23.3022 12.6579C23.3022 12.7235 23.3022 12.7564 23.2544 12.822C23.1108 13.019 22.9194 13.2159 22.7759 13.4128C22.6324 13.577 22.3453 13.6098 22.106 13.5113C21.8668 13.4128 21.8189 13.2159 21.9625 13.0518C22.106 12.8877 22.2974 12.6907 22.3931 12.5266C22.5367 12.3625 22.8237 12.2968 23.0151 12.3953C23.2065 12.4281 23.3022 12.5594 23.3022 12.6579ZM21.5797 6.06041C21.5797 6.15888 21.5318 6.22452 21.4361 6.29017C21.2447 6.42146 20.9577 6.42146 20.7663 6.29017C20.5749 6.15888 20.3356 5.99476 20.0964 5.86347C19.905 5.765 19.8571 5.53523 20.0485 5.40394C20.2399 5.27264 20.527 5.23982 20.7184 5.37111C20.9577 5.50241 21.2447 5.66652 21.4361 5.83064C21.5318 5.89629 21.5797 5.99476 21.5797 6.06041ZM20.9098 14.6601C20.9098 14.7586 20.862 14.8571 20.7184 14.9227C20.4792 15.054 20.1921 15.2181 19.905 15.3166C19.6657 15.4151 19.3787 15.3822 19.2351 15.2181C19.0916 15.054 19.1394 14.8571 19.3787 14.7586C19.6179 14.6273 19.8571 14.5288 20.0964 14.3975C20.2878 14.2662 20.6227 14.2991 20.7663 14.4304C20.862 14.5288 20.9098 14.5945 20.9098 14.6601ZM18.4695 4.61618C18.4695 4.649 18.4695 4.71465 18.4217 4.74747C18.326 4.91159 18.0389 4.97723 17.7997 4.91159C17.5126 4.81312 17.2255 4.74747 16.9384 4.68182C16.6991 4.61618 16.5556 4.45206 16.6513 4.25512C16.747 4.091 16.9862 3.99253 17.2733 4.05818C17.6083 4.12383 17.8954 4.2223 18.1824 4.28794C18.3738 4.38641 18.4695 4.48488 18.4695 4.61618ZM17.6083 15.9402C17.6083 16.0715 17.4647 16.2028 17.2733 16.2356C16.9862 16.3013 16.6513 16.3669 16.3164 16.4326C16.0771 16.4654 15.79 16.3669 15.7422 16.2028C15.6943 16.0387 15.8379 15.8418 16.0771 15.8089C16.3642 15.7433 16.6513 15.7105 16.9384 15.6448C17.1776 15.5792 17.4647 15.6777 17.5604 15.8418C17.6083 15.8418 17.6083 15.8746 17.6083 15.9402ZM14.7852 3.99253C14.7852 4.02536 14.7852 4.02536 14.7852 3.99253C14.7852 4.18947 14.546 4.32077 14.2589 4.32077C13.9718 4.32077 13.6847 4.28794 13.3976 4.28794C13.1105 4.28794 12.9191 4.15665 12.9191 3.95971C12.9191 3.76277 13.1105 3.63148 13.3976 3.63148V3.63148C13.7325 3.63148 14.0196 3.63148 14.3546 3.6643C14.5938 3.69712 14.7852 3.82842 14.7852 3.99253ZM13.8761 16.3341C13.8761 16.5311 13.6847 16.6624 13.3976 16.6624C13.0627 16.6624 12.7277 16.6624 12.4406 16.6295C12.2014 16.6295 11.9622 16.4654 12.01 16.2685C12.01 16.0715 12.2492 15.9402 12.5363 15.9731C12.8234 15.9731 13.1584 16.0059 13.4455 16.0059C13.6847 16.0059 13.8761 16.17 13.8761 16.3341ZM11.0052 4.2223C11.0052 4.35359 10.8616 4.51771 10.6224 4.55053C10.3353 4.61618 10.0482 4.649 9.76113 4.71465C9.52189 4.78029 9.2348 4.68182 9.1391 4.51771C9.0434 4.35359 9.18695 4.15665 9.42619 4.091C9.71328 4.02536 10.0482 3.95971 10.3832 3.89406C10.6224 3.86124 10.9095 3.95971 10.9573 4.12383C11.0052 4.15665 11.0052 4.18947 11.0052 4.2223ZM10.1439 15.9402C10.1439 15.9731 10.1439 16.0059 10.0961 16.0387C10.0004 16.2028 9.76113 16.3013 9.47404 16.2356C9.18695 16.17 8.85201 16.0715 8.56492 16.0059C8.32568 15.9402 8.22998 15.7433 8.32568 15.5792C8.42137 15.4151 8.70846 15.3494 8.94771 15.4151C9.2348 15.5135 9.52189 15.5792 9.80898 15.6448C10.0482 15.6777 10.1439 15.8089 10.1439 15.9402ZM7.5601 5.27264C7.5601 5.37111 7.4644 5.46959 7.36871 5.53523C7.12946 5.66653 6.89022 5.765 6.65098 5.89629C6.45959 6.02758 6.12465 5.99476 5.9811 5.86347C5.78971 5.73217 5.83756 5.50241 6.02895 5.40394C6.26819 5.27264 6.55528 5.10853 6.84237 5.01006C7.08162 4.91159 7.36871 4.94441 7.51225 5.10853C7.5601 5.14135 7.5601 5.207 7.5601 5.27264ZM6.84237 14.693C6.84237 14.7586 6.79453 14.8242 6.74668 14.8899C6.60313 15.0212 6.26819 15.054 6.0768 14.9227C5.83756 14.7914 5.55047 14.6273 5.35907 14.4632C5.16768 14.3319 5.16768 14.135 5.35907 14.0037C5.55047 13.8724 5.83756 13.8724 6.02895 14.0037C6.22035 14.135 6.45959 14.2991 6.69883 14.4304C6.79453 14.496 6.84237 14.5945 6.84237 14.693ZM4.92844 7.11075C4.92844 7.1764 4.88059 7.24205 4.83274 7.27487C4.6892 7.43899 4.4978 7.63593 4.4021 7.80004C4.30641 7.96416 3.97147 8.02981 3.78008 7.93134C3.54083 7.86569 3.44514 7.66875 3.58868 7.50463C3.73223 7.30769 3.92362 7.11075 4.06717 6.91381C4.21071 6.7497 4.4978 6.71687 4.73704 6.81534C4.83274 6.88099 4.92844 7.01228 4.92844 7.11075ZM4.44995 12.6907C4.44995 12.822 4.35426 12.9205 4.21071 12.9861C3.97147 13.0846 3.68438 13.019 3.58868 12.8548C3.44514 12.6579 3.30159 12.4281 3.20589 12.2312C3.1102 12.0671 3.25374 11.8701 3.49299 11.8045C3.73223 11.7388 4.01932 11.8373 4.11501 12.0014C4.21071 12.1984 4.35426 12.3953 4.4978 12.5594C4.44995 12.5923 4.44995 12.6251 4.44995 12.6907ZM3.63653 9.53968L3.63653 9.57251C3.58868 9.76945 3.58868 9.96639 3.58868 10.1633C3.58868 10.3603 3.39729 10.4916 3.1102 10.4916C2.82311 10.4916 2.63171 10.3603 2.63171 10.1633C2.63171 9.93356 2.63171 9.7038 2.67956 9.50686C2.72741 9.34274 2.96665 9.21145 3.20589 9.21145C3.44514 9.21145 3.63653 9.37557 3.63653 9.53968Z" fill="#FFBFCD"/>
<path d="M13.8761 18.205L13.8761 20.1744C14.211 20.1744 14.4981 20.1416 14.8331 20.1416L14.8331 18.1722C14.4981 18.1722 14.211 18.205 13.8761 18.205Z" fill="#F48BA2"/>
<path d="M11.4837 18.1394L11.4837 20.1088C11.8186 20.1416 12.1057 20.1416 12.4406 20.1744L12.4406 18.205C12.1057 18.1722 11.8186 18.1722 11.4837 18.1394Z" fill="#F48BA2"/>
<path d="M16.2685 18.0407L16.2685 20.0101C16.6034 19.9773 16.8905 19.9117 17.2255 19.846L17.2255 17.8766C16.8905 17.9423 16.6034 17.9751 16.2685 18.0407Z" fill="#F48BA2"/>
<path d="M18.6609 17.5813L18.6609 19.5507C18.9959 19.4522 19.2829 19.3865 19.6179 19.2881L19.6179 17.3187C19.2829 17.3843 18.9959 17.4828 18.6609 17.5813Z" fill="#F48BA2"/>
<path d="M9.09128 17.7782L9.09128 19.7476C9.42622 19.8133 9.71331 19.8789 10.0482 19.9117L10.0482 17.9423C9.71331 17.9095 9.42622 17.8439 9.09128 17.7782Z" fill="#F48BA2"/>
<path d="M6.69885 17.1218L6.69885 19.0912C7.03379 19.1897 7.32088 19.2881 7.65582 19.3866L7.65582 17.4172C7.32088 17.3515 7.03379 17.2531 6.69885 17.1218Z" fill="#F48BA2"/>
<path d="M3.82791 15.8089L3.82791 17.7783C4.115 17.9752 4.44994 18.1393 4.78488 18.3035L4.78488 16.3341C4.44994 16.1699 4.115 15.973 3.82791 15.8089Z" fill="#F48BA2"/>
<path d="M1.43552 13.7738L1.43552 15.7432C1.72261 16.0714 2.05755 16.3997 2.39248 16.6951L2.39248 14.7257C2.05755 14.4303 1.72261 14.1348 1.43552 13.7738Z" fill="#F48BA2"/>
<path d="M21.5319 16.5638L21.5319 18.5332C21.8668 18.3691 22.2017 18.205 22.4888 18.0409L22.4888 16.0714C22.2017 16.2356 21.8668 16.3997 21.5319 16.5638Z" fill="#F48BA2"/>
<path d="M23.9243 17.1219C24.2592 16.8594 24.5942 16.5968 24.8813 16.3014L24.8813 14.332C24.5942 14.6274 24.2592 14.89 23.9243 15.1525L23.9243 17.1219Z" fill="#F48BA2"/>
<path d="M15.8762 9.6717L15.8762 10.9619L17.2255 10.9619L17.2255 11.9716L15.8762 11.9716L15.8762 12.793L14.6905 12.793L14.6905 11.9716L14.0656 11.9716L14.0656 12.793L12.8799 12.793L12.8799 11.9716L8.72116 11.9716L8.72116 9.73982C8.72116 9.09607 8.96648 8.58186 9.45711 8.19722C9.94385 7.81257 10.5922 7.62024 11.4021 7.62024C12.2276 7.62024 12.876 7.80322 13.3471 8.16917C13.8144 8.53512 14.0539 9.04398 14.0656 9.69574L14.0656 10.9619L14.6905 10.9619L14.6905 9.6717L15.8762 9.6717ZM12.8799 10.9619L12.8799 9.75584C12.8799 9.39257 12.7572 9.11476 12.5119 8.92244C12.2666 8.73011 11.9005 8.63395 11.4138 8.63395C10.9777 8.63395 10.6214 8.72878 10.3449 8.91843C10.0685 9.10541 9.92438 9.36452 9.9127 9.69574L9.9127 10.9619L12.8799 10.9619Z" fill="#F48BA2"/>
<path d="M26.7952 8.04165C26.7952 12.4728 20.8141 16.0834 13.3976 16.0834C5.98111 16.0834 6.08051e-05 12.4728 6.05227e-05 8.04165C6.02404e-05 3.61049 5.98111 -8.10992e-05 13.3976 -8.13216e-05C20.8141 -8.1544e-05 26.7952 3.61049 26.7952 8.04165Z" fill="#FFDCE4"/>
<path d="M13.3976 16.0835C6.55526 16.0835 0.90915 12.9981 0.0957268 9.02643C0.0478784 9.35466 2.99842e-05 9.6829 3.00052e-05 10.0111C3.02875e-05 14.4423 5.98108 18.0529 13.3976 18.0529C20.8141 18.0529 26.7951 14.4423 26.7951 10.0111C26.7951 9.6829 26.7473 9.35466 26.6994 9.02643C25.886 12.9981 20.2399 16.0835 13.3976 16.0835Z" fill="#FFBFCD"/>
<path d="M24.1635 8.00892C24.1635 8.27151 24.1635 8.50127 24.1157 8.73103C24.0678 8.89515 23.8286 9.02645 23.5894 9.02645C23.3501 8.99362 23.1587 8.8295 23.1587 8.66539C23.2066 8.46845 23.2066 8.27151 23.2066 8.04174C23.2066 7.8448 23.398 7.71351 23.685 7.71351C23.9721 7.71351 24.1635 7.8448 24.1635 8.00892ZM23.6372 6.10516C23.6372 6.23646 23.5415 6.36775 23.3501 6.40058C23.1109 6.46622 22.8238 6.36775 22.7281 6.20364C22.6324 6.0067 22.4888 5.80976 22.3453 5.64564C22.2017 5.48152 22.2974 5.28458 22.5367 5.21893C22.7759 5.12046 23.063 5.18611 23.1587 5.35023C23.3023 5.54717 23.4458 5.77693 23.5415 5.97387C23.6372 6.03952 23.6372 6.07234 23.6372 6.10516ZM23.3023 10.5363C23.3023 10.602 23.3023 10.6348 23.2544 10.7004C23.1109 10.8974 22.9195 11.0943 22.7759 11.2913C22.6324 11.4554 22.3453 11.4882 22.1061 11.3897C21.8668 11.2913 21.819 11.0943 21.9625 10.9302C22.1061 10.7661 22.2974 10.5691 22.3931 10.405C22.5367 10.2409 22.8238 10.1753 23.0152 10.2737C23.2066 10.3066 23.3023 10.4378 23.3023 10.5363ZM21.5797 3.93882C21.5797 4.03729 21.5319 4.10294 21.4362 4.16859C21.2448 4.29988 20.9577 4.29988 20.7663 4.16859C20.5749 4.03729 20.3357 3.87318 20.0964 3.74188C19.905 3.64341 19.8572 3.41365 20.0486 3.28236C20.24 3.15106 20.5271 3.11824 20.7184 3.24953C20.9577 3.38083 21.2448 3.54494 21.4362 3.70906C21.5319 3.77471 21.5797 3.87318 21.5797 3.93882ZM20.9098 12.5385C20.9098 12.637 20.862 12.7355 20.7184 12.8011C20.4792 12.9324 20.1921 13.0965 19.905 13.195C19.6658 13.2935 19.3787 13.2607 19.2351 13.0965C19.0916 12.9324 19.1394 12.7355 19.3787 12.637C19.6179 12.5057 19.8572 12.4073 20.0964 12.276C20.2878 12.1447 20.6228 12.1775 20.7663 12.3088C20.862 12.4073 20.9098 12.4729 20.9098 12.5385ZM18.4696 2.49459C18.4696 2.52742 18.4696 2.59306 18.4217 2.62589C18.326 2.79001 18.0389 2.85565 17.7997 2.79001C17.5126 2.69154 17.2255 2.62589 16.9384 2.56024C16.6992 2.49459 16.5556 2.33048 16.6513 2.13354C16.747 1.96942 16.9863 1.87095 17.2734 1.9366C17.6083 2.00224 17.8954 2.10071 18.1825 2.16636C18.3739 2.26483 18.4696 2.3633 18.4696 2.49459ZM17.6083 13.8187C17.6083 13.95 17.4648 14.0812 17.2734 14.1141C16.9863 14.1797 16.6513 14.2454 16.3164 14.311C16.0771 14.3438 15.7901 14.2454 15.7422 14.0812C15.6944 13.9171 15.8379 13.7202 16.0771 13.6874C16.3642 13.6217 16.6513 13.5889 16.9384 13.5232C17.1777 13.4576 17.4648 13.5561 17.5605 13.7202C17.6083 13.7202 17.6083 13.753 17.6083 13.8187ZM14.7852 1.87095C14.7852 1.90377 14.7852 1.90377 14.7852 1.87095C14.7852 2.06789 14.546 2.19918 14.2589 2.19918C13.9718 2.19918 13.6847 2.16636 13.3976 2.16636C13.1105 2.16636 12.9192 2.03507 12.9192 1.83813C12.9192 1.64119 13.1105 1.50989 13.3976 1.50989V1.50989C13.7326 1.50989 14.0197 1.50989 14.3546 1.54272C14.5938 1.57554 14.7852 1.70683 14.7852 1.87095ZM13.8761 14.2125C13.8761 14.4095 13.6847 14.5408 13.3976 14.5408C13.0627 14.5408 12.7278 14.5408 12.4407 14.5079C12.2014 14.5079 11.9622 14.3438 12.01 14.1469C12.01 13.95 12.2493 13.8187 12.5364 13.8515C12.8235 13.8515 13.1584 13.8843 13.4455 13.8843C13.6847 13.8843 13.8761 14.0484 13.8761 14.2125ZM11.0052 2.10072C11.0052 2.23201 10.8617 2.39613 10.6224 2.42895C10.3353 2.4946 10.0482 2.52742 9.76116 2.59307C9.52192 2.65871 9.23483 2.56024 9.13913 2.39612C9.04343 2.23201 9.18698 2.03507 9.42622 1.96942C9.71331 1.90377 10.0482 1.83813 10.3832 1.77248C10.6224 1.73966 10.9095 1.83813 10.9574 2.00224C11.0052 2.03507 11.0052 2.06789 11.0052 2.10072ZM10.1439 13.8187C10.1439 13.8515 10.1439 13.8843 10.0961 13.9171C10.0004 14.0812 9.76116 14.1797 9.47407 14.1141C9.18698 14.0484 8.85204 13.95 8.56495 13.8843C8.32571 13.8187 8.23001 13.6217 8.32571 13.4576C8.4214 13.2935 8.70849 13.2278 8.94774 13.2935C9.23483 13.392 9.52192 13.4576 9.80901 13.5232C10.0482 13.5561 10.1439 13.6874 10.1439 13.8187ZM7.56013 3.15106C7.56013 3.24953 7.46443 3.348 7.36874 3.41365C7.12949 3.54494 6.89025 3.64341 6.65101 3.77471C6.45962 3.906 6.12468 3.87318 5.98113 3.74188C5.78974 3.61059 5.83759 3.38083 6.02898 3.28236C6.26822 3.15106 6.55531 2.98695 6.8424 2.88848C7.08165 2.79001 7.36874 2.82283 7.51228 2.98695C7.56013 3.01977 7.56013 3.08542 7.56013 3.15106ZM6.84241 12.5714C6.84241 12.637 6.79456 12.7027 6.74671 12.7683C6.60316 12.8996 6.26822 12.9324 6.07683 12.8011C5.83759 12.6698 5.5505 12.5057 5.3591 12.3416C5.16771 12.2103 5.16771 12.0134 5.3591 11.8821C5.5505 11.7508 5.83759 11.7508 6.02898 11.8821C6.22038 12.0134 6.45962 12.1775 6.69886 12.3088C6.79456 12.3744 6.84241 12.4729 6.84241 12.5714ZM4.92847 4.98917C4.92847 5.05482 4.88062 5.12047 4.83277 5.15329C4.68923 5.31741 4.49783 5.51434 4.40214 5.67846C4.30644 5.84258 3.9715 5.90823 3.78011 5.80976C3.54086 5.74411 3.44517 5.54717 3.58871 5.38305C3.73226 5.18611 3.92365 4.98917 4.0672 4.79223C4.21074 4.62811 4.49783 4.59529 4.73707 4.69376C4.83277 4.75941 4.92847 4.8907 4.92847 4.98917ZM4.44998 10.5691C4.44998 10.7004 4.35429 10.7989 4.21074 10.8646C3.9715 10.963 3.68441 10.8974 3.58871 10.7333C3.44517 10.5363 3.30162 10.3066 3.20593 10.1096C3.11023 9.9455 3.25377 9.74856 3.49302 9.68291C3.73226 9.61727 4.01935 9.71574 4.11505 9.87985C4.21074 10.0768 4.35429 10.2737 4.49783 10.4379C4.44998 10.4707 4.44998 10.5035 4.44998 10.5691ZM3.63656 7.4181L3.63656 7.45092C3.58871 7.64786 3.58871 7.8448 3.58871 8.04174C3.58871 8.23868 3.39732 8.36998 3.11023 8.36998C2.82314 8.36998 2.63174 8.23868 2.63174 8.04174C2.63174 7.81198 2.63174 7.58222 2.67959 7.38528C2.72744 7.22116 2.96668 7.08987 3.20592 7.08987C3.44517 7.08987 3.63656 7.25398 3.63656 7.4181Z" fill="#FFBFCD"/>
<path d="M13.8761 16.0835L13.8761 18.0529C14.2111 18.0529 14.4982 18.02 14.8331 18.02L14.8331 16.0506C14.4982 16.0506 14.2111 16.0835 13.8761 16.0835Z" fill="#F48BA2"/>
<path d="M11.4837 16.0178L11.4837 17.9872C11.8186 18.02 12.1057 18.02 12.4407 18.0529L12.4407 16.0835C12.1057 16.0506 11.8186 16.0506 11.4837 16.0178Z" fill="#F48BA2"/>
<path d="M16.2685 15.9193L16.2685 17.8887C16.6035 17.8558 16.8906 17.7902 17.2255 17.7246L17.2255 15.7552C16.8906 15.8208 16.6035 15.8536 16.2685 15.9193Z" fill="#F48BA2"/>
<path d="M18.6609 15.4599L18.6609 17.4293C18.9959 17.3309 19.283 17.2652 19.6179 17.1667L19.6179 15.1973C19.283 15.263 18.9959 15.3614 18.6609 15.4599Z" fill="#F48BA2"/>
<path d="M9.09131 15.6568L9.09131 17.6262C9.42625 17.6918 9.71334 17.7575 10.0483 17.7903L10.0483 15.8209C9.71334 15.7881 9.42625 15.7224 9.09131 15.6568Z" fill="#F48BA2"/>
<path d="M6.69888 15.0003L6.69888 16.9697C7.03382 17.0682 7.32091 17.1667 7.65585 17.2651L7.65585 15.2957C7.32091 15.2301 7.03382 15.1316 6.69888 15.0003Z" fill="#F48BA2"/>
<path d="M3.82794 13.6872L3.82794 15.6566C4.11503 15.8535 4.44997 16.0176 4.78491 16.1818L4.78491 14.2124C4.44997 14.0482 4.11503 13.8513 3.82794 13.6872Z" fill="#F48BA2"/>
<path d="M1.43555 11.6523L1.43555 13.6217C1.72264 13.95 2.05758 14.2782 2.39252 14.5736L2.39252 12.6042C2.05758 12.3088 1.72264 12.0134 1.43555 11.6523Z" fill="#F48BA2"/>
<path d="M21.5319 14.4425L21.5319 16.4119C21.8668 16.2477 22.2018 16.0836 22.4889 15.9195L22.4889 13.9501C22.2018 14.1142 21.8668 14.2783 21.5319 14.4425Z" fill="#F48BA2"/>
<path d="M23.9243 15.0001C24.2593 14.7375 24.5942 14.4749 24.8813 14.1795L24.8813 12.2101C24.5942 12.5055 24.2593 12.7681 23.9243 13.0307L23.9243 15.0001Z" fill="#F48BA2"/>
<path d="M15.8763 7.55012L15.8763 8.8403L17.2255 8.8403L17.2255 9.85L15.8763 9.85L15.8763 10.6714L14.6906 10.6714L14.6906 9.85L14.0656 9.85L14.0656 10.6714L12.8799 10.6714L12.8799 9.85L8.72119 9.85L8.72119 7.61824C8.72119 6.97448 8.96651 6.46028 9.45714 6.07563C9.94388 5.69098 10.5922 5.49866 11.4022 5.49866C12.2277 5.49866 12.876 5.68164 13.3472 6.04759C13.8144 6.41354 14.0539 6.9224 14.0656 7.57416L14.0656 8.8403L14.6906 8.8403L14.6906 7.55012L15.8763 7.55012ZM12.8799 8.8403L12.8799 7.63426C12.8799 7.27098 12.7572 6.99318 12.5119 6.80086C12.2666 6.60853 11.9006 6.51237 11.4138 6.51237C10.9777 6.51237 10.6214 6.6072 10.345 6.79685C10.0685 6.98383 9.92441 7.24294 9.91273 7.57416L9.91273 8.8403L12.8799 8.8403Z" fill="#F48BA2"/>
<path d="M55.02 12.2295C55.02 16.6607 49.0389 20.2712 41.6224 20.2712C34.2059 20.2712 28.2249 16.6607 28.2249 12.2295C28.2249 7.79836 34.2059 4.18779 41.6224 4.18779C49.0389 4.18779 55.02 7.79836 55.02 12.2295Z" fill="white"/>
<path d="M41.6224 20.2713C34.7801 20.2713 29.134 17.1859 28.3205 13.2143C28.2727 13.5425 28.2249 13.8708 28.2249 14.199C28.2249 18.6302 34.2059 22.2407 41.6224 22.2407C49.0389 22.2407 55.02 18.6302 55.02 14.199C55.02 13.8708 54.9721 13.5425 54.9243 13.2143C54.1108 17.1859 48.4647 20.2713 41.6224 20.2713Z" fill="#FFBFCD"/>
<path d="M52.3884 12.1968C52.3884 12.4594 52.3884 12.6891 52.3405 12.9189C52.2927 13.083 52.0534 13.2143 51.8142 13.2143C51.5749 13.1815 51.3835 13.0174 51.3835 12.8533C51.4314 12.6563 51.4314 12.4594 51.4314 12.2296C51.4314 12.0327 51.6228 11.9014 51.9099 11.9014C52.197 11.9014 52.3884 12.0327 52.3884 12.1968ZM51.862 10.293C51.862 10.4243 51.7663 10.5556 51.5749 10.5884C51.3357 10.6541 51.0486 10.5556 50.9529 10.3915C50.8572 10.1946 50.7137 9.99762 50.5701 9.8335C50.4266 9.66939 50.5223 9.47245 50.7615 9.4068C51.0008 9.30833 51.2878 9.37398 51.3835 9.53809C51.5271 9.73503 51.6706 9.9648 51.7663 10.1617C51.862 10.2274 51.862 10.2602 51.862 10.293ZM51.5271 14.7242C51.5271 14.7898 51.5271 14.8227 51.4792 14.8883C51.3357 15.0852 51.1443 15.2822 51.0008 15.4791C50.8572 15.6432 50.5701 15.6761 50.3309 15.5776C50.0916 15.4791 50.0438 15.2822 50.1873 15.1181C50.3309 14.9539 50.5223 14.757 50.618 14.5929C50.7615 14.4288 51.0486 14.3631 51.24 14.4616C51.4314 14.4944 51.5271 14.6257 51.5271 14.7242ZM49.8045 8.12669C49.8045 8.22516 49.7567 8.29081 49.661 8.35645C49.4696 8.48775 49.1825 8.48775 48.9911 8.35645C48.7997 8.22516 48.5605 8.06104 48.3212 7.92975C48.1298 7.83128 48.082 7.60152 48.2734 7.47022C48.4648 7.33893 48.7519 7.30611 48.9433 7.4374C49.1825 7.56869 49.4696 7.73281 49.661 7.89693C49.7567 7.96257 49.8045 8.06104 49.8045 8.12669ZM49.1347 16.7264C49.1347 16.8249 49.0868 16.9234 48.9433 16.989C48.704 17.1203 48.4169 17.2844 48.1298 17.3829C47.8906 17.4813 47.6035 17.4485 47.46 17.2844C47.3164 17.1203 47.3643 16.9234 47.6035 16.8249C47.8428 16.6936 48.082 16.5951 48.3212 16.4638C48.5126 16.3325 48.8476 16.3654 48.9911 16.4966C49.0868 16.5951 49.1347 16.6608 49.1347 16.7264ZM46.6944 6.68246C46.6944 6.71528 46.6944 6.78093 46.6465 6.81375C46.5508 6.97787 46.2638 7.04352 46.0245 6.97787C45.7374 6.8794 45.4503 6.81375 45.1632 6.74811C44.924 6.68246 44.7805 6.51834 44.8762 6.3214C44.9718 6.15729 45.2111 6.05882 45.4982 6.12446C45.8331 6.19011 46.1202 6.28858 46.4073 6.35423C46.5987 6.4527 46.6944 6.55117 46.6944 6.68246ZM45.8331 18.0065C45.8331 18.1378 45.6896 18.2691 45.4982 18.3019C45.2111 18.3676 44.8762 18.4332 44.5412 18.4989C44.302 18.5317 44.0149 18.4332 43.967 18.2691C43.9192 18.105 44.0627 17.9081 44.302 17.8752C44.5891 17.8096 44.8762 17.7768 45.1632 17.7111C45.4025 17.6455 45.6896 17.7439 45.7853 17.9081C45.8331 17.9081 45.8331 17.9409 45.8331 18.0065ZM43.0101 6.05882C43.0101 6.09164 43.0101 6.09164 43.0101 6.05882C43.0101 6.25576 42.7708 6.38705 42.4837 6.38705C42.1966 6.38705 41.9096 6.35423 41.6225 6.35423C41.3354 6.35423 41.144 6.22293 41.144 6.02599C41.144 5.82905 41.3354 5.69776 41.6225 5.69776V5.69776C41.9574 5.69776 42.2445 5.69776 42.5794 5.73058C42.8187 5.76341 43.0101 5.8947 43.0101 6.05882ZM42.1009 18.4004C42.1009 18.5973 41.9096 18.7286 41.6225 18.7286C41.2875 18.7286 40.9526 18.7286 40.6655 18.6958C40.4263 18.6958 40.187 18.5317 40.2349 18.3348C40.2349 18.1378 40.4741 18.0065 40.7612 18.0393C41.0483 18.0393 41.3832 18.0722 41.6703 18.0722C41.9096 18.0722 42.1009 18.2363 42.1009 18.4004ZM39.23 6.28858C39.23 6.41987 39.0865 6.58399 38.8473 6.61682C38.5602 6.68246 38.2731 6.71529 37.986 6.78093C37.7467 6.84658 37.4596 6.74811 37.364 6.58399C37.2683 6.41987 37.4118 6.22293 37.651 6.15729C37.9381 6.09164 38.2731 6.02599 38.608 5.96035C38.8473 5.92752 39.1343 6.02599 39.1822 6.19011C39.23 6.22293 39.23 6.25576 39.23 6.28858ZM38.3688 18.0065C38.3688 18.0393 38.3688 18.0722 38.3209 18.105C38.2252 18.2691 37.986 18.3676 37.6989 18.3019C37.4118 18.2363 37.0769 18.1378 36.7898 18.0722C36.5505 18.0065 36.4548 17.8096 36.5505 17.6455C36.6462 17.4813 36.9333 17.4157 37.1726 17.4813C37.4596 17.5798 37.7467 17.6455 38.0338 17.7111C38.2731 17.7439 38.3688 17.8752 38.3688 18.0065ZM35.785 7.33893C35.785 7.4374 35.6893 7.53587 35.5936 7.60152C35.3543 7.73281 35.1151 7.83128 34.8758 7.96257C34.6844 8.09387 34.3495 8.06104 34.206 7.92975C34.0146 7.79846 34.0624 7.56869 34.2538 7.47022C34.493 7.33893 34.7801 7.17481 35.0672 7.07634C35.3065 6.97787 35.5936 7.01069 35.7371 7.17481C35.785 7.20763 35.785 7.27328 35.785 7.33893ZM35.0672 16.7592C35.0672 16.8249 35.0194 16.8905 34.9715 16.9562C34.828 17.0875 34.493 17.1203 34.3017 16.989C34.0624 16.8577 33.7753 16.6936 33.5839 16.5295C33.3925 16.3982 33.3925 16.2012 33.5839 16.0699C33.7753 15.9387 34.0624 15.9387 34.2538 16.0699C34.4452 16.2012 34.6844 16.3654 34.9237 16.4966C35.0194 16.5623 35.0672 16.6608 35.0672 16.7592ZM33.1533 9.17704C33.1533 9.24268 33.1054 9.30833 33.0576 9.34115C32.914 9.50527 32.7227 9.70221 32.627 9.86633C32.5313 10.0304 32.1963 10.0961 32.0049 9.99762C31.7657 9.93198 31.67 9.73504 31.8135 9.57092C31.9571 9.37398 32.1485 9.17704 32.292 8.9801C32.4356 8.81598 32.7227 8.78316 32.9619 8.88163C33.0576 8.94727 33.1533 9.07857 33.1533 9.17704ZM32.6748 14.757C32.6748 14.8883 32.5791 14.9868 32.4356 15.0524C32.1963 15.1509 31.9092 15.0852 31.8135 14.9211C31.67 14.7242 31.5264 14.4944 31.4307 14.2975C31.3351 14.1334 31.4786 13.9364 31.7178 13.8708C31.9571 13.8051 32.2442 13.9036 32.3399 14.0677C32.4356 14.2647 32.5791 14.4616 32.7227 14.6257C32.6748 14.6585 32.6748 14.6914 32.6748 14.757ZM31.8614 11.606L31.8614 11.6388C31.8135 11.8357 31.8135 12.0327 31.8135 12.2296C31.8135 12.4266 31.6221 12.5578 31.3351 12.5578C31.048 12.5578 30.8566 12.4266 30.8566 12.2296C30.8566 11.9998 30.8566 11.7701 30.9044 11.5731C30.9523 11.409 31.1915 11.2777 31.4307 11.2777C31.67 11.2777 31.8614 11.4418 31.8614 11.606Z" fill="#FFBFCD"/>
<path d="M42.101 20.2713L42.101 22.2407C42.4359 22.2407 42.723 22.2079 43.0579 22.2079L43.0579 20.2385C42.723 20.2385 42.4359 20.2713 42.101 20.2713Z" fill="#F48BA2"/>
<path d="M39.7086 20.2057L39.7086 22.1751C40.0435 22.2079 40.3306 22.2079 40.6655 22.2407L40.6655 20.2713C40.3306 20.2385 40.0435 20.2385 39.7086 20.2057Z" fill="#F48BA2"/>
<path d="M44.4934 20.1073L44.4934 22.0767C44.8283 22.0438 45.1154 21.9782 45.4503 21.9125L45.4503 19.9431C45.1154 20.0088 44.8283 20.0416 44.4934 20.1073Z" fill="#F48BA2"/>
<path d="M46.8858 19.6477L46.8858 21.6171C47.2207 21.5186 47.5078 21.4529 47.8427 21.3545L47.8427 19.3851C47.5078 19.4507 47.2207 19.5492 46.8858 19.6477Z" fill="#F48BA2"/>
<path d="M37.3161 19.8446L37.3161 21.814C37.6511 21.8797 37.9382 21.9453 38.2731 21.9781L38.2731 20.0087C37.9382 19.9759 37.6511 19.9103 37.3161 19.8446Z" fill="#F48BA2"/>
<path d="M34.9237 19.1881L34.9237 21.1575C35.2586 21.2559 35.5457 21.3544 35.8807 21.4529L35.8807 19.4835C35.5457 19.4178 35.2586 19.3194 34.9237 19.1881Z" fill="#F48BA2"/>
<path d="M32.0528 17.8751L32.0528 19.8445C32.3399 20.0414 32.6748 20.2055 33.0097 20.3696L33.0097 18.4002C32.6748 18.2361 32.3399 18.0392 32.0528 17.8751Z" fill="#F48BA2"/>
<path d="M29.6604 15.8401L29.6604 17.8095C29.9475 18.1377 30.2824 18.4659 30.6173 18.7614L30.6173 16.792C30.2824 16.4965 29.9475 16.2011 29.6604 15.8401Z" fill="#F48BA2"/>
<path d="M49.7567 18.6301L49.7567 20.5995C50.0917 20.4354 50.4266 20.2713 50.7137 20.1071L50.7137 18.1377C50.4266 18.3019 50.0917 18.466 49.7567 18.6301Z" fill="#F48BA2"/>
<path d="M52.1491 19.1881C52.4841 18.9255 52.819 18.6629 53.1061 18.3675L53.1061 16.3981C52.819 16.6935 52.4841 16.9561 52.1491 17.2187L52.1491 19.1881Z" fill="#F48BA2"/>
<path d="M44.1011 11.738L44.1011 13.0282L45.4503 13.0282L45.4503 14.0379L44.1011 14.0379L44.1011 14.8593L42.9154 14.8593L42.9154 14.0379L42.2904 14.0379L42.2904 14.8593L41.1047 14.8593L41.1047 14.0379L36.946 14.0379L36.946 11.8061C36.946 11.1623 37.1913 10.6481 37.682 10.2635C38.1687 9.87885 38.817 9.68653 39.627 9.68653C40.4525 9.68653 41.1008 9.8695 41.572 10.2355C42.0393 10.6014 42.2787 11.1103 42.2904 11.762L42.2904 13.0282L42.9154 13.0282L42.9154 11.738L44.1011 11.738ZM41.1047 13.0282L41.1047 11.8221C41.1047 11.4588 40.9821 11.181 40.7367 10.9887C40.4914 10.7964 40.1254 10.7002 39.6387 10.7002C39.2025 10.7002 38.8462 10.7951 38.5698 10.9847C38.2933 11.1717 38.1492 11.4308 38.1376 11.762L38.1376 13.0282L41.1047 13.0282Z" fill="#F48BA2"/>
<path d="M55.02 10.1081C55.02 14.5392 49.039 18.1498 41.6225 18.1498C34.206 18.1498 28.2249 14.5392 28.2249 10.1081C28.2249 5.6769 34.206 2.06633 41.6225 2.06633C49.039 2.06633 55.02 5.6769 55.02 10.1081Z" fill="#FFDCE4"/>
<path d="M41.6224 18.1497C34.7801 18.1497 29.134 15.0643 28.3206 11.0927C28.2727 11.4209 28.2249 11.7492 28.2249 12.0774C28.2249 16.5086 34.2059 20.1191 41.6224 20.1191C49.0389 20.1191 55.02 16.5086 55.02 12.0774C55.02 11.7492 54.9721 11.4209 54.9243 11.0927C54.1109 15.0643 48.4648 18.1497 41.6224 18.1497Z" fill="#FFBFCD"/>
<path d="M52.3884 10.0752C52.3884 10.3378 52.3884 10.5676 52.3405 10.7973C52.2927 10.9614 52.0534 11.0927 51.8142 11.0927C51.575 11.0599 51.3836 10.8958 51.3836 10.7317C51.4314 10.5347 51.4314 10.3378 51.4314 10.108C51.4314 9.91109 51.6228 9.77979 51.9099 9.77979C52.197 9.77979 52.3884 9.91109 52.3884 10.0752ZM51.8621 8.17145C51.8621 8.30274 51.7664 8.43404 51.575 8.46686C51.3357 8.53251 51.0486 8.43404 50.9529 8.26992C50.8572 8.07298 50.7137 7.87604 50.5701 7.71192C50.4266 7.54781 50.5223 7.35087 50.7615 7.28522C51.0008 7.18675 51.2879 7.25239 51.3836 7.41651C51.5271 7.61345 51.6707 7.84322 51.7664 8.04016C51.8621 8.1058 51.8621 8.13863 51.8621 8.17145ZM51.5271 12.6026C51.5271 12.6683 51.5271 12.7011 51.4793 12.7667C51.3357 12.9637 51.1443 13.1606 51.0008 13.3575C50.8572 13.5217 50.5701 13.5545 50.3309 13.456C50.0917 13.3575 50.0438 13.1606 50.1874 12.9965C50.3309 12.8324 50.5223 12.6354 50.618 12.4713C50.7615 12.3072 51.0486 12.2415 51.24 12.34C51.4314 12.3728 51.5271 12.5041 51.5271 12.6026ZM49.8046 6.00511C49.8046 6.10358 49.7567 6.16922 49.661 6.23487C49.4696 6.36616 49.1825 6.36616 48.9911 6.23487C48.7998 6.10358 48.5605 5.93946 48.3213 5.80817C48.1299 5.7097 48.082 5.47993 48.2734 5.34864C48.4648 5.21735 48.7519 5.18452 48.9433 5.31582C49.1825 5.44711 49.4696 5.61123 49.661 5.77534C49.7567 5.84099 49.8046 5.93946 49.8046 6.00511ZM49.1347 14.6048C49.1347 14.7033 49.0868 14.8018 48.9433 14.8674C48.7041 14.9987 48.417 15.1628 48.1299 15.2613C47.8906 15.3598 47.6035 15.3269 47.46 15.1628C47.3165 14.9987 47.3643 14.8018 47.6035 14.7033C47.8428 14.572 48.082 14.4735 48.3213 14.3422C48.5127 14.2109 48.8476 14.2438 48.9911 14.3751C49.0868 14.4735 49.1347 14.5392 49.1347 14.6048ZM46.6944 4.56088C46.6944 4.5937 46.6944 4.65935 46.6466 4.69217C46.5509 4.85629 46.2638 4.92194 46.0245 4.85629C45.7375 4.75782 45.4504 4.69217 45.1633 4.62653C44.924 4.56088 44.7805 4.39676 44.8762 4.19982C44.9719 4.03571 45.2111 3.93724 45.4982 4.00288C45.8332 4.06853 46.1202 4.167 46.4073 4.23264C46.5987 4.33111 46.6944 4.42959 46.6944 4.56088ZM45.8332 15.8849C45.8332 16.0162 45.6896 16.1475 45.4982 16.1804C45.2111 16.246 44.8762 16.3116 44.5412 16.3773C44.302 16.4101 44.0149 16.3116 43.9671 16.1475C43.9192 15.9834 44.0628 15.7865 44.302 15.7536C44.5891 15.688 44.8762 15.6552 45.1633 15.5895C45.4025 15.5239 45.6896 15.6224 45.7853 15.7865C45.8332 15.7865 45.8332 15.8193 45.8332 15.8849ZM43.0101 3.93724C43.0101 3.97006 43.0101 3.97006 43.0101 3.93724C43.0101 4.13418 42.7709 4.26547 42.4838 4.26547C42.1967 4.26547 41.9096 4.23265 41.6225 4.23265C41.3354 4.23265 41.144 4.10135 41.144 3.90441C41.144 3.70747 41.3354 3.57618 41.6225 3.57618V3.57618C41.9574 3.57618 42.2445 3.57618 42.5795 3.609C42.8187 3.64183 43.0101 3.77312 43.0101 3.93724ZM42.101 16.2788C42.101 16.4758 41.9096 16.6071 41.6225 16.6071C41.2876 16.6071 40.9526 16.6071 40.6655 16.5742C40.4263 16.5742 40.187 16.4101 40.2349 16.2132C40.2349 16.0162 40.4741 15.8849 40.7612 15.9178C41.0483 15.9178 41.3833 15.9506 41.6703 15.9506C41.9096 15.9506 42.101 16.1147 42.101 16.2788ZM39.2301 4.167C39.2301 4.29829 39.0865 4.46241 38.8473 4.49523C38.5602 4.56088 38.2731 4.5937 37.986 4.65935C37.7468 4.725 37.4597 4.62653 37.364 4.46241C37.2683 4.29829 37.4118 4.10135 37.6511 4.03571C37.9382 3.97006 38.2731 3.90441 38.608 3.83877C38.8473 3.80594 39.1344 3.90441 39.1822 4.06853C39.2301 4.10135 39.2301 4.13418 39.2301 4.167ZM38.3688 15.8849C38.3688 15.9178 38.3688 15.9506 38.321 15.9834C38.2253 16.1475 37.986 16.246 37.6989 16.1804C37.4118 16.1147 37.0769 16.0162 36.7898 15.9506C36.5506 15.8849 36.4549 15.688 36.5506 15.5239C36.6463 15.3598 36.9333 15.2941 37.1726 15.3598C37.4597 15.4582 37.7468 15.5239 38.0339 15.5895C38.2731 15.6224 38.3688 15.7536 38.3688 15.8849ZM35.785 5.21735C35.785 5.31582 35.6893 5.41429 35.5936 5.47993C35.3543 5.61123 35.1151 5.7097 34.8759 5.84099C34.6845 5.97228 34.3495 5.93946 34.206 5.80817C34.0146 5.67687 34.0624 5.44711 34.2538 5.34864C34.4931 5.21735 34.7802 5.05323 35.0673 4.95476C35.3065 4.85629 35.5936 4.88911 35.7371 5.05323C35.785 5.08605 35.785 5.1517 35.785 5.21735ZM35.0673 14.6377C35.0673 14.7033 35.0194 14.7689 34.9716 14.8346C34.828 14.9659 34.4931 14.9987 34.3017 14.8674C34.0624 14.7361 33.7754 14.572 33.584 14.4079C33.3926 14.2766 33.3926 14.0797 33.584 13.9484C33.7754 13.8171 34.0624 13.8171 34.2538 13.9484C34.4452 14.0797 34.6845 14.2438 34.9237 14.3751C35.0194 14.4407 35.0673 14.5392 35.0673 14.6377ZM33.1533 7.05546C33.1533 7.1211 33.1055 7.18675 33.0576 7.21957C32.9141 7.38369 32.7227 7.58063 32.627 7.74475C32.5313 7.90886 32.1964 7.97451 32.005 7.87604C31.7657 7.81039 31.67 7.61345 31.8136 7.44934C31.9571 7.2524 32.1485 7.05546 32.292 6.85851C32.4356 6.6944 32.7227 6.66157 32.9619 6.76004C33.0576 6.82569 33.1533 6.95699 33.1533 7.05546ZM32.6748 12.6354C32.6748 12.7667 32.5791 12.8652 32.4356 12.9308C32.1964 13.0293 31.9093 12.9637 31.8136 12.7995C31.67 12.6026 31.5265 12.3728 31.4308 12.1759C31.3351 12.0118 31.4786 11.8148 31.7179 11.7492C31.9571 11.6836 32.2442 11.782 32.3399 11.9461C32.4356 12.1431 32.5791 12.34 32.7227 12.5041C32.6748 12.537 32.6748 12.5698 32.6748 12.6354ZM31.8614 9.48438L31.8614 9.51721C31.8136 9.71415 31.8136 9.91109 31.8136 10.108C31.8136 10.305 31.6222 10.4363 31.3351 10.4363C31.048 10.4363 30.8566 10.305 30.8566 10.108C30.8566 9.87827 30.8566 9.6485 30.9044 9.45156C30.9523 9.28744 31.1915 9.15615 31.4308 9.15615C31.67 9.15615 31.8614 9.32027 31.8614 9.48438Z" fill="#FFBFCD"/>
<path d="M42.101 18.1497L42.101 20.1191C42.4359 20.1191 42.723 20.0863 43.058 20.0863L43.058 18.1169C42.723 18.1169 42.4359 18.1497 42.101 18.1497Z" fill="#F48BA2"/>
<path d="M39.7086 18.0841L39.7086 20.0535C40.0435 20.0863 40.3306 20.0863 40.6656 20.1191L40.6656 18.1497C40.3306 18.1169 40.0435 18.1169 39.7086 18.0841Z" fill="#F48BA2"/>
<path d="M44.4934 17.9857L44.4934 19.9551C44.8283 19.9223 45.1154 19.8566 45.4504 19.791L45.4504 17.8216C45.1154 17.8872 44.8283 17.92 44.4934 17.9857Z" fill="#F48BA2"/>
<path d="M46.8858 17.5262L46.8858 19.4956C47.2207 19.3971 47.5078 19.3315 47.8428 19.233L47.8428 17.2636C47.5078 17.3293 47.2207 17.4277 46.8858 17.5262Z" fill="#F48BA2"/>
<path d="M37.3162 17.7232L37.3162 19.6926C37.6511 19.7582 37.9382 19.8239 38.2731 19.8567L38.2731 17.8873C37.9382 17.8545 37.6511 17.7888 37.3162 17.7232Z" fill="#F48BA2"/>
<path d="M34.9237 17.0666L34.9237 19.036C35.2587 19.1345 35.5458 19.233 35.8807 19.3314L35.8807 17.362C35.5458 17.2964 35.2587 17.1979 34.9237 17.0666Z" fill="#F48BA2"/>
<path d="M32.0528 15.7537L32.0528 17.7231C32.3399 17.9201 32.6748 18.0842 33.0098 18.2483L33.0098 16.2789C32.6748 16.1148 32.3399 15.9178 32.0528 15.7537Z" fill="#F48BA2"/>
<path d="M29.6604 13.7186L29.6604 15.688C29.9475 16.0162 30.2824 16.3445 30.6174 16.6399L30.6174 14.6705C30.2824 14.3751 29.9475 14.0797 29.6604 13.7186Z" fill="#F48BA2"/>
<path d="M49.7567 16.5087L49.7567 18.4781C50.0917 18.314 50.4266 18.1499 50.7137 17.9858L50.7137 16.0164C50.4266 16.1805 50.0917 16.3446 49.7567 16.5087Z" fill="#F48BA2"/>
<path d="M52.1492 17.0665C52.4841 16.8039 52.819 16.5414 53.1061 16.2459L53.1061 14.2765C52.819 14.572 52.4841 14.8345 52.1492 15.0971L52.1492 17.0665Z" fill="#F48BA2"/>
<path d="M44.1011 9.61653L44.1011 10.9067L45.4504 10.9067L45.4504 11.9164L44.1011 11.9164L44.1011 12.7378L42.9154 12.7378L42.9154 11.9164L42.2904 11.9164L42.2904 12.7378L41.1047 12.7378L41.1047 11.9164L36.946 11.9164L36.946 9.68464C36.946 9.04089 37.1914 8.52669 37.682 8.14204C38.1687 7.75739 38.8171 7.56507 39.627 7.56507C40.4525 7.56507 41.1009 7.74804 41.572 8.11399C42.0393 8.47994 42.2788 8.9888 42.2904 9.64057L42.2904 10.9067L42.9154 10.9067L42.9154 9.61653L44.1011 9.61653ZM41.1047 10.9067L41.1047 9.70067C41.1047 9.33739 40.9821 9.05959 40.7368 8.86726C40.4915 8.67494 40.1254 8.57878 39.6387 8.57878C39.2026 8.57878 38.8463 8.6736 38.5698 8.86326C38.2933 9.05024 38.1493 9.30934 38.1376 9.64057L38.1376 10.9067L41.1047 10.9067Z" fill="#F48BA2"/>
</svg>
